%TF.GenerationSoftware,KiCad,Pcbnew,(7.0.0)*%
%TF.CreationDate,2024-03-24T20:48:38+02:00*%
%TF.ProjectId,p0wer EE3088,70307765-7220-4454-9533-3038382e6b69,rev?*%
%TF.SameCoordinates,Original*%
%TF.FileFunction,Soldermask,Top*%
%TF.FilePolarity,Negative*%
%FSLAX46Y46*%
G04 Gerber Fmt 4.6, Leading zero omitted, Abs format (unit mm)*
G04 Created by KiCad (PCBNEW (7.0.0)) date 2024-03-24 20:48:38*
%MOMM*%
%LPD*%
G01*
G04 APERTURE LIST*
G04 Aperture macros list*
%AMRoundRect*
0 Rectangle with rounded corners*
0 $1 Rounding radius*
0 $2 $3 $4 $5 $6 $7 $8 $9 X,Y pos of 4 corners*
0 Add a 4 corners polygon primitive as box body*
4,1,4,$2,$3,$4,$5,$6,$7,$8,$9,$2,$3,0*
0 Add four circle primitives for the rounded corners*
1,1,$1+$1,$2,$3*
1,1,$1+$1,$4,$5*
1,1,$1+$1,$6,$7*
1,1,$1+$1,$8,$9*
0 Add four rect primitives between the rounded corners*
20,1,$1+$1,$2,$3,$4,$5,0*
20,1,$1+$1,$4,$5,$6,$7,0*
20,1,$1+$1,$6,$7,$8,$9,0*
20,1,$1+$1,$8,$9,$2,$3,0*%
G04 Aperture macros list end*
%ADD10R,1.600000X1.600000*%
%ADD11O,1.600000X1.600000*%
%ADD12RoundRect,0.102000X-1.100000X-0.600000X1.100000X-0.600000X1.100000X0.600000X-1.100000X0.600000X0*%
%ADD13RoundRect,0.102000X-1.100000X-1.750000X1.100000X-1.750000X1.100000X1.750000X-1.100000X1.750000X0*%
%ADD14R,1.400000X0.900000*%
%ADD15R,0.850000X0.750000*%
%ADD16R,1.700000X1.700000*%
%ADD17O,1.700000X1.700000*%
%ADD18RoundRect,0.250000X-0.350000X-0.625000X0.350000X-0.625000X0.350000X0.625000X-0.350000X0.625000X0*%
%ADD19O,1.200000X1.750000*%
%ADD20RoundRect,0.250000X-0.375000X-0.275000X0.375000X-0.275000X0.375000X0.275000X-0.375000X0.275000X0*%
%ADD21RoundRect,0.250000X0.275000X-0.375000X0.275000X0.375000X-0.275000X0.375000X-0.275000X-0.375000X0*%
%ADD22RoundRect,0.250000X-0.275000X0.375000X-0.275000X-0.375000X0.275000X-0.375000X0.275000X0.375000X0*%
G04 APERTURE END LIST*
D10*
%TO.C,U2*%
X133359999Y-60959999D03*
D11*
X133359999Y-63499999D03*
X133359999Y-66039999D03*
X133359999Y-68579999D03*
X133359999Y-71119999D03*
X133359999Y-73659999D03*
X133359999Y-76199999D03*
X133359999Y-78739999D03*
X140979999Y-78739999D03*
X140979999Y-76199999D03*
X140979999Y-73659999D03*
X140979999Y-71119999D03*
X140979999Y-68579999D03*
X140979999Y-66039999D03*
X140979999Y-63499999D03*
X140979999Y-60959999D03*
%TD*%
D12*
%TO.C,U1*%
X118820000Y-66280000D03*
X118820000Y-68580000D03*
X118820000Y-70880000D03*
D13*
X125020000Y-68580000D03*
%TD*%
D14*
%TO.C,SW1*%
X119379999Y-75739999D03*
X119379999Y-78739999D03*
X119379999Y-80239999D03*
D15*
X118412999Y-74614999D03*
X116262999Y-74614999D03*
X118412999Y-81364999D03*
X116287999Y-81364999D03*
%TD*%
D16*
%TO.C,J2*%
X109219999Y-58419999D03*
D17*
X111759999Y-58419999D03*
X109219999Y-60959999D03*
X111759999Y-60959999D03*
X109219999Y-63499999D03*
X111759999Y-63499999D03*
X109219999Y-66039999D03*
X111759999Y-66039999D03*
X109219999Y-68579999D03*
X111759999Y-68579999D03*
X109219999Y-71119999D03*
X111759999Y-71119999D03*
X109219999Y-73659999D03*
X111759999Y-73659999D03*
X109219999Y-76199999D03*
X111759999Y-76199999D03*
%TD*%
D18*
%TO.C,J1*%
X109760000Y-81280000D03*
D19*
X111759999Y-81279999D03*
%TD*%
D20*
%TO.C,C6*%
X155880000Y-53340000D03*
X157480000Y-53340000D03*
%TD*%
%TO.C,C5*%
X155880000Y-58420000D03*
X157480000Y-58420000D03*
%TD*%
%TO.C,C4*%
X149860000Y-58420000D03*
X151460000Y-58420000D03*
%TD*%
%TO.C,C3*%
X149860000Y-53340000D03*
X151460000Y-53340000D03*
%TD*%
D21*
%TO.C,C2*%
X127375000Y-62560000D03*
X127375000Y-60960000D03*
%TD*%
D22*
%TO.C,C1*%
X115100000Y-70320000D03*
X115100000Y-71920000D03*
%TD*%
M02*
