M48
; DRILL file {KiCad (7.0.0)} date Sun Mar 24 20:47:26 2024
; FORMAT={-:-/ absolute / inch / decimal}
; #@! TF.CreationDate,2024-03-24T20:47:26+02:00
; #@! TF.GenerationSoftware,Kicad,Pcbnew,(7.0.0)
; #@! TF.FileFunction,Plated,1,2,PTH
FMAT,2
INCH
; #@! TA.AperFunction,Plated,PTH,ViaDrill
T1C0.0157
; #@! TA.AperFunction,Plated,PTH,ComponentDrill
T2C0.0295
; #@! TA.AperFunction,Plated,PTH,ComponentDrill
T3C0.0315
; #@! TA.AperFunction,Plated,PTH,ComponentDrill
T4C0.0394
%
G90
G05
T1
X4.8Y-2.7
X4.8531Y-2.6469
X4.9Y-2.5715
X5.4Y-3.0
T2
X4.3213Y-3.2
X4.4Y-3.2
T3
X5.2504Y-2.4
X5.2504Y-2.5
X5.2504Y-2.6
X5.2504Y-2.7
X5.2504Y-2.8
X5.2504Y-2.9
X5.2504Y-3.0
X5.2504Y-3.1
X5.5504Y-2.4
X5.5504Y-2.5
X5.5504Y-2.6
X5.5504Y-2.7
X5.5504Y-2.8
X5.5504Y-2.9
X5.5504Y-3.0
X5.5504Y-3.1
T4
X4.3Y-2.3
X4.3Y-2.4
X4.3Y-2.5
X4.3Y-2.6
X4.3Y-2.7
X4.3Y-2.8
X4.3Y-2.9
X4.3Y-3.0
X4.4Y-2.3
X4.4Y-2.4
X4.4Y-2.5
X4.4Y-2.6
X4.4Y-2.7
X4.4Y-2.8
X4.4Y-2.9
X4.4Y-3.0
T0
M30
