%TF.GenerationSoftware,KiCad,Pcbnew,(7.0.0)*%
%TF.CreationDate,2024-03-24T20:48:37+02:00*%
%TF.ProjectId,p0wer EE3088,70307765-7220-4454-9533-3038382e6b69,rev?*%
%TF.SameCoordinates,Original*%
%TF.FileFunction,Copper,L2,Bot*%
%TF.FilePolarity,Positive*%
%FSLAX46Y46*%
G04 Gerber Fmt 4.6, Leading zero omitted, Abs format (unit mm)*
G04 Created by KiCad (PCBNEW (7.0.0)) date 2024-03-24 20:48:37*
%MOMM*%
%LPD*%
G01*
G04 APERTURE LIST*
G04 Aperture macros list*
%AMRoundRect*
0 Rectangle with rounded corners*
0 $1 Rounding radius*
0 $2 $3 $4 $5 $6 $7 $8 $9 X,Y pos of 4 corners*
0 Add a 4 corners polygon primitive as box body*
4,1,4,$2,$3,$4,$5,$6,$7,$8,$9,$2,$3,0*
0 Add four circle primitives for the rounded corners*
1,1,$1+$1,$2,$3*
1,1,$1+$1,$4,$5*
1,1,$1+$1,$6,$7*
1,1,$1+$1,$8,$9*
0 Add four rect primitives between the rounded corners*
20,1,$1+$1,$2,$3,$4,$5,0*
20,1,$1+$1,$4,$5,$6,$7,0*
20,1,$1+$1,$6,$7,$8,$9,0*
20,1,$1+$1,$8,$9,$2,$3,0*%
G04 Aperture macros list end*
%TA.AperFunction,ComponentPad*%
%ADD10R,1.600000X1.600000*%
%TD*%
%TA.AperFunction,ComponentPad*%
%ADD11O,1.600000X1.600000*%
%TD*%
%TA.AperFunction,ComponentPad*%
%ADD12R,1.700000X1.700000*%
%TD*%
%TA.AperFunction,ComponentPad*%
%ADD13O,1.700000X1.700000*%
%TD*%
%TA.AperFunction,ComponentPad*%
%ADD14RoundRect,0.250000X-0.350000X-0.625000X0.350000X-0.625000X0.350000X0.625000X-0.350000X0.625000X0*%
%TD*%
%TA.AperFunction,ComponentPad*%
%ADD15O,1.200000X1.750000*%
%TD*%
%TA.AperFunction,ViaPad*%
%ADD16C,0.800000*%
%TD*%
%TA.AperFunction,Conductor*%
%ADD17C,0.250000*%
%TD*%
G04 APERTURE END LIST*
D10*
%TO.P,U2,1,EN1\u002C2*%
%TO.N,3V3*%
X133359999Y-60959999D03*
D11*
%TO.P,U2,2,1A*%
%TO.N,/PC6-9_PWM1*%
X133359999Y-63499999D03*
%TO.P,U2,3,1Y*%
%TO.N,/Motor2_A*%
X133359999Y-66039999D03*
%TO.P,U2,4,GND*%
%TO.N,MGND*%
X133359999Y-68579999D03*
%TO.P,U2,5,GND*%
X133359999Y-71119999D03*
%TO.P,U2,6,2Y*%
%TO.N,/Motor2_A*%
X133359999Y-73659999D03*
%TO.P,U2,7,2A*%
%TO.N,/PC6-9_PWM2*%
X133359999Y-76199999D03*
%TO.P,U2,8,VCC2*%
%TO.N,VCC*%
X133359999Y-78739999D03*
%TO.P,U2,9,EN3\u002C4*%
%TO.N,3V3*%
X140979999Y-78739999D03*
%TO.P,U2,10,3A*%
%TO.N,/PC6-9_PWM3*%
X140979999Y-76199999D03*
%TO.P,U2,11,3Y*%
%TO.N,/Motor2_B*%
X140979999Y-73659999D03*
%TO.P,U2,12,GND*%
%TO.N,MGND*%
X140979999Y-71119999D03*
%TO.P,U2,13,GND*%
X140979999Y-68579999D03*
%TO.P,U2,14,4Y*%
%TO.N,/Motor2_B*%
X140979999Y-66039999D03*
%TO.P,U2,15,4A*%
%TO.N,/PC6-9_PWM4*%
X140979999Y-63499999D03*
%TO.P,U2,16,VCC1*%
%TO.N,VCC*%
X140979999Y-60959999D03*
%TD*%
D12*
%TO.P,J2,1,Pin_1*%
%TO.N,/Motor2_A*%
X109219999Y-58419999D03*
D13*
%TO.P,J2,2,Pin_2*%
%TO.N,/PC6-9_PWM1*%
X111759999Y-58419999D03*
%TO.P,J2,3,Pin_3*%
%TO.N,/Motor2_B*%
X109219999Y-60959999D03*
%TO.P,J2,4,Pin_4*%
%TO.N,/PC6-9_PWM2*%
X111759999Y-60959999D03*
%TO.P,J2,5,Pin_5*%
%TO.N,GND*%
X109219999Y-63499999D03*
%TO.P,J2,6,Pin_6*%
X111759999Y-63499999D03*
%TO.P,J2,7,Pin_7*%
%TO.N,/BATT*%
X109219999Y-66039999D03*
%TO.P,J2,8,Pin_8*%
X111759999Y-66039999D03*
%TO.P,J2,9,Pin_9*%
%TO.N,/PD7*%
X109219999Y-68579999D03*
%TO.P,J2,10,Pin_10*%
%TO.N,/BATT_ADC*%
X111759999Y-68579999D03*
%TO.P,J2,11,Pin_11*%
%TO.N,VCC*%
X109219999Y-71119999D03*
%TO.P,J2,12,Pin_12*%
X111759999Y-71119999D03*
%TO.P,J2,13,Pin_13*%
%TO.N,/Motor1_A*%
X109219999Y-73659999D03*
%TO.P,J2,14,Pin_14*%
%TO.N,/PC6-9_PWM3*%
X111759999Y-73659999D03*
%TO.P,J2,15,Pin_15*%
%TO.N,/Motor1_B*%
X109219999Y-76199999D03*
%TO.P,J2,16,Pin_16*%
%TO.N,/PC6-9_PWM4*%
X111759999Y-76199999D03*
%TD*%
D14*
%TO.P,J1,1,Pin_1*%
%TO.N,Net-(J1-Pin_1)*%
X109760000Y-81280000D03*
D15*
%TO.P,J1,2,Pin_2*%
%TO.N,GND*%
X111759999Y-81279999D03*
%TD*%
D16*
%TO.N,/PC6-9_PWM4*%
X137160000Y-76200000D03*
%TO.N,3V3*%
X121920000Y-68580000D03*
X123269800Y-67230200D03*
X124460000Y-65315500D03*
%TD*%
D17*
%TO.N,3V3*%
X131785000Y-62535000D02*
X133360000Y-60960000D01*
X131785000Y-73675991D02*
X131785000Y-62535000D01*
X137025000Y-74785000D02*
X132894009Y-74785000D01*
X132894009Y-74785000D02*
X131785000Y-73675991D01*
X140980000Y-78740000D02*
X137025000Y-74785000D01*
X124460000Y-66040000D02*
X123269800Y-67230200D01*
X124460000Y-65315500D02*
X124460000Y-66040000D01*
%TO.N,/PC6-9_PWM4*%
X139115000Y-78155000D02*
X137160000Y-76200000D01*
X116390000Y-80830000D02*
X139115000Y-80830000D01*
X139115000Y-80830000D02*
X139115000Y-78155000D01*
X111760000Y-76200000D02*
X116390000Y-80830000D01*
%TO.N,3V3*%
X121920000Y-68580000D02*
X123269800Y-67230200D01*
%TO.N,MGND*%
X132235000Y-65574009D02*
X132235000Y-67455000D01*
X132894009Y-64915000D02*
X132235000Y-65574009D01*
X132235000Y-67455000D02*
X133360000Y-68580000D01*
X140980000Y-68580000D02*
X137315000Y-64915000D01*
X137315000Y-64915000D02*
X132894009Y-64915000D01*
X133360000Y-68580000D02*
X133360000Y-71120000D01*
%TO.N,/Motor2_A*%
X134485000Y-72535000D02*
X133360000Y-73660000D01*
X134485000Y-67165000D02*
X134485000Y-72535000D01*
X133360000Y-66040000D02*
X134485000Y-67165000D01*
%TO.N,/Motor2_B*%
X106680000Y-60960000D02*
X109220000Y-60960000D01*
X104140000Y-63500000D02*
X106680000Y-60960000D01*
X104140000Y-86360000D02*
X104140000Y-63500000D01*
X132080000Y-86360000D02*
X104140000Y-86360000D01*
X137160000Y-81280000D02*
X132080000Y-86360000D01*
X142240000Y-67300000D02*
X142240000Y-81280000D01*
X142240000Y-81280000D02*
X137160000Y-81280000D01*
X140980000Y-66040000D02*
X142240000Y-67300000D01*
%TD*%
%TA.AperFunction,Conductor*%
%TO.N,GND*%
G36*
X162497500Y-50817113D02*
G01*
X162542887Y-50862500D01*
X162559500Y-50924500D01*
X162559500Y-88775500D01*
X162542887Y-88837500D01*
X162497500Y-88882887D01*
X162435500Y-88899500D01*
X101724500Y-88899500D01*
X101662500Y-88882887D01*
X101617113Y-88837500D01*
X101600500Y-88775500D01*
X101600500Y-63480196D01*
X103509840Y-63480196D01*
X103510574Y-63487961D01*
X103510574Y-63487964D01*
X103513950Y-63523676D01*
X103514500Y-63535345D01*
X103514500Y-86289151D01*
X103512304Y-86312386D01*
X103512233Y-86312753D01*
X103512232Y-86312760D01*
X103510773Y-86320412D01*
X103511262Y-86328189D01*
X103511262Y-86328195D01*
X103514255Y-86375759D01*
X103514500Y-86383545D01*
X103514500Y-86399350D01*
X103514987Y-86403207D01*
X103514988Y-86403220D01*
X103516481Y-86415037D01*
X103517213Y-86422787D01*
X103520696Y-86478138D01*
X103523105Y-86485553D01*
X103523107Y-86485563D01*
X103523223Y-86485919D01*
X103528308Y-86508666D01*
X103528356Y-86509046D01*
X103528358Y-86509055D01*
X103529336Y-86516792D01*
X103532205Y-86524040D01*
X103532206Y-86524041D01*
X103549753Y-86568360D01*
X103552390Y-86575685D01*
X103567122Y-86621022D01*
X103569533Y-86628441D01*
X103573708Y-86635021D01*
X103573710Y-86635024D01*
X103573910Y-86635338D01*
X103584500Y-86656122D01*
X103584641Y-86656479D01*
X103584644Y-86656485D01*
X103587514Y-86663732D01*
X103620132Y-86708627D01*
X103624498Y-86715053D01*
X103654214Y-86761877D01*
X103659902Y-86767218D01*
X103659907Y-86767224D01*
X103660165Y-86767466D01*
X103675603Y-86784976D01*
X103680406Y-86791587D01*
X103686411Y-86796554D01*
X103686415Y-86796559D01*
X103723146Y-86826946D01*
X103728988Y-86832096D01*
X103769418Y-86870062D01*
X103776586Y-86874002D01*
X103795882Y-86887116D01*
X103802177Y-86892324D01*
X103809236Y-86895646D01*
X103809243Y-86895650D01*
X103852363Y-86915941D01*
X103859303Y-86919477D01*
X103894122Y-86938618D01*
X103907908Y-86946197D01*
X103915811Y-86948226D01*
X103937784Y-86956137D01*
X103938113Y-86956292D01*
X103938118Y-86956293D01*
X103945174Y-86959614D01*
X103999666Y-86970008D01*
X104007263Y-86971707D01*
X104060981Y-86985500D01*
X104069151Y-86985500D01*
X104092386Y-86987696D01*
X104100412Y-86989227D01*
X104155758Y-86985745D01*
X104163545Y-86985500D01*
X132002225Y-86985500D01*
X132013280Y-86986021D01*
X132020667Y-86987673D01*
X132087872Y-86985561D01*
X132091768Y-86985500D01*
X132115448Y-86985500D01*
X132119350Y-86985500D01*
X132123313Y-86984999D01*
X132134963Y-86984080D01*
X132178627Y-86982709D01*
X132197861Y-86977119D01*
X132216917Y-86973174D01*
X132236792Y-86970664D01*
X132277395Y-86954587D01*
X132288450Y-86950802D01*
X132330390Y-86938618D01*
X132347629Y-86928422D01*
X132365103Y-86919862D01*
X132376474Y-86915360D01*
X132376476Y-86915358D01*
X132383732Y-86912486D01*
X132419069Y-86886811D01*
X132428824Y-86880403D01*
X132466420Y-86858170D01*
X132480584Y-86844005D01*
X132495379Y-86831368D01*
X132511587Y-86819594D01*
X132539428Y-86785938D01*
X132547279Y-86777309D01*
X137382771Y-81941819D01*
X137423000Y-81914939D01*
X137470453Y-81905500D01*
X142169151Y-81905500D01*
X142192386Y-81907696D01*
X142200412Y-81909227D01*
X142255758Y-81905745D01*
X142263545Y-81905500D01*
X142275458Y-81905500D01*
X142279350Y-81905500D01*
X142295042Y-81903517D01*
X142302769Y-81902786D01*
X142358138Y-81899304D01*
X142365898Y-81896782D01*
X142388687Y-81891688D01*
X142388805Y-81891672D01*
X142396792Y-81890664D01*
X142404046Y-81887791D01*
X142404049Y-81887791D01*
X142448377Y-81870240D01*
X142455700Y-81867603D01*
X142508441Y-81850467D01*
X142515329Y-81846094D01*
X142536133Y-81835494D01*
X142543732Y-81832486D01*
X142588631Y-81799864D01*
X142595026Y-81795517D01*
X142641877Y-81765786D01*
X142647458Y-81759841D01*
X142664983Y-81744391D01*
X142671587Y-81739594D01*
X142706941Y-81696857D01*
X142712078Y-81691029D01*
X142750062Y-81650582D01*
X142753996Y-81643426D01*
X142767122Y-81624109D01*
X142772324Y-81617823D01*
X142795948Y-81567618D01*
X142799460Y-81560724D01*
X142826197Y-81512092D01*
X142828226Y-81504185D01*
X142836139Y-81482209D01*
X142839614Y-81474826D01*
X142850010Y-81420325D01*
X142851698Y-81412768D01*
X142865500Y-81359019D01*
X142865500Y-81350849D01*
X142867696Y-81327614D01*
X142867766Y-81327246D01*
X142869227Y-81319588D01*
X142865745Y-81264241D01*
X142865500Y-81256455D01*
X142865500Y-67377772D01*
X142866020Y-67366719D01*
X142867672Y-67359333D01*
X142865561Y-67292145D01*
X142865500Y-67288251D01*
X142865500Y-67264545D01*
X142865500Y-67260650D01*
X142864998Y-67256681D01*
X142864080Y-67245024D01*
X142864009Y-67242771D01*
X142862709Y-67201373D01*
X142857120Y-67182140D01*
X142853174Y-67163083D01*
X142851641Y-67150944D01*
X142850664Y-67143208D01*
X142834582Y-67102591D01*
X142830803Y-67091551D01*
X142820795Y-67057102D01*
X142820793Y-67057099D01*
X142818618Y-67049610D01*
X142808417Y-67032360D01*
X142799863Y-67014901D01*
X142792486Y-66996268D01*
X142766808Y-66960925D01*
X142760401Y-66951171D01*
X142742142Y-66920296D01*
X142742141Y-66920294D01*
X142738170Y-66913580D01*
X142724004Y-66899414D01*
X142711370Y-66884622D01*
X142699594Y-66868413D01*
X142693583Y-66863440D01*
X142693581Y-66863438D01*
X142665941Y-66840573D01*
X142657300Y-66832710D01*
X142279413Y-66454822D01*
X142247319Y-66399234D01*
X142247319Y-66335047D01*
X142248390Y-66331052D01*
X142265635Y-66266692D01*
X142285468Y-66040000D01*
X142265635Y-65813308D01*
X142206739Y-65593504D01*
X142110568Y-65387266D01*
X141980047Y-65200861D01*
X141819139Y-65039953D01*
X141686696Y-64947216D01*
X141637173Y-64912540D01*
X141637171Y-64912539D01*
X141632734Y-64909432D01*
X141574724Y-64882381D01*
X141522549Y-64836625D01*
X141503130Y-64770000D01*
X141522549Y-64703375D01*
X141574725Y-64657618D01*
X141632734Y-64630568D01*
X141819139Y-64500047D01*
X141980047Y-64339139D01*
X142110568Y-64152734D01*
X142206739Y-63946496D01*
X142265635Y-63726692D01*
X142285468Y-63500000D01*
X142265635Y-63273308D01*
X142215320Y-63085529D01*
X142208141Y-63058736D01*
X142208140Y-63058734D01*
X142206739Y-63053504D01*
X142110568Y-62847266D01*
X141980047Y-62660861D01*
X141819139Y-62499953D01*
X141632734Y-62369432D01*
X141574724Y-62342381D01*
X141522549Y-62296625D01*
X141503130Y-62230000D01*
X141522549Y-62163375D01*
X141574725Y-62117618D01*
X141632734Y-62090568D01*
X141819139Y-61960047D01*
X141980047Y-61799139D01*
X142110568Y-61612734D01*
X142206739Y-61406496D01*
X142265635Y-61186692D01*
X142285468Y-60960000D01*
X142265635Y-60733308D01*
X142206739Y-60513504D01*
X142110568Y-60307266D01*
X141980047Y-60120861D01*
X141819139Y-59959953D01*
X141632734Y-59829432D01*
X141489864Y-59762810D01*
X141431405Y-59735550D01*
X141431403Y-59735549D01*
X141426496Y-59733261D01*
X141421271Y-59731861D01*
X141421263Y-59731858D01*
X141211916Y-59675764D01*
X141211907Y-59675762D01*
X141206692Y-59674365D01*
X141201304Y-59673893D01*
X141201301Y-59673893D01*
X140985395Y-59655004D01*
X140980000Y-59654532D01*
X140974605Y-59655004D01*
X140758698Y-59673893D01*
X140758693Y-59673893D01*
X140753308Y-59674365D01*
X140748094Y-59675762D01*
X140748083Y-59675764D01*
X140538736Y-59731858D01*
X140538724Y-59731862D01*
X140533504Y-59733261D01*
X140528599Y-59735547D01*
X140528594Y-59735550D01*
X140332176Y-59827142D01*
X140332172Y-59827144D01*
X140327266Y-59829432D01*
X140322833Y-59832535D01*
X140322826Y-59832540D01*
X140145296Y-59956847D01*
X140145291Y-59956850D01*
X140140861Y-59959953D01*
X140137037Y-59963776D01*
X140137031Y-59963782D01*
X139983782Y-60117031D01*
X139983776Y-60117037D01*
X139979953Y-60120861D01*
X139976850Y-60125291D01*
X139976847Y-60125296D01*
X139852540Y-60302826D01*
X139852535Y-60302833D01*
X139849432Y-60307266D01*
X139847144Y-60312172D01*
X139847142Y-60312176D01*
X139755550Y-60508594D01*
X139755547Y-60508599D01*
X139753261Y-60513504D01*
X139751862Y-60518724D01*
X139751858Y-60518736D01*
X139695764Y-60728083D01*
X139695762Y-60728094D01*
X139694365Y-60733308D01*
X139674532Y-60960000D01*
X139694365Y-61186692D01*
X139695762Y-61191907D01*
X139695764Y-61191916D01*
X139751858Y-61401263D01*
X139751861Y-61401271D01*
X139753261Y-61406496D01*
X139849432Y-61612734D01*
X139852539Y-61617171D01*
X139852540Y-61617173D01*
X139870105Y-61642259D01*
X139979953Y-61799139D01*
X140140861Y-61960047D01*
X140327266Y-62090568D01*
X140332172Y-62092855D01*
X140332176Y-62092858D01*
X140385274Y-62117618D01*
X140437450Y-62163375D01*
X140456869Y-62230000D01*
X140437450Y-62296625D01*
X140385274Y-62342382D01*
X140332176Y-62367141D01*
X140332163Y-62367148D01*
X140327266Y-62369432D01*
X140322833Y-62372535D01*
X140322826Y-62372540D01*
X140145296Y-62496847D01*
X140145291Y-62496850D01*
X140140861Y-62499953D01*
X140137037Y-62503776D01*
X140137031Y-62503782D01*
X139983782Y-62657031D01*
X139983776Y-62657037D01*
X139979953Y-62660861D01*
X139976850Y-62665291D01*
X139976847Y-62665296D01*
X139852540Y-62842826D01*
X139852535Y-62842833D01*
X139849432Y-62847266D01*
X139847144Y-62852172D01*
X139847142Y-62852176D01*
X139755550Y-63048594D01*
X139755547Y-63048599D01*
X139753261Y-63053504D01*
X139751862Y-63058724D01*
X139751858Y-63058736D01*
X139695764Y-63268083D01*
X139695762Y-63268094D01*
X139694365Y-63273308D01*
X139674532Y-63500000D01*
X139694365Y-63726692D01*
X139695762Y-63731907D01*
X139695764Y-63731916D01*
X139751858Y-63941263D01*
X139751861Y-63941271D01*
X139753261Y-63946496D01*
X139849432Y-64152734D01*
X139979953Y-64339139D01*
X140140861Y-64500047D01*
X140327266Y-64630568D01*
X140332172Y-64632855D01*
X140332176Y-64632858D01*
X140385274Y-64657618D01*
X140437450Y-64703375D01*
X140456869Y-64770000D01*
X140437450Y-64836625D01*
X140385274Y-64882382D01*
X140332176Y-64907141D01*
X140332163Y-64907148D01*
X140327266Y-64909432D01*
X140322833Y-64912535D01*
X140322826Y-64912540D01*
X140145296Y-65036847D01*
X140145291Y-65036850D01*
X140140861Y-65039953D01*
X140137037Y-65043776D01*
X140137031Y-65043782D01*
X139983782Y-65197031D01*
X139983776Y-65197037D01*
X139979953Y-65200861D01*
X139976850Y-65205291D01*
X139976847Y-65205296D01*
X139852540Y-65382826D01*
X139852535Y-65382833D01*
X139849432Y-65387266D01*
X139847144Y-65392172D01*
X139847142Y-65392176D01*
X139755550Y-65588594D01*
X139755547Y-65588599D01*
X139753261Y-65593504D01*
X139751862Y-65598724D01*
X139751858Y-65598736D01*
X139695764Y-65808083D01*
X139695762Y-65808094D01*
X139694365Y-65813308D01*
X139693893Y-65818693D01*
X139693893Y-65818698D01*
X139687198Y-65895228D01*
X139674532Y-66040000D01*
X139675004Y-66045395D01*
X139675004Y-66045397D01*
X139678390Y-66084104D01*
X139669004Y-66143362D01*
X139632897Y-66191277D01*
X139578522Y-66216632D01*
X139518608Y-66213492D01*
X139467181Y-66182591D01*
X138691626Y-65407036D01*
X137812286Y-64527695D01*
X137804842Y-64519514D01*
X137800786Y-64513123D01*
X137751775Y-64467098D01*
X137748978Y-64464387D01*
X137732227Y-64447636D01*
X137729471Y-64444880D01*
X137726290Y-64442412D01*
X137717414Y-64434830D01*
X137691269Y-64410278D01*
X137691267Y-64410276D01*
X137685582Y-64404938D01*
X137678749Y-64401182D01*
X137678743Y-64401177D01*
X137668025Y-64395285D01*
X137651766Y-64384606D01*
X137642095Y-64377104D01*
X137642092Y-64377102D01*
X137635936Y-64372327D01*
X137628779Y-64369229D01*
X137628776Y-64369228D01*
X137595849Y-64354978D01*
X137585363Y-64349841D01*
X137553932Y-64332562D01*
X137553923Y-64332558D01*
X137547092Y-64328803D01*
X137539535Y-64326862D01*
X137539531Y-64326861D01*
X137527688Y-64323820D01*
X137509284Y-64317519D01*
X137498057Y-64312660D01*
X137498050Y-64312658D01*
X137490896Y-64309562D01*
X137483192Y-64308341D01*
X137483190Y-64308341D01*
X137447759Y-64302729D01*
X137436324Y-64300361D01*
X137401571Y-64291438D01*
X137401563Y-64291437D01*
X137394019Y-64289500D01*
X137386223Y-64289500D01*
X137373983Y-64289500D01*
X137354597Y-64287974D01*
X137334804Y-64284840D01*
X137327038Y-64285574D01*
X137327035Y-64285574D01*
X137291324Y-64288950D01*
X137279655Y-64289500D01*
X134621434Y-64289500D01*
X134561791Y-64274214D01*
X134516853Y-64232125D01*
X134497699Y-64173610D01*
X134509052Y-64113095D01*
X134576526Y-63968397D01*
X134586739Y-63946496D01*
X134645635Y-63726692D01*
X134665468Y-63500000D01*
X134645635Y-63273308D01*
X134595320Y-63085529D01*
X134588141Y-63058736D01*
X134588140Y-63058734D01*
X134586739Y-63053504D01*
X134490568Y-62847266D01*
X134360047Y-62660861D01*
X134199139Y-62499953D01*
X134174535Y-62482725D01*
X134135398Y-62437883D01*
X134121665Y-62379969D01*
X134136499Y-62322328D01*
X134176485Y-62278239D01*
X134232406Y-62257861D01*
X134267483Y-62254091D01*
X134402331Y-62203796D01*
X134517546Y-62117546D01*
X134603796Y-62002331D01*
X134654091Y-61867483D01*
X134660500Y-61807873D01*
X134660499Y-60112128D01*
X134654091Y-60052517D01*
X134603796Y-59917669D01*
X134517546Y-59802454D01*
X134443812Y-59747257D01*
X134409431Y-59721519D01*
X134409430Y-59721518D01*
X134402331Y-59716204D01*
X134290155Y-59674365D01*
X134274752Y-59668620D01*
X134274750Y-59668619D01*
X134267483Y-59665909D01*
X134259770Y-59665079D01*
X134259767Y-59665079D01*
X134211180Y-59659855D01*
X134211169Y-59659854D01*
X134207873Y-59659500D01*
X134204550Y-59659500D01*
X132515439Y-59659500D01*
X132515420Y-59659500D01*
X132512128Y-59659501D01*
X132508850Y-59659853D01*
X132508838Y-59659854D01*
X132460231Y-59665079D01*
X132460225Y-59665080D01*
X132452517Y-59665909D01*
X132445252Y-59668618D01*
X132445246Y-59668620D01*
X132325980Y-59713104D01*
X132325978Y-59713104D01*
X132317669Y-59716204D01*
X132310572Y-59721516D01*
X132310568Y-59721519D01*
X132209550Y-59797141D01*
X132209546Y-59797144D01*
X132202454Y-59802454D01*
X132197144Y-59809546D01*
X132197141Y-59809550D01*
X132121519Y-59910568D01*
X132121516Y-59910572D01*
X132116204Y-59917669D01*
X132113104Y-59925978D01*
X132113104Y-59925980D01*
X132068620Y-60045247D01*
X132068619Y-60045250D01*
X132065909Y-60052517D01*
X132065079Y-60060227D01*
X132065079Y-60060232D01*
X132059855Y-60108819D01*
X132059854Y-60108831D01*
X132059500Y-60112127D01*
X132059500Y-60115449D01*
X132059500Y-61324546D01*
X132050061Y-61371999D01*
X132023181Y-61412227D01*
X131397696Y-62037711D01*
X131389511Y-62045159D01*
X131383123Y-62049214D01*
X131377788Y-62054894D01*
X131377783Y-62054899D01*
X131337096Y-62098225D01*
X131334392Y-62101016D01*
X131317628Y-62117780D01*
X131317621Y-62117787D01*
X131314880Y-62120529D01*
X131312500Y-62123596D01*
X131312489Y-62123609D01*
X131312400Y-62123725D01*
X131304842Y-62132570D01*
X131280280Y-62158727D01*
X131280273Y-62158736D01*
X131274938Y-62164418D01*
X131271182Y-62171249D01*
X131271179Y-62171254D01*
X131265285Y-62181975D01*
X131254609Y-62198227D01*
X131247109Y-62207896D01*
X131247101Y-62207907D01*
X131242327Y-62214064D01*
X131239234Y-62221208D01*
X131239229Y-62221219D01*
X131224974Y-62254160D01*
X131219838Y-62264643D01*
X131202560Y-62296073D01*
X131198803Y-62302908D01*
X131196864Y-62310456D01*
X131196863Y-62310461D01*
X131193822Y-62322307D01*
X131187521Y-62340711D01*
X131182658Y-62351948D01*
X131182656Y-62351952D01*
X131179562Y-62359104D01*
X131178342Y-62366803D01*
X131178342Y-62366805D01*
X131172729Y-62402241D01*
X131170361Y-62413676D01*
X131161438Y-62448428D01*
X131161436Y-62448436D01*
X131159500Y-62455981D01*
X131159500Y-62463777D01*
X131159500Y-62476017D01*
X131157974Y-62495402D01*
X131154840Y-62515196D01*
X131155574Y-62522961D01*
X131155574Y-62522964D01*
X131158950Y-62558676D01*
X131159500Y-62570345D01*
X131159500Y-73598216D01*
X131158978Y-73609271D01*
X131157327Y-73616658D01*
X131157571Y-73624444D01*
X131157571Y-73624452D01*
X131159439Y-73683864D01*
X131159500Y-73687759D01*
X131159500Y-73715341D01*
X131159988Y-73719210D01*
X131159989Y-73719216D01*
X131160004Y-73719334D01*
X131160918Y-73730957D01*
X131162045Y-73766821D01*
X131162046Y-73766828D01*
X131162291Y-73774618D01*
X131164467Y-73782110D01*
X131164468Y-73782112D01*
X131167879Y-73793853D01*
X131171825Y-73812906D01*
X131174336Y-73832783D01*
X131177206Y-73840033D01*
X131177208Y-73840039D01*
X131190414Y-73873395D01*
X131194197Y-73884442D01*
X131206382Y-73926381D01*
X131210353Y-73933096D01*
X131210354Y-73933098D01*
X131216581Y-73943628D01*
X131225136Y-73961090D01*
X131229642Y-73972471D01*
X131229643Y-73972474D01*
X131232514Y-73979723D01*
X131249721Y-74003406D01*
X131258181Y-74015051D01*
X131264593Y-74024813D01*
X131282856Y-74055693D01*
X131282859Y-74055698D01*
X131286830Y-74062411D01*
X131292344Y-74067925D01*
X131292345Y-74067926D01*
X131300990Y-74076571D01*
X131313626Y-74091365D01*
X131320819Y-74101266D01*
X131320823Y-74101270D01*
X131325406Y-74107578D01*
X131331415Y-74112549D01*
X131331416Y-74112550D01*
X131359058Y-74135417D01*
X131367699Y-74143280D01*
X132384934Y-75160515D01*
X132417027Y-75216101D01*
X132417029Y-75280286D01*
X132384938Y-75335874D01*
X132363782Y-75357031D01*
X132363776Y-75357037D01*
X132359953Y-75360861D01*
X132356851Y-75365290D01*
X132356846Y-75365297D01*
X132232540Y-75542826D01*
X132232535Y-75542833D01*
X132229432Y-75547266D01*
X132227144Y-75552172D01*
X132227142Y-75552176D01*
X132135550Y-75748594D01*
X132135547Y-75748599D01*
X132133261Y-75753504D01*
X132131862Y-75758724D01*
X132131858Y-75758736D01*
X132075764Y-75968083D01*
X132075762Y-75968094D01*
X132074365Y-75973308D01*
X132073893Y-75978693D01*
X132073893Y-75978698D01*
X132058881Y-76150291D01*
X132054532Y-76200000D01*
X132055004Y-76205395D01*
X132069710Y-76373492D01*
X132074365Y-76426692D01*
X132075762Y-76431907D01*
X132075764Y-76431916D01*
X132131858Y-76641263D01*
X132131861Y-76641271D01*
X132133261Y-76646496D01*
X132229432Y-76852734D01*
X132359953Y-77039139D01*
X132520861Y-77200047D01*
X132707266Y-77330568D01*
X132712172Y-77332855D01*
X132712176Y-77332858D01*
X132765274Y-77357618D01*
X132817450Y-77403375D01*
X132836869Y-77470000D01*
X132817450Y-77536625D01*
X132765274Y-77582382D01*
X132712176Y-77607141D01*
X132712163Y-77607148D01*
X132707266Y-77609432D01*
X132702833Y-77612535D01*
X132702826Y-77612540D01*
X132525296Y-77736847D01*
X132525291Y-77736850D01*
X132520861Y-77739953D01*
X132517037Y-77743776D01*
X132517031Y-77743782D01*
X132363782Y-77897031D01*
X132363776Y-77897037D01*
X132359953Y-77900861D01*
X132356850Y-77905291D01*
X132356847Y-77905296D01*
X132232540Y-78082826D01*
X132232535Y-78082833D01*
X132229432Y-78087266D01*
X132227144Y-78092172D01*
X132227142Y-78092176D01*
X132135550Y-78288594D01*
X132135547Y-78288599D01*
X132133261Y-78293504D01*
X132131862Y-78298724D01*
X132131858Y-78298736D01*
X132075764Y-78508083D01*
X132075762Y-78508094D01*
X132074365Y-78513308D01*
X132054532Y-78740000D01*
X132074365Y-78966692D01*
X132075762Y-78971907D01*
X132075764Y-78971916D01*
X132131858Y-79181263D01*
X132131861Y-79181271D01*
X132133261Y-79186496D01*
X132229432Y-79392734D01*
X132232539Y-79397171D01*
X132232540Y-79397173D01*
X132316600Y-79517224D01*
X132359953Y-79579139D01*
X132520861Y-79740047D01*
X132707266Y-79870568D01*
X132857235Y-79940500D01*
X132913504Y-79966739D01*
X132912895Y-79968044D01*
X132962600Y-80004156D01*
X132988209Y-80067537D01*
X132976339Y-80134857D01*
X132930598Y-80185658D01*
X132864888Y-80204500D01*
X116700452Y-80204500D01*
X116652999Y-80195061D01*
X116612771Y-80168181D01*
X115934590Y-79490000D01*
X116882867Y-79490000D01*
X116884129Y-79498777D01*
X116900040Y-79609446D01*
X116900041Y-79609450D01*
X116901303Y-79618226D01*
X116904987Y-79626294D01*
X116904988Y-79626295D01*
X116951434Y-79727998D01*
X116951436Y-79728002D01*
X116955118Y-79736063D01*
X116960920Y-79742759D01*
X116960922Y-79742762D01*
X117024638Y-79816294D01*
X117039951Y-79833967D01*
X117148931Y-79904004D01*
X117273228Y-79940500D01*
X117393901Y-79940500D01*
X117402772Y-79940500D01*
X117527069Y-79904004D01*
X117636049Y-79833967D01*
X117720882Y-79736063D01*
X117774697Y-79618226D01*
X117793133Y-79490000D01*
X117774697Y-79361774D01*
X117720882Y-79243937D01*
X117675363Y-79191405D01*
X117641856Y-79152735D01*
X117636049Y-79146033D01*
X117628589Y-79141238D01*
X117628587Y-79141237D01*
X117581559Y-79111014D01*
X117527069Y-79075996D01*
X117518555Y-79073496D01*
X117411284Y-79041999D01*
X117411282Y-79041998D01*
X117402772Y-79039500D01*
X117273228Y-79039500D01*
X117264718Y-79041998D01*
X117264715Y-79041999D01*
X117157444Y-79073496D01*
X117157441Y-79073497D01*
X117148931Y-79075996D01*
X117141468Y-79080791D01*
X117141468Y-79080792D01*
X117047412Y-79141237D01*
X117047406Y-79141241D01*
X117039951Y-79146033D01*
X117034146Y-79152732D01*
X117034143Y-79152735D01*
X116960922Y-79237237D01*
X116960917Y-79237243D01*
X116955118Y-79243937D01*
X116951438Y-79251994D01*
X116951434Y-79252001D01*
X116904988Y-79353704D01*
X116901303Y-79361774D01*
X116900041Y-79370547D01*
X116900040Y-79370553D01*
X116896213Y-79397173D01*
X116882867Y-79490000D01*
X115934590Y-79490000D01*
X113100237Y-76655646D01*
X113068143Y-76600058D01*
X113068143Y-76535876D01*
X113080435Y-76490000D01*
X116882867Y-76490000D01*
X116884129Y-76498777D01*
X116900040Y-76609446D01*
X116900041Y-76609450D01*
X116901303Y-76618226D01*
X116904987Y-76626294D01*
X116904988Y-76626295D01*
X116951434Y-76727998D01*
X116951436Y-76728002D01*
X116955118Y-76736063D01*
X116960920Y-76742759D01*
X116960922Y-76742762D01*
X117024638Y-76816294D01*
X117039951Y-76833967D01*
X117148931Y-76904004D01*
X117273228Y-76940500D01*
X117393901Y-76940500D01*
X117402772Y-76940500D01*
X117527069Y-76904004D01*
X117636049Y-76833967D01*
X117720882Y-76736063D01*
X117774697Y-76618226D01*
X117793133Y-76490000D01*
X117774697Y-76361774D01*
X117720882Y-76243937D01*
X117688408Y-76206460D01*
X117641856Y-76152735D01*
X117636049Y-76146033D01*
X117628589Y-76141238D01*
X117628587Y-76141237D01*
X117581559Y-76111014D01*
X117527069Y-76075996D01*
X117518555Y-76073496D01*
X117411284Y-76041999D01*
X117411282Y-76041998D01*
X117402772Y-76039500D01*
X117273228Y-76039500D01*
X117264718Y-76041998D01*
X117264715Y-76041999D01*
X117157444Y-76073496D01*
X117157441Y-76073497D01*
X117148931Y-76075996D01*
X117141468Y-76080791D01*
X117141468Y-76080792D01*
X117047412Y-76141237D01*
X117047406Y-76141241D01*
X117039951Y-76146033D01*
X117034146Y-76152732D01*
X117034143Y-76152735D01*
X116960922Y-76237237D01*
X116960917Y-76237243D01*
X116955118Y-76243937D01*
X116951438Y-76251994D01*
X116951434Y-76252001D01*
X116904988Y-76353704D01*
X116901303Y-76361774D01*
X116900041Y-76370547D01*
X116900040Y-76370553D01*
X116885369Y-76472593D01*
X116882867Y-76490000D01*
X113080435Y-76490000D01*
X113095063Y-76435408D01*
X113115659Y-76200000D01*
X113095063Y-75964592D01*
X113033903Y-75736337D01*
X112934035Y-75522171D01*
X112798495Y-75328599D01*
X112631401Y-75161505D01*
X112626968Y-75158401D01*
X112626961Y-75158395D01*
X112445842Y-75031575D01*
X112406976Y-74987257D01*
X112392965Y-74930000D01*
X112406976Y-74872743D01*
X112445842Y-74828425D01*
X112626961Y-74701604D01*
X112626961Y-74701603D01*
X112631401Y-74698495D01*
X112798495Y-74531401D01*
X112934035Y-74337830D01*
X113033903Y-74123663D01*
X113095063Y-73895408D01*
X113115659Y-73660000D01*
X113095063Y-73424592D01*
X113033903Y-73196337D01*
X112934035Y-72982171D01*
X112798495Y-72788599D01*
X112631401Y-72621505D01*
X112626968Y-72618401D01*
X112626961Y-72618395D01*
X112445842Y-72491575D01*
X112406976Y-72447257D01*
X112392965Y-72390000D01*
X112406976Y-72332743D01*
X112445842Y-72288425D01*
X112626961Y-72161604D01*
X112626961Y-72161603D01*
X112631401Y-72158495D01*
X112798495Y-71991401D01*
X112934035Y-71797830D01*
X113033903Y-71583663D01*
X113095063Y-71355408D01*
X113115659Y-71120000D01*
X113095063Y-70884592D01*
X113033903Y-70656337D01*
X112934035Y-70442171D01*
X112798495Y-70248599D01*
X112631401Y-70081505D01*
X112626968Y-70078401D01*
X112626961Y-70078395D01*
X112445842Y-69951575D01*
X112406976Y-69907257D01*
X112392965Y-69850000D01*
X112406976Y-69792743D01*
X112445842Y-69748425D01*
X112626961Y-69621604D01*
X112626961Y-69621603D01*
X112631401Y-69618495D01*
X112798495Y-69451401D01*
X112934035Y-69257830D01*
X113033903Y-69043663D01*
X113095063Y-68815408D01*
X113115659Y-68580000D01*
X121014540Y-68580000D01*
X121015219Y-68586460D01*
X121033646Y-68761795D01*
X121033647Y-68761803D01*
X121034326Y-68768256D01*
X121036331Y-68774428D01*
X121036333Y-68774435D01*
X121090813Y-68942105D01*
X121092821Y-68948284D01*
X121096068Y-68953908D01*
X121096069Y-68953910D01*
X121144866Y-69038430D01*
X121187467Y-69112216D01*
X121314129Y-69252888D01*
X121467270Y-69364151D01*
X121640197Y-69441144D01*
X121825354Y-69480500D01*
X122008143Y-69480500D01*
X122014646Y-69480500D01*
X122199803Y-69441144D01*
X122372730Y-69364151D01*
X122525871Y-69252888D01*
X122652533Y-69112216D01*
X122747179Y-68948284D01*
X122805674Y-68768256D01*
X122823321Y-68600345D01*
X122834721Y-68559926D01*
X122858958Y-68525631D01*
X123217571Y-68167019D01*
X123257800Y-68140139D01*
X123305253Y-68130700D01*
X123357943Y-68130700D01*
X123364446Y-68130700D01*
X123549603Y-68091344D01*
X123722530Y-68014351D01*
X123875671Y-67903088D01*
X124002333Y-67762416D01*
X124096979Y-67598484D01*
X124155474Y-67418456D01*
X124173121Y-67250545D01*
X124184521Y-67210126D01*
X124208758Y-67175831D01*
X124847311Y-66537278D01*
X124855481Y-66529844D01*
X124861877Y-66525786D01*
X124907918Y-66476756D01*
X124910535Y-66474054D01*
X124930120Y-66454471D01*
X124932585Y-66451292D01*
X124940167Y-66442416D01*
X124970062Y-66410582D01*
X124979713Y-66393023D01*
X124990390Y-66376770D01*
X125002673Y-66360936D01*
X125020026Y-66320832D01*
X125025158Y-66310361D01*
X125042435Y-66278935D01*
X125042435Y-66278934D01*
X125046197Y-66272092D01*
X125051177Y-66252691D01*
X125057481Y-66234281D01*
X125065438Y-66215896D01*
X125072272Y-66172741D01*
X125074638Y-66161321D01*
X125079250Y-66143362D01*
X125085500Y-66119019D01*
X125085500Y-66098983D01*
X125087025Y-66079597D01*
X125090160Y-66059804D01*
X125086865Y-66024949D01*
X125092586Y-65974346D01*
X125118164Y-65930310D01*
X125192533Y-65847716D01*
X125287179Y-65683784D01*
X125345674Y-65503756D01*
X125365460Y-65315500D01*
X125350487Y-65173034D01*
X125346353Y-65133704D01*
X125346352Y-65133703D01*
X125345674Y-65127244D01*
X125287179Y-64947216D01*
X125192533Y-64783284D01*
X125180297Y-64769695D01*
X125070220Y-64647442D01*
X125070219Y-64647441D01*
X125065871Y-64642612D01*
X125060613Y-64638792D01*
X125060611Y-64638790D01*
X124917988Y-64535169D01*
X124917987Y-64535168D01*
X124912730Y-64531349D01*
X124906792Y-64528705D01*
X124745745Y-64457001D01*
X124745740Y-64456999D01*
X124739803Y-64454356D01*
X124733444Y-64453004D01*
X124733440Y-64453003D01*
X124561008Y-64416352D01*
X124561005Y-64416351D01*
X124554646Y-64415000D01*
X124365354Y-64415000D01*
X124358995Y-64416351D01*
X124358991Y-64416352D01*
X124186559Y-64453003D01*
X124186552Y-64453005D01*
X124180197Y-64454356D01*
X124174262Y-64456998D01*
X124174254Y-64457001D01*
X124013207Y-64528705D01*
X124013202Y-64528707D01*
X124007270Y-64531349D01*
X124002016Y-64535165D01*
X124002011Y-64535169D01*
X123859388Y-64638790D01*
X123859381Y-64638795D01*
X123854129Y-64642612D01*
X123849784Y-64647437D01*
X123849779Y-64647442D01*
X123731813Y-64778456D01*
X123731808Y-64778462D01*
X123727467Y-64783284D01*
X123724222Y-64788904D01*
X123724218Y-64788910D01*
X123636069Y-64941589D01*
X123636066Y-64941594D01*
X123632821Y-64947216D01*
X123630815Y-64953388D01*
X123630813Y-64953394D01*
X123576333Y-65121064D01*
X123576331Y-65121073D01*
X123574326Y-65127244D01*
X123573648Y-65133694D01*
X123573646Y-65133704D01*
X123555962Y-65301964D01*
X123554540Y-65315500D01*
X123555219Y-65321960D01*
X123573646Y-65497295D01*
X123573647Y-65497303D01*
X123574326Y-65503756D01*
X123576331Y-65509928D01*
X123576333Y-65509935D01*
X123602028Y-65589014D01*
X123632821Y-65683784D01*
X123636068Y-65689408D01*
X123636069Y-65689410D01*
X123694616Y-65790817D01*
X123710757Y-65842010D01*
X123703751Y-65895228D01*
X123674910Y-65940498D01*
X123322028Y-66293381D01*
X123281800Y-66320261D01*
X123234347Y-66329700D01*
X123175154Y-66329700D01*
X123168795Y-66331051D01*
X123168791Y-66331052D01*
X122996359Y-66367703D01*
X122996352Y-66367705D01*
X122989997Y-66369056D01*
X122984062Y-66371698D01*
X122984054Y-66371701D01*
X122823007Y-66443405D01*
X122823002Y-66443407D01*
X122817070Y-66446049D01*
X122811816Y-66449865D01*
X122811811Y-66449869D01*
X122669188Y-66553490D01*
X122669181Y-66553495D01*
X122663929Y-66557312D01*
X122659584Y-66562137D01*
X122659579Y-66562142D01*
X122541613Y-66693156D01*
X122541608Y-66693162D01*
X122537267Y-66697984D01*
X122534022Y-66703604D01*
X122534018Y-66703610D01*
X122445869Y-66856289D01*
X122445866Y-66856294D01*
X122442621Y-66861916D01*
X122440615Y-66868088D01*
X122440613Y-66868094D01*
X122386133Y-67035764D01*
X122386131Y-67035773D01*
X122384126Y-67041944D01*
X122383447Y-67048403D01*
X122383447Y-67048404D01*
X122366478Y-67209850D01*
X122355078Y-67250271D01*
X122330838Y-67284569D01*
X121972228Y-67643181D01*
X121932000Y-67670061D01*
X121884547Y-67679500D01*
X121825354Y-67679500D01*
X121818995Y-67680851D01*
X121818991Y-67680852D01*
X121646559Y-67717503D01*
X121646552Y-67717505D01*
X121640197Y-67718856D01*
X121634262Y-67721498D01*
X121634254Y-67721501D01*
X121473207Y-67793205D01*
X121473202Y-67793207D01*
X121467270Y-67795849D01*
X121462016Y-67799665D01*
X121462011Y-67799669D01*
X121319388Y-67903290D01*
X121319381Y-67903295D01*
X121314129Y-67907112D01*
X121309784Y-67911937D01*
X121309779Y-67911942D01*
X121191813Y-68042956D01*
X121191808Y-68042962D01*
X121187467Y-68047784D01*
X121184222Y-68053404D01*
X121184218Y-68053410D01*
X121096069Y-68206089D01*
X121096066Y-68206094D01*
X121092821Y-68211716D01*
X121090815Y-68217888D01*
X121090813Y-68217894D01*
X121036333Y-68385564D01*
X121036331Y-68385573D01*
X121034326Y-68391744D01*
X121033648Y-68398194D01*
X121033646Y-68398204D01*
X121016650Y-68559926D01*
X121014540Y-68580000D01*
X113115659Y-68580000D01*
X113095063Y-68344592D01*
X113033903Y-68116337D01*
X112934035Y-67902171D01*
X112798495Y-67708599D01*
X112631401Y-67541505D01*
X112626968Y-67538401D01*
X112626961Y-67538395D01*
X112445842Y-67411575D01*
X112406976Y-67367257D01*
X112392965Y-67310000D01*
X112406976Y-67252743D01*
X112445842Y-67208425D01*
X112626961Y-67081604D01*
X112626961Y-67081603D01*
X112631401Y-67078495D01*
X112798495Y-66911401D01*
X112934035Y-66717830D01*
X113033903Y-66503663D01*
X113095063Y-66275408D01*
X113115659Y-66040000D01*
X113095063Y-65804592D01*
X113033903Y-65576337D01*
X112934035Y-65362171D01*
X112798495Y-65168599D01*
X112631401Y-65001505D01*
X112626970Y-64998402D01*
X112626966Y-64998399D01*
X112445405Y-64871269D01*
X112406540Y-64826951D01*
X112392529Y-64769694D01*
X112406540Y-64712437D01*
X112445406Y-64668119D01*
X112626638Y-64541219D01*
X112634909Y-64534278D01*
X112794278Y-64374909D01*
X112801215Y-64366643D01*
X112930498Y-64182008D01*
X112935886Y-64172676D01*
X113031143Y-63968397D01*
X113034831Y-63958263D01*
X113086943Y-63763780D01*
X113087311Y-63752551D01*
X113076369Y-63750000D01*
X107903631Y-63750000D01*
X107892688Y-63752551D01*
X107893056Y-63763780D01*
X107945168Y-63958263D01*
X107948856Y-63968397D01*
X108044113Y-64172676D01*
X108049501Y-64182008D01*
X108178784Y-64366643D01*
X108185721Y-64374909D01*
X108345090Y-64534278D01*
X108353356Y-64541215D01*
X108534595Y-64668120D01*
X108573460Y-64712438D01*
X108587471Y-64769695D01*
X108573460Y-64826952D01*
X108534594Y-64871270D01*
X108353034Y-64998399D01*
X108353029Y-64998402D01*
X108348599Y-65001505D01*
X108344775Y-65005328D01*
X108344769Y-65005334D01*
X108185334Y-65164769D01*
X108185328Y-65164775D01*
X108181505Y-65168599D01*
X108178402Y-65173029D01*
X108178399Y-65173034D01*
X108049073Y-65357731D01*
X108049068Y-65357738D01*
X108045965Y-65362171D01*
X108043677Y-65367077D01*
X108043675Y-65367081D01*
X107948386Y-65571427D01*
X107948383Y-65571432D01*
X107946097Y-65576337D01*
X107944698Y-65581557D01*
X107944694Y-65581569D01*
X107886337Y-65799365D01*
X107886335Y-65799371D01*
X107884937Y-65804592D01*
X107884465Y-65809977D01*
X107884465Y-65809982D01*
X107879312Y-65868883D01*
X107864341Y-66040000D01*
X107864813Y-66045395D01*
X107883985Y-66264535D01*
X107884937Y-66275408D01*
X107886336Y-66280630D01*
X107886337Y-66280634D01*
X107944694Y-66498430D01*
X107944697Y-66498438D01*
X107946097Y-66503663D01*
X107948385Y-66508570D01*
X107948386Y-66508572D01*
X108043678Y-66712927D01*
X108043681Y-66712933D01*
X108045965Y-66717830D01*
X108049064Y-66722257D01*
X108049066Y-66722259D01*
X108178399Y-66906966D01*
X108178402Y-66906970D01*
X108181505Y-66911401D01*
X108348599Y-67078495D01*
X108353032Y-67081599D01*
X108353038Y-67081604D01*
X108534158Y-67208425D01*
X108573024Y-67252743D01*
X108587035Y-67310000D01*
X108573024Y-67367257D01*
X108534159Y-67411575D01*
X108353041Y-67538395D01*
X108348599Y-67541505D01*
X108344775Y-67545328D01*
X108344769Y-67545334D01*
X108185334Y-67704769D01*
X108185328Y-67704775D01*
X108181505Y-67708599D01*
X108178402Y-67713029D01*
X108178399Y-67713034D01*
X108049073Y-67897731D01*
X108049068Y-67897738D01*
X108045965Y-67902171D01*
X108043677Y-67907077D01*
X108043675Y-67907081D01*
X107948386Y-68111427D01*
X107948383Y-68111432D01*
X107946097Y-68116337D01*
X107944698Y-68121557D01*
X107944694Y-68121569D01*
X107886337Y-68339365D01*
X107886335Y-68339371D01*
X107884937Y-68344592D01*
X107884465Y-68349977D01*
X107884465Y-68349982D01*
X107880246Y-68398204D01*
X107864341Y-68580000D01*
X107864813Y-68585395D01*
X107883702Y-68801301D01*
X107884937Y-68815408D01*
X107886336Y-68820630D01*
X107886337Y-68820634D01*
X107944694Y-69038430D01*
X107944697Y-69038438D01*
X107946097Y-69043663D01*
X107948385Y-69048570D01*
X107948386Y-69048572D01*
X108043678Y-69252927D01*
X108043681Y-69252933D01*
X108045965Y-69257830D01*
X108049064Y-69262257D01*
X108049066Y-69262259D01*
X108178399Y-69446966D01*
X108178402Y-69446970D01*
X108181505Y-69451401D01*
X108348599Y-69618495D01*
X108353032Y-69621599D01*
X108353038Y-69621604D01*
X108534158Y-69748425D01*
X108573024Y-69792743D01*
X108587035Y-69850000D01*
X108573024Y-69907257D01*
X108534159Y-69951575D01*
X108353041Y-70078395D01*
X108348599Y-70081505D01*
X108344775Y-70085328D01*
X108344769Y-70085334D01*
X108185334Y-70244769D01*
X108185328Y-70244775D01*
X108181505Y-70248599D01*
X108178402Y-70253029D01*
X108178399Y-70253034D01*
X108049073Y-70437731D01*
X108049068Y-70437738D01*
X108045965Y-70442171D01*
X108043677Y-70447077D01*
X108043675Y-70447081D01*
X107948386Y-70651427D01*
X107948383Y-70651432D01*
X107946097Y-70656337D01*
X107944698Y-70661557D01*
X107944694Y-70661569D01*
X107886337Y-70879365D01*
X107886335Y-70879371D01*
X107884937Y-70884592D01*
X107884465Y-70889977D01*
X107884465Y-70889982D01*
X107864813Y-71114605D01*
X107864341Y-71120000D01*
X107864813Y-71125395D01*
X107883702Y-71341301D01*
X107884937Y-71355408D01*
X107886336Y-71360630D01*
X107886337Y-71360634D01*
X107944694Y-71578430D01*
X107944697Y-71578438D01*
X107946097Y-71583663D01*
X107948385Y-71588570D01*
X107948386Y-71588572D01*
X108043678Y-71792927D01*
X108043681Y-71792933D01*
X108045965Y-71797830D01*
X108049064Y-71802257D01*
X108049066Y-71802259D01*
X108178399Y-71986966D01*
X108178402Y-71986970D01*
X108181505Y-71991401D01*
X108348599Y-72158495D01*
X108353032Y-72161599D01*
X108353038Y-72161604D01*
X108534158Y-72288425D01*
X108573024Y-72332743D01*
X108587035Y-72390000D01*
X108573024Y-72447257D01*
X108534159Y-72491575D01*
X108353041Y-72618395D01*
X108348599Y-72621505D01*
X108344775Y-72625328D01*
X108344769Y-72625334D01*
X108185334Y-72784769D01*
X108185328Y-72784775D01*
X108181505Y-72788599D01*
X108178402Y-72793029D01*
X108178399Y-72793034D01*
X108049073Y-72977731D01*
X108049068Y-72977738D01*
X108045965Y-72982171D01*
X108043677Y-72987077D01*
X108043675Y-72987081D01*
X107948386Y-73191427D01*
X107948383Y-73191432D01*
X107946097Y-73196337D01*
X107944698Y-73201557D01*
X107944694Y-73201569D01*
X107886337Y-73419365D01*
X107886335Y-73419371D01*
X107884937Y-73424592D01*
X107884465Y-73429977D01*
X107884465Y-73429982D01*
X107868725Y-73609888D01*
X107864341Y-73660000D01*
X107864813Y-73665395D01*
X107883977Y-73884442D01*
X107884937Y-73895408D01*
X107886336Y-73900630D01*
X107886337Y-73900634D01*
X107944694Y-74118430D01*
X107944697Y-74118438D01*
X107946097Y-74123663D01*
X107948385Y-74128570D01*
X107948386Y-74128572D01*
X108043678Y-74332927D01*
X108043681Y-74332933D01*
X108045965Y-74337830D01*
X108049064Y-74342257D01*
X108049066Y-74342259D01*
X108178399Y-74526966D01*
X108178402Y-74526970D01*
X108181505Y-74531401D01*
X108348599Y-74698495D01*
X108353032Y-74701599D01*
X108353038Y-74701604D01*
X108534158Y-74828425D01*
X108573024Y-74872743D01*
X108587035Y-74930000D01*
X108573024Y-74987257D01*
X108534159Y-75031575D01*
X108353041Y-75158395D01*
X108348599Y-75161505D01*
X108344775Y-75165328D01*
X108344769Y-75165334D01*
X108185334Y-75324769D01*
X108185328Y-75324775D01*
X108181505Y-75328599D01*
X108178402Y-75333029D01*
X108178399Y-75333034D01*
X108049073Y-75517731D01*
X108049068Y-75517738D01*
X108045965Y-75522171D01*
X108043677Y-75527077D01*
X108043675Y-75527081D01*
X107948386Y-75731427D01*
X107948383Y-75731432D01*
X107946097Y-75736337D01*
X107944698Y-75741557D01*
X107944694Y-75741569D01*
X107886337Y-75959365D01*
X107886335Y-75959371D01*
X107884937Y-75964592D01*
X107884465Y-75969977D01*
X107884465Y-75969982D01*
X107874742Y-76081120D01*
X107864341Y-76200000D01*
X107864813Y-76205395D01*
X107883702Y-76421301D01*
X107884937Y-76435408D01*
X107886336Y-76440630D01*
X107886337Y-76440634D01*
X107944694Y-76658430D01*
X107944697Y-76658438D01*
X107946097Y-76663663D01*
X107948385Y-76668570D01*
X107948386Y-76668572D01*
X108043678Y-76872927D01*
X108043681Y-76872933D01*
X108045965Y-76877830D01*
X108049064Y-76882257D01*
X108049066Y-76882259D01*
X108178399Y-77066966D01*
X108178402Y-77066970D01*
X108181505Y-77071401D01*
X108348599Y-77238495D01*
X108542170Y-77374035D01*
X108756337Y-77473903D01*
X108984592Y-77535063D01*
X109220000Y-77555659D01*
X109455408Y-77535063D01*
X109683663Y-77473903D01*
X109897830Y-77374035D01*
X110091401Y-77238495D01*
X110258495Y-77071401D01*
X110351904Y-76938000D01*
X110388425Y-76885842D01*
X110432743Y-76846976D01*
X110490000Y-76832965D01*
X110547257Y-76846976D01*
X110591575Y-76885842D01*
X110718395Y-77066961D01*
X110718401Y-77066968D01*
X110721505Y-77071401D01*
X110888599Y-77238495D01*
X111082170Y-77374035D01*
X111296337Y-77473903D01*
X111524592Y-77535063D01*
X111760000Y-77555659D01*
X111995408Y-77535063D01*
X112095874Y-77508143D01*
X112160059Y-77508143D01*
X112215647Y-77540237D01*
X115892707Y-81217297D01*
X115900156Y-81225483D01*
X115904214Y-81231877D01*
X115909899Y-81237215D01*
X115909901Y-81237218D01*
X115953239Y-81277915D01*
X115956036Y-81280626D01*
X115975530Y-81300120D01*
X115978615Y-81302513D01*
X115978701Y-81302580D01*
X115987573Y-81310158D01*
X116013732Y-81334723D01*
X116013734Y-81334724D01*
X116019418Y-81340062D01*
X116026251Y-81343818D01*
X116026252Y-81343819D01*
X116036973Y-81349713D01*
X116053234Y-81360394D01*
X116069064Y-81372673D01*
X116106583Y-81388908D01*
X116109140Y-81390015D01*
X116119636Y-81395156D01*
X116157908Y-81416197D01*
X116165458Y-81418135D01*
X116165467Y-81418139D01*
X116177312Y-81421180D01*
X116195716Y-81427480D01*
X116214105Y-81435438D01*
X116251697Y-81441391D01*
X116257239Y-81442269D01*
X116268682Y-81444639D01*
X116303425Y-81453560D01*
X116303426Y-81453560D01*
X116310981Y-81455500D01*
X116331017Y-81455500D01*
X116350402Y-81457025D01*
X116370196Y-81460160D01*
X116408276Y-81456560D01*
X116413676Y-81456050D01*
X116425345Y-81455500D01*
X135800548Y-81455500D01*
X135856843Y-81469015D01*
X135900866Y-81506615D01*
X135923021Y-81560102D01*
X135918479Y-81617818D01*
X135888229Y-81667181D01*
X131857228Y-85698181D01*
X131817000Y-85725061D01*
X131769547Y-85734500D01*
X104889500Y-85734500D01*
X104827500Y-85717887D01*
X104782113Y-85672500D01*
X104765500Y-85610500D01*
X104765500Y-81951878D01*
X108659500Y-81951878D01*
X108659501Y-81955008D01*
X108659820Y-81958140D01*
X108659821Y-81958141D01*
X108669312Y-82051061D01*
X108669313Y-82051069D01*
X108670001Y-82057797D01*
X108725186Y-82224334D01*
X108728977Y-82230480D01*
X108813497Y-82367511D01*
X108813500Y-82367515D01*
X108817288Y-82373656D01*
X108941344Y-82497712D01*
X108947485Y-82501500D01*
X108947488Y-82501502D01*
X109004558Y-82536702D01*
X109090666Y-82589814D01*
X109257203Y-82644999D01*
X109359991Y-82655500D01*
X110160008Y-82655499D01*
X110262797Y-82644999D01*
X110429334Y-82589814D01*
X110578656Y-82497712D01*
X110702712Y-82373656D01*
X110742095Y-82309804D01*
X110784146Y-82268388D01*
X110840585Y-82251103D01*
X110898620Y-82261871D01*
X110945103Y-82298251D01*
X110956623Y-82312900D01*
X110964735Y-82321408D01*
X111114572Y-82451243D01*
X111124149Y-82458062D01*
X111295846Y-82557191D01*
X111306549Y-82562079D01*
X111493904Y-82626924D01*
X111499488Y-82628279D01*
X111507681Y-82627693D01*
X111510000Y-82617036D01*
X111510000Y-82612181D01*
X112010000Y-82612181D01*
X112012505Y-82623072D01*
X112023679Y-82622939D01*
X112115670Y-82600622D01*
X112126788Y-82596774D01*
X112307121Y-82514419D01*
X112317319Y-82508531D01*
X112478806Y-82393536D01*
X112487703Y-82385827D01*
X112624517Y-82242341D01*
X112631784Y-82233100D01*
X112738971Y-82066314D01*
X112744363Y-82055856D01*
X112818049Y-81871798D01*
X112821362Y-81860515D01*
X112858882Y-81665834D01*
X112860000Y-81654134D01*
X112860000Y-81546326D01*
X112856549Y-81533450D01*
X112843674Y-81530000D01*
X112026326Y-81530000D01*
X112013450Y-81533450D01*
X112010000Y-81546326D01*
X112010000Y-82612181D01*
X111510000Y-82612181D01*
X111510000Y-81013674D01*
X112010000Y-81013674D01*
X112013450Y-81026549D01*
X112026326Y-81030000D01*
X112843674Y-81030000D01*
X112856549Y-81026549D01*
X112860000Y-81013674D01*
X112860000Y-80955550D01*
X112859719Y-80949660D01*
X112845596Y-80801757D01*
X112843369Y-80790206D01*
X112787512Y-80599973D01*
X112783146Y-80589067D01*
X112692295Y-80412840D01*
X112685935Y-80402944D01*
X112563382Y-80247105D01*
X112555264Y-80238591D01*
X112405427Y-80108756D01*
X112395850Y-80101937D01*
X112224153Y-80002808D01*
X112213450Y-79997920D01*
X112026095Y-79933075D01*
X112020511Y-79931720D01*
X112012318Y-79932306D01*
X112010000Y-79942964D01*
X112010000Y-81013674D01*
X111510000Y-81013674D01*
X111510000Y-79947819D01*
X111507494Y-79936927D01*
X111496320Y-79937060D01*
X111404329Y-79959377D01*
X111393211Y-79963225D01*
X111212878Y-80045580D01*
X111202680Y-80051468D01*
X111041193Y-80166463D01*
X111032296Y-80174172D01*
X110938520Y-80272522D01*
X110891572Y-80303333D01*
X110835847Y-80310276D01*
X110782775Y-80291927D01*
X110743238Y-80252048D01*
X110734938Y-80238591D01*
X110702712Y-80186344D01*
X110578656Y-80062288D01*
X110572515Y-80058500D01*
X110572511Y-80058497D01*
X110435480Y-79973977D01*
X110429334Y-79970186D01*
X110408327Y-79963225D01*
X110269225Y-79917131D01*
X110269224Y-79917130D01*
X110262797Y-79915001D01*
X110256064Y-79914313D01*
X110256059Y-79914312D01*
X110163140Y-79904819D01*
X110163123Y-79904818D01*
X110160009Y-79904500D01*
X110156860Y-79904500D01*
X109363141Y-79904500D01*
X109363121Y-79904500D01*
X109359992Y-79904501D01*
X109356860Y-79904820D01*
X109356858Y-79904821D01*
X109263938Y-79914312D01*
X109263928Y-79914313D01*
X109257203Y-79915001D01*
X109250781Y-79917128D01*
X109250776Y-79917130D01*
X109097521Y-79967914D01*
X109097517Y-79967915D01*
X109090666Y-79970186D01*
X109084522Y-79973975D01*
X109084519Y-79973977D01*
X108947488Y-80058497D01*
X108947480Y-80058503D01*
X108941344Y-80062288D01*
X108936242Y-80067389D01*
X108936238Y-80067393D01*
X108822393Y-80181238D01*
X108822389Y-80181242D01*
X108817288Y-80186344D01*
X108813503Y-80192480D01*
X108813497Y-80192488D01*
X108728977Y-80329519D01*
X108725186Y-80335666D01*
X108670001Y-80502203D01*
X108669313Y-80508933D01*
X108669312Y-80508940D01*
X108659819Y-80601859D01*
X108659818Y-80601877D01*
X108659500Y-80604991D01*
X108659500Y-80608138D01*
X108659500Y-80608139D01*
X108659500Y-81951859D01*
X108659500Y-81951878D01*
X104765500Y-81951878D01*
X104765500Y-63810452D01*
X104774939Y-63762999D01*
X104801819Y-63722771D01*
X106902772Y-61621819D01*
X106943000Y-61594939D01*
X106990453Y-61585500D01*
X107944772Y-61585500D01*
X108002029Y-61599511D01*
X108046347Y-61638376D01*
X108178399Y-61826966D01*
X108178402Y-61826970D01*
X108181505Y-61831401D01*
X108348599Y-61998495D01*
X108353031Y-62001598D01*
X108353033Y-62001600D01*
X108534595Y-62128731D01*
X108573460Y-62173049D01*
X108587471Y-62230306D01*
X108573460Y-62287563D01*
X108534595Y-62331881D01*
X108353352Y-62458788D01*
X108345092Y-62465719D01*
X108185719Y-62625092D01*
X108178784Y-62633357D01*
X108049508Y-62817982D01*
X108044110Y-62827332D01*
X107948856Y-63031602D01*
X107945168Y-63041736D01*
X107893056Y-63236219D01*
X107892688Y-63247448D01*
X107903631Y-63250000D01*
X113076369Y-63250000D01*
X113087311Y-63247448D01*
X113086943Y-63236219D01*
X113034831Y-63041736D01*
X113031143Y-63031602D01*
X112935889Y-62827332D01*
X112930491Y-62817982D01*
X112801215Y-62633357D01*
X112794280Y-62625092D01*
X112634909Y-62465721D01*
X112626643Y-62458784D01*
X112445405Y-62331880D01*
X112406540Y-62287562D01*
X112392529Y-62230305D01*
X112406540Y-62173048D01*
X112445406Y-62128730D01*
X112457119Y-62120529D01*
X112631401Y-61998495D01*
X112798495Y-61831401D01*
X112934035Y-61637830D01*
X113033903Y-61423663D01*
X113095063Y-61195408D01*
X113115659Y-60960000D01*
X113095063Y-60724592D01*
X113033903Y-60496337D01*
X112934035Y-60282171D01*
X112798495Y-60088599D01*
X112631401Y-59921505D01*
X112626968Y-59918401D01*
X112626961Y-59918395D01*
X112445842Y-59791575D01*
X112406976Y-59747257D01*
X112392965Y-59690000D01*
X112406976Y-59632743D01*
X112445842Y-59588425D01*
X112626961Y-59461604D01*
X112626961Y-59461603D01*
X112631401Y-59458495D01*
X112798495Y-59291401D01*
X112934035Y-59097830D01*
X113033903Y-58883663D01*
X113095063Y-58655408D01*
X113115659Y-58420000D01*
X113095063Y-58184592D01*
X113033903Y-57956337D01*
X112934035Y-57742171D01*
X112798495Y-57548599D01*
X112631401Y-57381505D01*
X112626970Y-57378402D01*
X112626966Y-57378399D01*
X112442259Y-57249066D01*
X112442257Y-57249064D01*
X112437830Y-57245965D01*
X112432933Y-57243681D01*
X112432927Y-57243678D01*
X112228572Y-57148386D01*
X112228570Y-57148385D01*
X112223663Y-57146097D01*
X112218438Y-57144697D01*
X112218430Y-57144694D01*
X112000634Y-57086337D01*
X112000630Y-57086336D01*
X111995408Y-57084937D01*
X111990020Y-57084465D01*
X111990017Y-57084465D01*
X111765395Y-57064813D01*
X111760000Y-57064341D01*
X111754605Y-57064813D01*
X111529982Y-57084465D01*
X111529977Y-57084465D01*
X111524592Y-57084937D01*
X111519371Y-57086335D01*
X111519365Y-57086337D01*
X111301569Y-57144694D01*
X111301557Y-57144698D01*
X111296337Y-57146097D01*
X111291432Y-57148383D01*
X111291427Y-57148386D01*
X111087081Y-57243675D01*
X111087077Y-57243677D01*
X111082171Y-57245965D01*
X111077738Y-57249068D01*
X111077731Y-57249073D01*
X110893034Y-57378399D01*
X110893029Y-57378402D01*
X110888599Y-57381505D01*
X110884774Y-57385329D01*
X110884775Y-57385329D01*
X110766673Y-57503431D01*
X110713926Y-57534726D01*
X110652633Y-57536915D01*
X110597789Y-57509462D01*
X110562810Y-57459082D01*
X110535304Y-57385336D01*
X110513796Y-57327669D01*
X110427546Y-57212454D01*
X110337030Y-57144694D01*
X110319431Y-57131519D01*
X110319430Y-57131518D01*
X110312331Y-57126204D01*
X110205442Y-57086337D01*
X110184752Y-57078620D01*
X110184750Y-57078619D01*
X110177483Y-57075909D01*
X110169770Y-57075079D01*
X110169767Y-57075079D01*
X110121180Y-57069855D01*
X110121169Y-57069854D01*
X110117873Y-57069500D01*
X110114550Y-57069500D01*
X108325439Y-57069500D01*
X108325420Y-57069500D01*
X108322128Y-57069501D01*
X108318850Y-57069853D01*
X108318838Y-57069854D01*
X108270231Y-57075079D01*
X108270225Y-57075080D01*
X108262517Y-57075909D01*
X108255252Y-57078618D01*
X108255246Y-57078620D01*
X108135980Y-57123104D01*
X108135978Y-57123104D01*
X108127669Y-57126204D01*
X108120572Y-57131516D01*
X108120568Y-57131519D01*
X108019550Y-57207141D01*
X108019546Y-57207144D01*
X108012454Y-57212454D01*
X108007144Y-57219546D01*
X108007141Y-57219550D01*
X107931519Y-57320568D01*
X107931516Y-57320572D01*
X107926204Y-57327669D01*
X107923104Y-57335978D01*
X107923104Y-57335980D01*
X107878620Y-57455247D01*
X107878619Y-57455250D01*
X107875909Y-57462517D01*
X107875079Y-57470227D01*
X107875079Y-57470232D01*
X107869855Y-57518819D01*
X107869854Y-57518831D01*
X107869500Y-57522127D01*
X107869500Y-57525448D01*
X107869500Y-57525449D01*
X107869500Y-59314560D01*
X107869500Y-59314578D01*
X107869501Y-59317872D01*
X107869853Y-59321150D01*
X107869854Y-59321161D01*
X107875079Y-59369768D01*
X107875080Y-59369773D01*
X107875909Y-59377483D01*
X107878619Y-59384749D01*
X107878620Y-59384753D01*
X107904695Y-59454663D01*
X107926204Y-59512331D01*
X107931518Y-59519430D01*
X107931519Y-59519431D01*
X107987367Y-59594035D01*
X108012454Y-59627546D01*
X108127669Y-59713796D01*
X108217383Y-59747257D01*
X108259082Y-59762810D01*
X108309462Y-59797789D01*
X108336915Y-59852633D01*
X108334726Y-59913926D01*
X108303430Y-59966673D01*
X108181505Y-60088599D01*
X108178402Y-60093029D01*
X108178399Y-60093034D01*
X108046349Y-60281623D01*
X108002031Y-60320489D01*
X107944774Y-60334500D01*
X106757771Y-60334500D01*
X106746718Y-60333979D01*
X106739332Y-60332328D01*
X106731534Y-60332573D01*
X106672144Y-60334439D01*
X106668250Y-60334500D01*
X106640650Y-60334500D01*
X106636799Y-60334986D01*
X106636768Y-60334988D01*
X106636640Y-60335005D01*
X106625029Y-60335918D01*
X106589171Y-60337045D01*
X106589164Y-60337046D01*
X106581372Y-60337291D01*
X106573888Y-60339465D01*
X106573877Y-60339467D01*
X106562128Y-60342881D01*
X106543083Y-60346825D01*
X106530947Y-60348358D01*
X106530944Y-60348358D01*
X106523208Y-60349336D01*
X106515960Y-60352205D01*
X106515950Y-60352208D01*
X106482592Y-60365415D01*
X106471550Y-60369196D01*
X106437097Y-60379207D01*
X106437092Y-60379208D01*
X106429610Y-60381383D01*
X106422902Y-60385349D01*
X106422897Y-60385352D01*
X106412364Y-60391581D01*
X106394900Y-60400136D01*
X106383524Y-60404640D01*
X106383517Y-60404643D01*
X106376268Y-60407514D01*
X106369962Y-60412094D01*
X106369957Y-60412098D01*
X106340927Y-60433189D01*
X106331169Y-60439598D01*
X106300298Y-60457856D01*
X106293579Y-60461830D01*
X106288063Y-60467344D01*
X106288056Y-60467351D01*
X106279407Y-60476000D01*
X106264624Y-60488626D01*
X106254727Y-60495817D01*
X106254720Y-60495823D01*
X106248413Y-60500406D01*
X106243446Y-60506408D01*
X106243435Y-60506420D01*
X106220570Y-60534059D01*
X106212710Y-60542697D01*
X103752696Y-63002711D01*
X103744511Y-63010159D01*
X103738123Y-63014214D01*
X103732788Y-63019894D01*
X103732783Y-63019899D01*
X103692096Y-63063225D01*
X103689392Y-63066016D01*
X103672628Y-63082780D01*
X103672621Y-63082787D01*
X103669880Y-63085529D01*
X103667500Y-63088596D01*
X103667489Y-63088609D01*
X103667400Y-63088725D01*
X103659842Y-63097570D01*
X103635280Y-63123727D01*
X103635273Y-63123736D01*
X103629938Y-63129418D01*
X103626182Y-63136249D01*
X103626179Y-63136254D01*
X103620285Y-63146975D01*
X103609609Y-63163227D01*
X103602109Y-63172896D01*
X103602101Y-63172907D01*
X103597327Y-63179064D01*
X103594234Y-63186208D01*
X103594229Y-63186219D01*
X103579974Y-63219160D01*
X103574838Y-63229643D01*
X103557560Y-63261073D01*
X103553803Y-63267908D01*
X103551864Y-63275456D01*
X103551863Y-63275461D01*
X103548822Y-63287307D01*
X103542521Y-63305711D01*
X103537658Y-63316948D01*
X103537656Y-63316952D01*
X103534562Y-63324104D01*
X103533342Y-63331803D01*
X103533342Y-63331805D01*
X103527729Y-63367241D01*
X103525361Y-63378676D01*
X103516438Y-63413428D01*
X103516436Y-63413436D01*
X103514500Y-63420981D01*
X103514500Y-63428777D01*
X103514500Y-63441017D01*
X103512974Y-63460402D01*
X103509840Y-63480196D01*
X101600500Y-63480196D01*
X101600500Y-50924500D01*
X101617113Y-50862500D01*
X101662500Y-50817113D01*
X101724500Y-50800500D01*
X162435500Y-50800500D01*
X162497500Y-50817113D01*
G37*
%TD.AperFunction*%
%TD*%
M02*
