%TF.GenerationSoftware,KiCad,Pcbnew,(7.0.0)*%
%TF.CreationDate,2024-04-03T23:31:09+02:00*%
%TF.ProjectId,p0wer EE3088,70307765-7220-4454-9533-3038382e6b69,rev?*%
%TF.SameCoordinates,Original*%
%TF.FileFunction,Legend,Top*%
%TF.FilePolarity,Positive*%
%FSLAX46Y46*%
G04 Gerber Fmt 4.6, Leading zero omitted, Abs format (unit mm)*
G04 Created by KiCad (PCBNEW (7.0.0)) date 2024-04-03 23:31:09*
%MOMM*%
%LPD*%
G01*
G04 APERTURE LIST*
G04 Aperture macros list*
%AMRoundRect*
0 Rectangle with rounded corners*
0 $1 Rounding radius*
0 $2 $3 $4 $5 $6 $7 $8 $9 X,Y pos of 4 corners*
0 Add a 4 corners polygon primitive as box body*
4,1,4,$2,$3,$4,$5,$6,$7,$8,$9,$2,$3,0*
0 Add four circle primitives for the rounded corners*
1,1,$1+$1,$2,$3*
1,1,$1+$1,$4,$5*
1,1,$1+$1,$6,$7*
1,1,$1+$1,$8,$9*
0 Add four rect primitives between the rounded corners*
20,1,$1+$1,$2,$3,$4,$5,0*
20,1,$1+$1,$4,$5,$6,$7,0*
20,1,$1+$1,$6,$7,$8,$9,0*
20,1,$1+$1,$8,$9,$2,$3,0*%
G04 Aperture macros list end*
%ADD10C,0.200000*%
%ADD11C,0.150000*%
%ADD12C,0.100000*%
%ADD13C,0.120000*%
%ADD14RoundRect,0.250000X-0.325000X-0.450000X0.325000X-0.450000X0.325000X0.450000X-0.325000X0.450000X0*%
%ADD15RoundRect,0.250000X0.450000X-0.350000X0.450000X0.350000X-0.450000X0.350000X-0.450000X-0.350000X0*%
%ADD16RoundRect,0.250000X0.350000X0.450000X-0.350000X0.450000X-0.350000X-0.450000X0.350000X-0.450000X0*%
%ADD17RoundRect,0.250000X-0.350000X-0.450000X0.350000X-0.450000X0.350000X0.450000X-0.350000X0.450000X0*%
%ADD18RoundRect,0.250000X-0.337500X-0.475000X0.337500X-0.475000X0.337500X0.475000X-0.337500X0.475000X0*%
%ADD19RoundRect,0.250000X-0.475000X0.337500X-0.475000X-0.337500X0.475000X-0.337500X0.475000X0.337500X0*%
%ADD20RoundRect,0.150000X-0.512500X-0.150000X0.512500X-0.150000X0.512500X0.150000X-0.512500X0.150000X0*%
%ADD21O,1.600000X1.600000*%
%ADD22R,1.600000X1.600000*%
%ADD23RoundRect,0.102000X-1.750000X1.100000X-1.750000X-1.100000X1.750000X-1.100000X1.750000X1.100000X0*%
%ADD24RoundRect,0.102000X-0.600000X1.100000X-0.600000X-1.100000X0.600000X-1.100000X0.600000X1.100000X0*%
%ADD25R,0.850000X0.750000*%
%ADD26R,1.400000X0.900000*%
%ADD27R,1.700000X1.700000*%
%ADD28O,1.700000X1.700000*%
%ADD29RoundRect,0.250000X-0.350000X-0.625000X0.350000X-0.625000X0.350000X0.625000X-0.350000X0.625000X0*%
%ADD30O,1.200000X1.750000*%
G04 APERTURE END LIST*
D10*
X126245953Y-63282380D02*
X125769762Y-63282380D01*
X125769762Y-63282380D02*
X125894762Y-62282380D01*
X126579286Y-63282380D02*
X126662619Y-62615714D01*
X126704286Y-62282380D02*
X126650715Y-62330000D01*
X126650715Y-62330000D02*
X126692381Y-62377619D01*
X126692381Y-62377619D02*
X126745953Y-62330000D01*
X126745953Y-62330000D02*
X126704286Y-62282380D01*
X126704286Y-62282380D02*
X126692381Y-62377619D01*
X127055476Y-63282380D02*
X127180476Y-62282380D01*
X127132857Y-62663333D02*
X127234048Y-62615714D01*
X127234048Y-62615714D02*
X127424524Y-62615714D01*
X127424524Y-62615714D02*
X127513809Y-62663333D01*
X127513809Y-62663333D02*
X127555476Y-62710952D01*
X127555476Y-62710952D02*
X127591190Y-62806190D01*
X127591190Y-62806190D02*
X127555476Y-63091904D01*
X127555476Y-63091904D02*
X127495952Y-63187142D01*
X127495952Y-63187142D02*
X127442381Y-63234761D01*
X127442381Y-63234761D02*
X127341190Y-63282380D01*
X127341190Y-63282380D02*
X127150714Y-63282380D01*
X127150714Y-63282380D02*
X127061429Y-63234761D01*
X128347143Y-63234761D02*
X128245952Y-63282380D01*
X128245952Y-63282380D02*
X128055476Y-63282380D01*
X128055476Y-63282380D02*
X127966191Y-63234761D01*
X127966191Y-63234761D02*
X127930476Y-63139523D01*
X127930476Y-63139523D02*
X127978095Y-62758571D01*
X127978095Y-62758571D02*
X128037619Y-62663333D01*
X128037619Y-62663333D02*
X128138810Y-62615714D01*
X128138810Y-62615714D02*
X128329286Y-62615714D01*
X128329286Y-62615714D02*
X128418571Y-62663333D01*
X128418571Y-62663333D02*
X128454286Y-62758571D01*
X128454286Y-62758571D02*
X128442381Y-62853809D01*
X128442381Y-62853809D02*
X127954286Y-62949047D01*
X129417381Y-63282380D02*
X129542381Y-62282380D01*
X129542381Y-62282380D02*
X129786429Y-62996666D01*
X129786429Y-62996666D02*
X130209048Y-62282380D01*
X130209048Y-62282380D02*
X130084048Y-63282380D01*
X130703095Y-63282380D02*
X130613810Y-63234761D01*
X130613810Y-63234761D02*
X130572143Y-63187142D01*
X130572143Y-63187142D02*
X130536429Y-63091904D01*
X130536429Y-63091904D02*
X130572143Y-62806190D01*
X130572143Y-62806190D02*
X130631667Y-62710952D01*
X130631667Y-62710952D02*
X130685238Y-62663333D01*
X130685238Y-62663333D02*
X130786429Y-62615714D01*
X130786429Y-62615714D02*
X130929286Y-62615714D01*
X130929286Y-62615714D02*
X131018571Y-62663333D01*
X131018571Y-62663333D02*
X131060238Y-62710952D01*
X131060238Y-62710952D02*
X131095952Y-62806190D01*
X131095952Y-62806190D02*
X131060238Y-63091904D01*
X131060238Y-63091904D02*
X131000714Y-63187142D01*
X131000714Y-63187142D02*
X130947143Y-63234761D01*
X130947143Y-63234761D02*
X130845952Y-63282380D01*
X130845952Y-63282380D02*
X130703095Y-63282380D01*
X131423333Y-63234761D02*
X131512619Y-63282380D01*
X131512619Y-63282380D02*
X131703095Y-63282380D01*
X131703095Y-63282380D02*
X131804286Y-63234761D01*
X131804286Y-63234761D02*
X131863810Y-63139523D01*
X131863810Y-63139523D02*
X131869762Y-63091904D01*
X131869762Y-63091904D02*
X131834048Y-62996666D01*
X131834048Y-62996666D02*
X131744762Y-62949047D01*
X131744762Y-62949047D02*
X131601905Y-62949047D01*
X131601905Y-62949047D02*
X131512619Y-62901428D01*
X131512619Y-62901428D02*
X131476905Y-62806190D01*
X131476905Y-62806190D02*
X131482857Y-62758571D01*
X131482857Y-62758571D02*
X131542381Y-62663333D01*
X131542381Y-62663333D02*
X131643572Y-62615714D01*
X131643572Y-62615714D02*
X131786429Y-62615714D01*
X131786429Y-62615714D02*
X131875714Y-62663333D01*
X132274524Y-63282380D02*
X132357857Y-62615714D01*
X132399524Y-62282380D02*
X132345953Y-62330000D01*
X132345953Y-62330000D02*
X132387619Y-62377619D01*
X132387619Y-62377619D02*
X132441191Y-62330000D01*
X132441191Y-62330000D02*
X132399524Y-62282380D01*
X132399524Y-62282380D02*
X132387619Y-62377619D01*
X132691190Y-62615714D02*
X133072143Y-62615714D01*
X132875714Y-62282380D02*
X132768571Y-63139523D01*
X132768571Y-63139523D02*
X132804286Y-63234761D01*
X132804286Y-63234761D02*
X132893571Y-63282380D01*
X132893571Y-63282380D02*
X132988809Y-63282380D01*
X133322143Y-63282380D02*
X133405476Y-62615714D01*
X133447143Y-62282380D02*
X133393572Y-62330000D01*
X133393572Y-62330000D02*
X133435238Y-62377619D01*
X133435238Y-62377619D02*
X133488810Y-62330000D01*
X133488810Y-62330000D02*
X133447143Y-62282380D01*
X133447143Y-62282380D02*
X133435238Y-62377619D01*
D11*
%TO.C,D1*%
X149121905Y-36817380D02*
X149121905Y-35817380D01*
X149121905Y-35817380D02*
X149360000Y-35817380D01*
X149360000Y-35817380D02*
X149502857Y-35865000D01*
X149502857Y-35865000D02*
X149598095Y-35960238D01*
X149598095Y-35960238D02*
X149645714Y-36055476D01*
X149645714Y-36055476D02*
X149693333Y-36245952D01*
X149693333Y-36245952D02*
X149693333Y-36388809D01*
X149693333Y-36388809D02*
X149645714Y-36579285D01*
X149645714Y-36579285D02*
X149598095Y-36674523D01*
X149598095Y-36674523D02*
X149502857Y-36769761D01*
X149502857Y-36769761D02*
X149360000Y-36817380D01*
X149360000Y-36817380D02*
X149121905Y-36817380D01*
X150645714Y-36817380D02*
X150074286Y-36817380D01*
X150360000Y-36817380D02*
X150360000Y-35817380D01*
X150360000Y-35817380D02*
X150264762Y-35960238D01*
X150264762Y-35960238D02*
X150169524Y-36055476D01*
X150169524Y-36055476D02*
X150074286Y-36103095D01*
%TO.C,R4*%
X118097380Y-61126666D02*
X117621190Y-61459999D01*
X118097380Y-61698094D02*
X117097380Y-61698094D01*
X117097380Y-61698094D02*
X117097380Y-61317142D01*
X117097380Y-61317142D02*
X117145000Y-61221904D01*
X117145000Y-61221904D02*
X117192619Y-61174285D01*
X117192619Y-61174285D02*
X117287857Y-61126666D01*
X117287857Y-61126666D02*
X117430714Y-61126666D01*
X117430714Y-61126666D02*
X117525952Y-61174285D01*
X117525952Y-61174285D02*
X117573571Y-61221904D01*
X117573571Y-61221904D02*
X117621190Y-61317142D01*
X117621190Y-61317142D02*
X117621190Y-61698094D01*
X117430714Y-60269523D02*
X118097380Y-60269523D01*
X117049761Y-60507618D02*
X117764047Y-60745713D01*
X117764047Y-60745713D02*
X117764047Y-60126666D01*
%TO.C,R3*%
X118097380Y-56046666D02*
X117621190Y-56379999D01*
X118097380Y-56618094D02*
X117097380Y-56618094D01*
X117097380Y-56618094D02*
X117097380Y-56237142D01*
X117097380Y-56237142D02*
X117145000Y-56141904D01*
X117145000Y-56141904D02*
X117192619Y-56094285D01*
X117192619Y-56094285D02*
X117287857Y-56046666D01*
X117287857Y-56046666D02*
X117430714Y-56046666D01*
X117430714Y-56046666D02*
X117525952Y-56094285D01*
X117525952Y-56094285D02*
X117573571Y-56141904D01*
X117573571Y-56141904D02*
X117621190Y-56237142D01*
X117621190Y-56237142D02*
X117621190Y-56618094D01*
X117097380Y-55713332D02*
X117097380Y-55094285D01*
X117097380Y-55094285D02*
X117478333Y-55427618D01*
X117478333Y-55427618D02*
X117478333Y-55284761D01*
X117478333Y-55284761D02*
X117525952Y-55189523D01*
X117525952Y-55189523D02*
X117573571Y-55141904D01*
X117573571Y-55141904D02*
X117668809Y-55094285D01*
X117668809Y-55094285D02*
X117906904Y-55094285D01*
X117906904Y-55094285D02*
X118002142Y-55141904D01*
X118002142Y-55141904D02*
X118049761Y-55189523D01*
X118049761Y-55189523D02*
X118097380Y-55284761D01*
X118097380Y-55284761D02*
X118097380Y-55570475D01*
X118097380Y-55570475D02*
X118049761Y-55665713D01*
X118049761Y-55665713D02*
X118002142Y-55713332D01*
%TO.C,R2*%
X146513333Y-45197380D02*
X146180000Y-44721190D01*
X145941905Y-45197380D02*
X145941905Y-44197380D01*
X145941905Y-44197380D02*
X146322857Y-44197380D01*
X146322857Y-44197380D02*
X146418095Y-44245000D01*
X146418095Y-44245000D02*
X146465714Y-44292619D01*
X146465714Y-44292619D02*
X146513333Y-44387857D01*
X146513333Y-44387857D02*
X146513333Y-44530714D01*
X146513333Y-44530714D02*
X146465714Y-44625952D01*
X146465714Y-44625952D02*
X146418095Y-44673571D01*
X146418095Y-44673571D02*
X146322857Y-44721190D01*
X146322857Y-44721190D02*
X145941905Y-44721190D01*
X146894286Y-44292619D02*
X146941905Y-44245000D01*
X146941905Y-44245000D02*
X147037143Y-44197380D01*
X147037143Y-44197380D02*
X147275238Y-44197380D01*
X147275238Y-44197380D02*
X147370476Y-44245000D01*
X147370476Y-44245000D02*
X147418095Y-44292619D01*
X147418095Y-44292619D02*
X147465714Y-44387857D01*
X147465714Y-44387857D02*
X147465714Y-44483095D01*
X147465714Y-44483095D02*
X147418095Y-44625952D01*
X147418095Y-44625952D02*
X146846667Y-45197380D01*
X146846667Y-45197380D02*
X147465714Y-45197380D01*
%TO.C,R1*%
X144613333Y-34277380D02*
X144280000Y-33801190D01*
X144041905Y-34277380D02*
X144041905Y-33277380D01*
X144041905Y-33277380D02*
X144422857Y-33277380D01*
X144422857Y-33277380D02*
X144518095Y-33325000D01*
X144518095Y-33325000D02*
X144565714Y-33372619D01*
X144565714Y-33372619D02*
X144613333Y-33467857D01*
X144613333Y-33467857D02*
X144613333Y-33610714D01*
X144613333Y-33610714D02*
X144565714Y-33705952D01*
X144565714Y-33705952D02*
X144518095Y-33753571D01*
X144518095Y-33753571D02*
X144422857Y-33801190D01*
X144422857Y-33801190D02*
X144041905Y-33801190D01*
X145565714Y-34277380D02*
X144994286Y-34277380D01*
X145280000Y-34277380D02*
X145280000Y-33277380D01*
X145280000Y-33277380D02*
X145184762Y-33420238D01*
X145184762Y-33420238D02*
X145089524Y-33515476D01*
X145089524Y-33515476D02*
X144994286Y-33563095D01*
%TO.C,C9*%
X151043333Y-41772142D02*
X150995714Y-41819761D01*
X150995714Y-41819761D02*
X150852857Y-41867380D01*
X150852857Y-41867380D02*
X150757619Y-41867380D01*
X150757619Y-41867380D02*
X150614762Y-41819761D01*
X150614762Y-41819761D02*
X150519524Y-41724523D01*
X150519524Y-41724523D02*
X150471905Y-41629285D01*
X150471905Y-41629285D02*
X150424286Y-41438809D01*
X150424286Y-41438809D02*
X150424286Y-41295952D01*
X150424286Y-41295952D02*
X150471905Y-41105476D01*
X150471905Y-41105476D02*
X150519524Y-41010238D01*
X150519524Y-41010238D02*
X150614762Y-40915000D01*
X150614762Y-40915000D02*
X150757619Y-40867380D01*
X150757619Y-40867380D02*
X150852857Y-40867380D01*
X150852857Y-40867380D02*
X150995714Y-40915000D01*
X150995714Y-40915000D02*
X151043333Y-40962619D01*
X151519524Y-41867380D02*
X151710000Y-41867380D01*
X151710000Y-41867380D02*
X151805238Y-41819761D01*
X151805238Y-41819761D02*
X151852857Y-41772142D01*
X151852857Y-41772142D02*
X151948095Y-41629285D01*
X151948095Y-41629285D02*
X151995714Y-41438809D01*
X151995714Y-41438809D02*
X151995714Y-41057857D01*
X151995714Y-41057857D02*
X151948095Y-40962619D01*
X151948095Y-40962619D02*
X151900476Y-40915000D01*
X151900476Y-40915000D02*
X151805238Y-40867380D01*
X151805238Y-40867380D02*
X151614762Y-40867380D01*
X151614762Y-40867380D02*
X151519524Y-40915000D01*
X151519524Y-40915000D02*
X151471905Y-40962619D01*
X151471905Y-40962619D02*
X151424286Y-41057857D01*
X151424286Y-41057857D02*
X151424286Y-41295952D01*
X151424286Y-41295952D02*
X151471905Y-41391190D01*
X151471905Y-41391190D02*
X151519524Y-41438809D01*
X151519524Y-41438809D02*
X151614762Y-41486428D01*
X151614762Y-41486428D02*
X151805238Y-41486428D01*
X151805238Y-41486428D02*
X151900476Y-41438809D01*
X151900476Y-41438809D02*
X151948095Y-41391190D01*
X151948095Y-41391190D02*
X151995714Y-41295952D01*
%TO.C,C8*%
X144192142Y-44696666D02*
X144239761Y-44744285D01*
X144239761Y-44744285D02*
X144287380Y-44887142D01*
X144287380Y-44887142D02*
X144287380Y-44982380D01*
X144287380Y-44982380D02*
X144239761Y-45125237D01*
X144239761Y-45125237D02*
X144144523Y-45220475D01*
X144144523Y-45220475D02*
X144049285Y-45268094D01*
X144049285Y-45268094D02*
X143858809Y-45315713D01*
X143858809Y-45315713D02*
X143715952Y-45315713D01*
X143715952Y-45315713D02*
X143525476Y-45268094D01*
X143525476Y-45268094D02*
X143430238Y-45220475D01*
X143430238Y-45220475D02*
X143335000Y-45125237D01*
X143335000Y-45125237D02*
X143287380Y-44982380D01*
X143287380Y-44982380D02*
X143287380Y-44887142D01*
X143287380Y-44887142D02*
X143335000Y-44744285D01*
X143335000Y-44744285D02*
X143382619Y-44696666D01*
X143715952Y-44125237D02*
X143668333Y-44220475D01*
X143668333Y-44220475D02*
X143620714Y-44268094D01*
X143620714Y-44268094D02*
X143525476Y-44315713D01*
X143525476Y-44315713D02*
X143477857Y-44315713D01*
X143477857Y-44315713D02*
X143382619Y-44268094D01*
X143382619Y-44268094D02*
X143335000Y-44220475D01*
X143335000Y-44220475D02*
X143287380Y-44125237D01*
X143287380Y-44125237D02*
X143287380Y-43934761D01*
X143287380Y-43934761D02*
X143335000Y-43839523D01*
X143335000Y-43839523D02*
X143382619Y-43791904D01*
X143382619Y-43791904D02*
X143477857Y-43744285D01*
X143477857Y-43744285D02*
X143525476Y-43744285D01*
X143525476Y-43744285D02*
X143620714Y-43791904D01*
X143620714Y-43791904D02*
X143668333Y-43839523D01*
X143668333Y-43839523D02*
X143715952Y-43934761D01*
X143715952Y-43934761D02*
X143715952Y-44125237D01*
X143715952Y-44125237D02*
X143763571Y-44220475D01*
X143763571Y-44220475D02*
X143811190Y-44268094D01*
X143811190Y-44268094D02*
X143906428Y-44315713D01*
X143906428Y-44315713D02*
X144096904Y-44315713D01*
X144096904Y-44315713D02*
X144192142Y-44268094D01*
X144192142Y-44268094D02*
X144239761Y-44220475D01*
X144239761Y-44220475D02*
X144287380Y-44125237D01*
X144287380Y-44125237D02*
X144287380Y-43934761D01*
X144287380Y-43934761D02*
X144239761Y-43839523D01*
X144239761Y-43839523D02*
X144192142Y-43791904D01*
X144192142Y-43791904D02*
X144096904Y-43744285D01*
X144096904Y-43744285D02*
X143906428Y-43744285D01*
X143906428Y-43744285D02*
X143811190Y-43791904D01*
X143811190Y-43791904D02*
X143763571Y-43839523D01*
X143763571Y-43839523D02*
X143715952Y-43934761D01*
%TO.C,C7*%
X151043333Y-45502142D02*
X150995714Y-45549761D01*
X150995714Y-45549761D02*
X150852857Y-45597380D01*
X150852857Y-45597380D02*
X150757619Y-45597380D01*
X150757619Y-45597380D02*
X150614762Y-45549761D01*
X150614762Y-45549761D02*
X150519524Y-45454523D01*
X150519524Y-45454523D02*
X150471905Y-45359285D01*
X150471905Y-45359285D02*
X150424286Y-45168809D01*
X150424286Y-45168809D02*
X150424286Y-45025952D01*
X150424286Y-45025952D02*
X150471905Y-44835476D01*
X150471905Y-44835476D02*
X150519524Y-44740238D01*
X150519524Y-44740238D02*
X150614762Y-44645000D01*
X150614762Y-44645000D02*
X150757619Y-44597380D01*
X150757619Y-44597380D02*
X150852857Y-44597380D01*
X150852857Y-44597380D02*
X150995714Y-44645000D01*
X150995714Y-44645000D02*
X151043333Y-44692619D01*
X151376667Y-44597380D02*
X152043333Y-44597380D01*
X152043333Y-44597380D02*
X151614762Y-45597380D01*
%TO.C,C2*%
X154352142Y-59651666D02*
X154399761Y-59699285D01*
X154399761Y-59699285D02*
X154447380Y-59842142D01*
X154447380Y-59842142D02*
X154447380Y-59937380D01*
X154447380Y-59937380D02*
X154399761Y-60080237D01*
X154399761Y-60080237D02*
X154304523Y-60175475D01*
X154304523Y-60175475D02*
X154209285Y-60223094D01*
X154209285Y-60223094D02*
X154018809Y-60270713D01*
X154018809Y-60270713D02*
X153875952Y-60270713D01*
X153875952Y-60270713D02*
X153685476Y-60223094D01*
X153685476Y-60223094D02*
X153590238Y-60175475D01*
X153590238Y-60175475D02*
X153495000Y-60080237D01*
X153495000Y-60080237D02*
X153447380Y-59937380D01*
X153447380Y-59937380D02*
X153447380Y-59842142D01*
X153447380Y-59842142D02*
X153495000Y-59699285D01*
X153495000Y-59699285D02*
X153542619Y-59651666D01*
X153542619Y-59270713D02*
X153495000Y-59223094D01*
X153495000Y-59223094D02*
X153447380Y-59127856D01*
X153447380Y-59127856D02*
X153447380Y-58889761D01*
X153447380Y-58889761D02*
X153495000Y-58794523D01*
X153495000Y-58794523D02*
X153542619Y-58746904D01*
X153542619Y-58746904D02*
X153637857Y-58699285D01*
X153637857Y-58699285D02*
X153733095Y-58699285D01*
X153733095Y-58699285D02*
X153875952Y-58746904D01*
X153875952Y-58746904D02*
X154447380Y-59318332D01*
X154447380Y-59318332D02*
X154447380Y-58699285D01*
%TO.C,C1*%
X151043333Y-49392142D02*
X150995714Y-49439761D01*
X150995714Y-49439761D02*
X150852857Y-49487380D01*
X150852857Y-49487380D02*
X150757619Y-49487380D01*
X150757619Y-49487380D02*
X150614762Y-49439761D01*
X150614762Y-49439761D02*
X150519524Y-49344523D01*
X150519524Y-49344523D02*
X150471905Y-49249285D01*
X150471905Y-49249285D02*
X150424286Y-49058809D01*
X150424286Y-49058809D02*
X150424286Y-48915952D01*
X150424286Y-48915952D02*
X150471905Y-48725476D01*
X150471905Y-48725476D02*
X150519524Y-48630238D01*
X150519524Y-48630238D02*
X150614762Y-48535000D01*
X150614762Y-48535000D02*
X150757619Y-48487380D01*
X150757619Y-48487380D02*
X150852857Y-48487380D01*
X150852857Y-48487380D02*
X150995714Y-48535000D01*
X150995714Y-48535000D02*
X151043333Y-48582619D01*
X151995714Y-49487380D02*
X151424286Y-49487380D01*
X151710000Y-49487380D02*
X151710000Y-48487380D01*
X151710000Y-48487380D02*
X151614762Y-48630238D01*
X151614762Y-48630238D02*
X151519524Y-48725476D01*
X151519524Y-48725476D02*
X151424286Y-48773095D01*
%TO.C,U3*%
X145155595Y-36017380D02*
X145155595Y-36826904D01*
X145155595Y-36826904D02*
X145203214Y-36922142D01*
X145203214Y-36922142D02*
X145250833Y-36969761D01*
X145250833Y-36969761D02*
X145346071Y-37017380D01*
X145346071Y-37017380D02*
X145536547Y-37017380D01*
X145536547Y-37017380D02*
X145631785Y-36969761D01*
X145631785Y-36969761D02*
X145679404Y-36922142D01*
X145679404Y-36922142D02*
X145727023Y-36826904D01*
X145727023Y-36826904D02*
X145727023Y-36017380D01*
X146107976Y-36017380D02*
X146727023Y-36017380D01*
X146727023Y-36017380D02*
X146393690Y-36398333D01*
X146393690Y-36398333D02*
X146536547Y-36398333D01*
X146536547Y-36398333D02*
X146631785Y-36445952D01*
X146631785Y-36445952D02*
X146679404Y-36493571D01*
X146679404Y-36493571D02*
X146727023Y-36588809D01*
X146727023Y-36588809D02*
X146727023Y-36826904D01*
X146727023Y-36826904D02*
X146679404Y-36922142D01*
X146679404Y-36922142D02*
X146631785Y-36969761D01*
X146631785Y-36969761D02*
X146536547Y-37017380D01*
X146536547Y-37017380D02*
X146250833Y-37017380D01*
X146250833Y-37017380D02*
X146155595Y-36969761D01*
X146155595Y-36969761D02*
X146107976Y-36922142D01*
%TO.C,U2*%
X128778095Y-55247380D02*
X128778095Y-56056904D01*
X128778095Y-56056904D02*
X128825714Y-56152142D01*
X128825714Y-56152142D02*
X128873333Y-56199761D01*
X128873333Y-56199761D02*
X128968571Y-56247380D01*
X128968571Y-56247380D02*
X129159047Y-56247380D01*
X129159047Y-56247380D02*
X129254285Y-56199761D01*
X129254285Y-56199761D02*
X129301904Y-56152142D01*
X129301904Y-56152142D02*
X129349523Y-56056904D01*
X129349523Y-56056904D02*
X129349523Y-55247380D01*
X129778095Y-55342619D02*
X129825714Y-55295000D01*
X129825714Y-55295000D02*
X129920952Y-55247380D01*
X129920952Y-55247380D02*
X130159047Y-55247380D01*
X130159047Y-55247380D02*
X130254285Y-55295000D01*
X130254285Y-55295000D02*
X130301904Y-55342619D01*
X130301904Y-55342619D02*
X130349523Y-55437857D01*
X130349523Y-55437857D02*
X130349523Y-55533095D01*
X130349523Y-55533095D02*
X130301904Y-55675952D01*
X130301904Y-55675952D02*
X129730476Y-56247380D01*
X129730476Y-56247380D02*
X130349523Y-56247380D01*
%TO.C,U1*%
X151172380Y-57906904D02*
X151981904Y-57906904D01*
X151981904Y-57906904D02*
X152077142Y-57859285D01*
X152077142Y-57859285D02*
X152124761Y-57811666D01*
X152124761Y-57811666D02*
X152172380Y-57716428D01*
X152172380Y-57716428D02*
X152172380Y-57525952D01*
X152172380Y-57525952D02*
X152124761Y-57430714D01*
X152124761Y-57430714D02*
X152077142Y-57383095D01*
X152077142Y-57383095D02*
X151981904Y-57335476D01*
X151981904Y-57335476D02*
X151172380Y-57335476D01*
X152172380Y-56335476D02*
X152172380Y-56906904D01*
X152172380Y-56621190D02*
X151172380Y-56621190D01*
X151172380Y-56621190D02*
X151315238Y-56716428D01*
X151315238Y-56716428D02*
X151410476Y-56811666D01*
X151410476Y-56811666D02*
X151458095Y-56906904D01*
D12*
%TO.C,SW3*%
X129359761Y-37353332D02*
X129407380Y-37210475D01*
X129407380Y-37210475D02*
X129407380Y-36972380D01*
X129407380Y-36972380D02*
X129359761Y-36877142D01*
X129359761Y-36877142D02*
X129312142Y-36829523D01*
X129312142Y-36829523D02*
X129216904Y-36781904D01*
X129216904Y-36781904D02*
X129121666Y-36781904D01*
X129121666Y-36781904D02*
X129026428Y-36829523D01*
X129026428Y-36829523D02*
X128978809Y-36877142D01*
X128978809Y-36877142D02*
X128931190Y-36972380D01*
X128931190Y-36972380D02*
X128883571Y-37162856D01*
X128883571Y-37162856D02*
X128835952Y-37258094D01*
X128835952Y-37258094D02*
X128788333Y-37305713D01*
X128788333Y-37305713D02*
X128693095Y-37353332D01*
X128693095Y-37353332D02*
X128597857Y-37353332D01*
X128597857Y-37353332D02*
X128502619Y-37305713D01*
X128502619Y-37305713D02*
X128455000Y-37258094D01*
X128455000Y-37258094D02*
X128407380Y-37162856D01*
X128407380Y-37162856D02*
X128407380Y-36924761D01*
X128407380Y-36924761D02*
X128455000Y-36781904D01*
X128407380Y-36448570D02*
X129407380Y-36210475D01*
X129407380Y-36210475D02*
X128693095Y-36019999D01*
X128693095Y-36019999D02*
X129407380Y-35829523D01*
X129407380Y-35829523D02*
X128407380Y-35591428D01*
X128407380Y-35305713D02*
X128407380Y-34686666D01*
X128407380Y-34686666D02*
X128788333Y-35019999D01*
X128788333Y-35019999D02*
X128788333Y-34877142D01*
X128788333Y-34877142D02*
X128835952Y-34781904D01*
X128835952Y-34781904D02*
X128883571Y-34734285D01*
X128883571Y-34734285D02*
X128978809Y-34686666D01*
X128978809Y-34686666D02*
X129216904Y-34686666D01*
X129216904Y-34686666D02*
X129312142Y-34734285D01*
X129312142Y-34734285D02*
X129359761Y-34781904D01*
X129359761Y-34781904D02*
X129407380Y-34877142D01*
X129407380Y-34877142D02*
X129407380Y-35162856D01*
X129407380Y-35162856D02*
X129359761Y-35258094D01*
X129359761Y-35258094D02*
X129312142Y-35305713D01*
%TO.C,SW1*%
X139380238Y-49466667D02*
X139332619Y-49609524D01*
X139332619Y-49609524D02*
X139332619Y-49847619D01*
X139332619Y-49847619D02*
X139380238Y-49942857D01*
X139380238Y-49942857D02*
X139427857Y-49990476D01*
X139427857Y-49990476D02*
X139523095Y-50038095D01*
X139523095Y-50038095D02*
X139618333Y-50038095D01*
X139618333Y-50038095D02*
X139713571Y-49990476D01*
X139713571Y-49990476D02*
X139761190Y-49942857D01*
X139761190Y-49942857D02*
X139808809Y-49847619D01*
X139808809Y-49847619D02*
X139856428Y-49657143D01*
X139856428Y-49657143D02*
X139904047Y-49561905D01*
X139904047Y-49561905D02*
X139951666Y-49514286D01*
X139951666Y-49514286D02*
X140046904Y-49466667D01*
X140046904Y-49466667D02*
X140142142Y-49466667D01*
X140142142Y-49466667D02*
X140237380Y-49514286D01*
X140237380Y-49514286D02*
X140285000Y-49561905D01*
X140285000Y-49561905D02*
X140332619Y-49657143D01*
X140332619Y-49657143D02*
X140332619Y-49895238D01*
X140332619Y-49895238D02*
X140285000Y-50038095D01*
X140332619Y-50371429D02*
X139332619Y-50609524D01*
X139332619Y-50609524D02*
X140046904Y-50800000D01*
X140046904Y-50800000D02*
X139332619Y-50990476D01*
X139332619Y-50990476D02*
X140332619Y-51228572D01*
X139332619Y-52133333D02*
X139332619Y-51561905D01*
X139332619Y-51847619D02*
X140332619Y-51847619D01*
X140332619Y-51847619D02*
X140189761Y-51752381D01*
X140189761Y-51752381D02*
X140094523Y-51657143D01*
X140094523Y-51657143D02*
X140046904Y-51561905D01*
D11*
%TO.C,J2*%
X113816666Y-34647380D02*
X113816666Y-35361666D01*
X113816666Y-35361666D02*
X113769047Y-35504523D01*
X113769047Y-35504523D02*
X113673809Y-35599761D01*
X113673809Y-35599761D02*
X113530952Y-35647380D01*
X113530952Y-35647380D02*
X113435714Y-35647380D01*
X114245238Y-34742619D02*
X114292857Y-34695000D01*
X114292857Y-34695000D02*
X114388095Y-34647380D01*
X114388095Y-34647380D02*
X114626190Y-34647380D01*
X114626190Y-34647380D02*
X114721428Y-34695000D01*
X114721428Y-34695000D02*
X114769047Y-34742619D01*
X114769047Y-34742619D02*
X114816666Y-34837857D01*
X114816666Y-34837857D02*
X114816666Y-34933095D01*
X114816666Y-34933095D02*
X114769047Y-35075952D01*
X114769047Y-35075952D02*
X114197619Y-35647380D01*
X114197619Y-35647380D02*
X114816666Y-35647380D01*
%TO.C,J1*%
X112966666Y-57427380D02*
X112966666Y-58141666D01*
X112966666Y-58141666D02*
X112919047Y-58284523D01*
X112919047Y-58284523D02*
X112823809Y-58379761D01*
X112823809Y-58379761D02*
X112680952Y-58427380D01*
X112680952Y-58427380D02*
X112585714Y-58427380D01*
X113966666Y-58427380D02*
X113395238Y-58427380D01*
X113680952Y-58427380D02*
X113680952Y-57427380D01*
X113680952Y-57427380D02*
X113585714Y-57570238D01*
X113585714Y-57570238D02*
X113490476Y-57665476D01*
X113490476Y-57665476D02*
X113395238Y-57713095D01*
D13*
%TO.C,D1*%
X148000000Y-39060000D02*
X150860000Y-39060000D01*
X150860000Y-37140000D02*
X148000000Y-37140000D01*
X148000000Y-37140000D02*
X148000000Y-39060000D01*
%TO.C,R4*%
X118645000Y-61187064D02*
X118645000Y-60732936D01*
X120115000Y-61187064D02*
X120115000Y-60732936D01*
%TO.C,R3*%
X118645000Y-56107064D02*
X118645000Y-55652936D01*
X120115000Y-56107064D02*
X120115000Y-55652936D01*
%TO.C,R2*%
X146907064Y-43915000D02*
X146452936Y-43915000D01*
X146907064Y-42445000D02*
X146452936Y-42445000D01*
%TO.C,R1*%
X144552936Y-34825000D02*
X145007064Y-34825000D01*
X144552936Y-36295000D02*
X145007064Y-36295000D01*
%TO.C,C9*%
X150948748Y-42445000D02*
X151471252Y-42445000D01*
X150948748Y-43915000D02*
X151471252Y-43915000D01*
%TO.C,C8*%
X142975000Y-44268748D02*
X142975000Y-44791252D01*
X141505000Y-44268748D02*
X141505000Y-44791252D01*
%TO.C,C7*%
X150948748Y-46175000D02*
X151471252Y-46175000D01*
X150948748Y-47645000D02*
X151471252Y-47645000D01*
%TO.C,C2*%
X153135000Y-59223748D02*
X153135000Y-59746252D01*
X151665000Y-59223748D02*
X151665000Y-59746252D01*
%TO.C,C1*%
X150948748Y-50065000D02*
X151471252Y-50065000D01*
X150948748Y-51535000D02*
X151471252Y-51535000D01*
%TO.C,U3*%
X145917500Y-40610000D02*
X146717500Y-40610000D01*
X145917500Y-37490000D02*
X146717500Y-37490000D01*
X145917500Y-37490000D02*
X144117500Y-37490000D01*
X145917500Y-40610000D02*
X145117500Y-40610000D01*
%TO.C,U2*%
X124730000Y-34230000D02*
G75*
G03*
X126730000Y-34230000I1000000J0D01*
G01*
X124730000Y-34230000D02*
X123080000Y-34230000D01*
X123080000Y-54670000D02*
X128380000Y-54670000D01*
X128380000Y-54670000D02*
X128380000Y-34230000D01*
X123080000Y-34230000D02*
X123080000Y-54670000D01*
X128380000Y-34230000D02*
X126730000Y-34230000D01*
D10*
%TO.C,U1*%
X149720000Y-53320000D02*
G75*
G03*
X149720000Y-53320000I-100000J0D01*
G01*
X144070000Y-60170000D02*
X144070000Y-56670000D01*
X150570000Y-56670000D02*
X150570000Y-60170000D01*
X145220000Y-60170000D02*
X144070000Y-60170000D01*
X150570000Y-60170000D02*
X149420000Y-60170000D01*
D12*
%TO.C,SW3*%
X136144000Y-35512000D02*
X137160000Y-35512000D01*
X138049000Y-36020000D02*
X138049000Y-41735000D01*
X135382000Y-37544000D02*
X135382000Y-37163000D01*
X139712500Y-39450000D02*
X138049000Y-39450000D01*
X135382000Y-40592000D02*
X135382000Y-38687000D01*
X139712500Y-40750000D02*
X139712500Y-39450000D01*
X139712500Y-40750000D02*
X138112500Y-40750000D01*
X137160000Y-42243000D02*
X136144000Y-42243000D01*
%TO.C,SW1*%
X136213000Y-52433000D02*
X135197000Y-52433000D01*
X134308000Y-51925000D02*
X134308000Y-46210000D01*
X136975000Y-50401000D02*
X136975000Y-50782000D01*
X132644500Y-48495000D02*
X134308000Y-48495000D01*
X136975000Y-47353000D02*
X136975000Y-49258000D01*
X132644500Y-47195000D02*
X132644500Y-48495000D01*
X132644500Y-47195000D02*
X134244500Y-47195000D01*
X135197000Y-45702000D02*
X136213000Y-45702000D01*
D13*
%TO.C,J2*%
X114150000Y-38880000D02*
X114150000Y-36280000D01*
X111550000Y-38880000D02*
X111550000Y-56720000D01*
X116750000Y-36280000D02*
X116750000Y-56720000D01*
X111550000Y-38880000D02*
X114150000Y-38880000D01*
X111550000Y-56720000D02*
X116750000Y-56720000D01*
X114150000Y-36280000D02*
X116750000Y-36280000D01*
X111550000Y-37610000D02*
X111550000Y-36280000D01*
X111550000Y-36280000D02*
X112880000Y-36280000D01*
%TO.C,J1*%
X111700000Y-58950000D02*
X111700000Y-59150000D01*
X110850000Y-63260000D02*
X115750000Y-63260000D01*
X115750000Y-63260000D02*
X115750000Y-59760000D01*
X110240000Y-61760000D02*
X110850000Y-61760000D01*
X113400000Y-62760000D02*
X113400000Y-63260000D01*
X112800000Y-59150000D02*
X112800000Y-59760000D01*
X110850000Y-59760000D02*
X110850000Y-63260000D01*
X112000000Y-59150000D02*
X112000000Y-58950000D01*
X110240000Y-59150000D02*
X110240000Y-63870000D01*
X116360000Y-59150000D02*
X110240000Y-59150000D01*
X112800000Y-59760000D02*
X110850000Y-59760000D01*
X116360000Y-61760000D02*
X115750000Y-61760000D01*
X115750000Y-59760000D02*
X113800000Y-59760000D01*
X110240000Y-60460000D02*
X110850000Y-60460000D01*
X113300000Y-63260000D02*
X113300000Y-62760000D01*
X113200000Y-62760000D02*
X113400000Y-62760000D01*
X116360000Y-63870000D02*
X116360000Y-59150000D01*
X112000000Y-59050000D02*
X111700000Y-59050000D01*
X113800000Y-59760000D02*
X113800000Y-59150000D01*
X109940000Y-58850000D02*
X109940000Y-60100000D01*
X111190000Y-58850000D02*
X109940000Y-58850000D01*
X110240000Y-63870000D02*
X116360000Y-63870000D01*
X116360000Y-60460000D02*
X115750000Y-60460000D01*
X112000000Y-58950000D02*
X111700000Y-58950000D01*
X113200000Y-63260000D02*
X113200000Y-62760000D01*
%TD*%
%LPC*%
D14*
%TO.C,D1*%
X148835000Y-38100000D03*
X150885000Y-38100000D03*
%TD*%
D15*
%TO.C,R4*%
X119380000Y-61960000D03*
X119380000Y-59960000D03*
%TD*%
%TO.C,R3*%
X119380000Y-56880000D03*
X119380000Y-54880000D03*
%TD*%
D16*
%TO.C,R2*%
X147680000Y-43180000D03*
X145680000Y-43180000D03*
%TD*%
D17*
%TO.C,R1*%
X143780000Y-35560000D03*
X145780000Y-35560000D03*
%TD*%
D18*
%TO.C,C9*%
X150172500Y-43180000D03*
X152247500Y-43180000D03*
%TD*%
D19*
%TO.C,C8*%
X142240000Y-43492500D03*
X142240000Y-45567500D03*
%TD*%
D18*
%TO.C,C7*%
X150172500Y-46910000D03*
X152247500Y-46910000D03*
%TD*%
D19*
%TO.C,C2*%
X152400000Y-58447500D03*
X152400000Y-60522500D03*
%TD*%
D18*
%TO.C,C1*%
X150172500Y-50800000D03*
X152247500Y-50800000D03*
%TD*%
D20*
%TO.C,U3*%
X147055000Y-38100000D03*
X147055000Y-40000000D03*
X144780000Y-40000000D03*
X144780000Y-39050000D03*
X144780000Y-38100000D03*
%TD*%
D21*
%TO.C,U2*%
X129539999Y-35559999D03*
X129539999Y-38099999D03*
X129539999Y-40639999D03*
X129539999Y-43179999D03*
X129539999Y-45719999D03*
X129539999Y-48259999D03*
X129539999Y-50799999D03*
X129539999Y-53339999D03*
X121919999Y-53339999D03*
X121919999Y-50799999D03*
X121919999Y-48259999D03*
X121919999Y-45719999D03*
X121919999Y-43179999D03*
X121919999Y-40639999D03*
X121919999Y-38099999D03*
D22*
X121919999Y-35559999D03*
%TD*%
D23*
%TO.C,U1*%
X147320000Y-61520000D03*
D24*
X145020000Y-55320000D03*
X147320000Y-55320000D03*
X149620000Y-55320000D03*
%TD*%
D25*
%TO.C,SW3*%
X137711999Y-35474999D03*
X135586999Y-35474999D03*
X137736999Y-42224999D03*
X135586999Y-42224999D03*
D26*
X134619999Y-36599999D03*
X134619999Y-38099999D03*
X134619999Y-41099999D03*
%TD*%
D25*
%TO.C,SW1*%
X134644999Y-52469999D03*
X136769999Y-52469999D03*
X134619999Y-45719999D03*
X136769999Y-45719999D03*
D26*
X137736999Y-51344999D03*
X137736999Y-49844999D03*
X137736999Y-46844999D03*
%TD*%
D27*
%TO.C,J2*%
X112879999Y-37609999D03*
D28*
X115419999Y-37609999D03*
X112879999Y-40149999D03*
X115419999Y-40149999D03*
X112879999Y-42689999D03*
X115419999Y-42689999D03*
X112879999Y-45229999D03*
X115419999Y-45229999D03*
X112879999Y-47769999D03*
X115419999Y-47769999D03*
X112879999Y-50309999D03*
X115419999Y-50309999D03*
X112879999Y-52849999D03*
X115419999Y-52849999D03*
X112879999Y-55389999D03*
X115419999Y-55389999D03*
%TD*%
D29*
%TO.C,J1*%
X112300000Y-60960000D03*
D30*
X114299999Y-60959999D03*
%TD*%
M02*
