M48
; DRILL file {KiCad (7.0.0)} date Wed Apr  3 23:31:10 2024
; FORMAT={-:-/ absolute / inch / decimal}
; #@! TF.CreationDate,2024-04-03T23:31:10+02:00
; #@! TF.GenerationSoftware,Kicad,Pcbnew,(7.0.0)
; #@! TF.FileFunction,Plated,1,2,PTH
FMAT,2
INCH
; #@! TA.AperFunction,Plated,PTH,ViaDrill
T1C0.0039
; #@! TA.AperFunction,Plated,PTH,ViaDrill
T2C0.0157
; #@! TA.AperFunction,Plated,PTH,ComponentDrill
T3C0.0295
; #@! TA.AperFunction,Plated,PTH,ComponentDrill
T4C0.0315
; #@! TA.AperFunction,Plated,PTH,ComponentDrill
T5C0.0394
%
G90
G05
T1
X4.6Y-2.4187
X4.6211Y-1.6502
X5.5594Y-1.6074
X5.63Y-1.63
T2
X4.6328Y-2.2328
X4.9Y-2.1
X5.2202Y-1.6202
X5.4966Y-1.6966
X5.8Y-1.8
X5.8258Y-1.5441
T3
X4.4213Y-2.4
X4.5Y-2.4
T4
X4.8Y-1.4
X4.8Y-1.5
X4.8Y-1.6
X4.8Y-1.7
X4.8Y-1.8
X4.8Y-1.9
X4.8Y-2.0
X4.8Y-2.1
X5.1Y-1.4
X5.1Y-1.5
X5.1Y-1.6
X5.1Y-1.7
X5.1Y-1.8
X5.1Y-1.9
X5.1Y-2.0
X5.1Y-2.1
T5
X4.4441Y-1.4807
X4.4441Y-1.5807
X4.4441Y-1.6807
X4.4441Y-1.7807
X4.4441Y-1.8807
X4.4441Y-1.9807
X4.4441Y-2.0807
X4.4441Y-2.1807
X4.5441Y-1.4807
X4.5441Y-1.5807
X4.5441Y-1.6807
X4.5441Y-1.7807
X4.5441Y-1.8807
X4.5441Y-1.9807
X4.5441Y-2.0807
X4.5441Y-2.1807
T0
M30
