%TF.GenerationSoftware,KiCad,Pcbnew,(7.0.0)*%
%TF.CreationDate,2024-04-03T23:31:09+02:00*%
%TF.ProjectId,p0wer EE3088,70307765-7220-4454-9533-3038382e6b69,rev?*%
%TF.SameCoordinates,Original*%
%TF.FileFunction,Copper,L1,Top*%
%TF.FilePolarity,Positive*%
%FSLAX46Y46*%
G04 Gerber Fmt 4.6, Leading zero omitted, Abs format (unit mm)*
G04 Created by KiCad (PCBNEW (7.0.0)) date 2024-04-03 23:31:09*
%MOMM*%
%LPD*%
G01*
G04 APERTURE LIST*
G04 Aperture macros list*
%AMRoundRect*
0 Rectangle with rounded corners*
0 $1 Rounding radius*
0 $2 $3 $4 $5 $6 $7 $8 $9 X,Y pos of 4 corners*
0 Add a 4 corners polygon primitive as box body*
4,1,4,$2,$3,$4,$5,$6,$7,$8,$9,$2,$3,0*
0 Add four circle primitives for the rounded corners*
1,1,$1+$1,$2,$3*
1,1,$1+$1,$4,$5*
1,1,$1+$1,$6,$7*
1,1,$1+$1,$8,$9*
0 Add four rect primitives between the rounded corners*
20,1,$1+$1,$2,$3,$4,$5,0*
20,1,$1+$1,$4,$5,$6,$7,0*
20,1,$1+$1,$6,$7,$8,$9,0*
20,1,$1+$1,$8,$9,$2,$3,0*%
G04 Aperture macros list end*
%TA.AperFunction,SMDPad,CuDef*%
%ADD10RoundRect,0.250000X-0.325000X-0.450000X0.325000X-0.450000X0.325000X0.450000X-0.325000X0.450000X0*%
%TD*%
%TA.AperFunction,SMDPad,CuDef*%
%ADD11RoundRect,0.250000X0.450000X-0.350000X0.450000X0.350000X-0.450000X0.350000X-0.450000X-0.350000X0*%
%TD*%
%TA.AperFunction,SMDPad,CuDef*%
%ADD12RoundRect,0.250000X0.350000X0.450000X-0.350000X0.450000X-0.350000X-0.450000X0.350000X-0.450000X0*%
%TD*%
%TA.AperFunction,SMDPad,CuDef*%
%ADD13RoundRect,0.250000X-0.350000X-0.450000X0.350000X-0.450000X0.350000X0.450000X-0.350000X0.450000X0*%
%TD*%
%TA.AperFunction,SMDPad,CuDef*%
%ADD14RoundRect,0.250000X-0.337500X-0.475000X0.337500X-0.475000X0.337500X0.475000X-0.337500X0.475000X0*%
%TD*%
%TA.AperFunction,SMDPad,CuDef*%
%ADD15RoundRect,0.250000X-0.475000X0.337500X-0.475000X-0.337500X0.475000X-0.337500X0.475000X0.337500X0*%
%TD*%
%TA.AperFunction,SMDPad,CuDef*%
%ADD16RoundRect,0.150000X-0.512500X-0.150000X0.512500X-0.150000X0.512500X0.150000X-0.512500X0.150000X0*%
%TD*%
%TA.AperFunction,ComponentPad*%
%ADD17O,1.600000X1.600000*%
%TD*%
%TA.AperFunction,ComponentPad*%
%ADD18R,1.600000X1.600000*%
%TD*%
%TA.AperFunction,SMDPad,CuDef*%
%ADD19R,3.500000X2.200000*%
%TD*%
%TA.AperFunction,SMDPad,CuDef*%
%ADD20R,1.200000X2.200000*%
%TD*%
%TA.AperFunction,SMDPad,CuDef*%
%ADD21R,0.850000X0.750000*%
%TD*%
%TA.AperFunction,SMDPad,CuDef*%
%ADD22R,1.400000X0.900000*%
%TD*%
%TA.AperFunction,ComponentPad*%
%ADD23R,1.700000X1.700000*%
%TD*%
%TA.AperFunction,ComponentPad*%
%ADD24O,1.700000X1.700000*%
%TD*%
%TA.AperFunction,ComponentPad*%
%ADD25RoundRect,0.250000X-0.350000X-0.625000X0.350000X-0.625000X0.350000X0.625000X-0.350000X0.625000X0*%
%TD*%
%TA.AperFunction,ComponentPad*%
%ADD26O,1.200000X1.750000*%
%TD*%
%TA.AperFunction,ViaPad*%
%ADD27C,0.800000*%
%TD*%
%TA.AperFunction,ViaPad*%
%ADD28C,0.300000*%
%TD*%
%TA.AperFunction,Conductor*%
%ADD29C,0.250000*%
%TD*%
G04 APERTURE END LIST*
D10*
%TO.P,D1,1,K*%
%TO.N,Net-(D1-K)*%
X148835000Y-38100000D03*
%TO.P,D1,2,A*%
%TO.N,Net-(D1-A)*%
X150885000Y-38100000D03*
%TD*%
D11*
%TO.P,R4,1*%
%TO.N,BATT Level*%
X119380000Y-61960000D03*
%TO.P,R4,2*%
%TO.N,GND*%
X119380000Y-59960000D03*
%TD*%
%TO.P,R3,1*%
%TO.N,BATT Level*%
X119380000Y-56880000D03*
%TO.P,R3,2*%
%TO.N,BATT Vin*%
X119380000Y-54880000D03*
%TD*%
D12*
%TO.P,R2,1*%
%TO.N,Net-(U3-PROG)*%
X147680000Y-43180000D03*
%TO.P,R2,2*%
%TO.N,GND*%
X145680000Y-43180000D03*
%TD*%
D13*
%TO.P,R1,1*%
%TO.N,STAT*%
X143780000Y-35560000D03*
%TO.P,R1,2*%
%TO.N,Net-(D1-K)*%
X145780000Y-35560000D03*
%TD*%
D14*
%TO.P,C9,1*%
%TO.N,BATT Vin*%
X150172500Y-43180000D03*
%TO.P,C9,2*%
%TO.N,GND*%
X152247500Y-43180000D03*
%TD*%
D15*
%TO.P,C8,1*%
%TO.N,Net-(D1-A)*%
X142240000Y-43492500D03*
%TO.P,C8,2*%
%TO.N,GND*%
X142240000Y-45567500D03*
%TD*%
D14*
%TO.P,C7,1*%
%TO.N,BATT Vin*%
X150172500Y-46910000D03*
%TO.P,C7,2*%
%TO.N,GND*%
X152247500Y-46910000D03*
%TD*%
D15*
%TO.P,C2,1*%
%TO.N,GND*%
X152400000Y-58447500D03*
%TO.P,C2,2*%
%TO.N,3V3*%
X152400000Y-60522500D03*
%TD*%
D14*
%TO.P,C1,1*%
%TO.N,BATT Vin*%
X150172500Y-50800000D03*
%TO.P,C1,2*%
%TO.N,GND*%
X152247500Y-50800000D03*
%TD*%
D16*
%TO.P,U3,5,PROG*%
%TO.N,Net-(U3-PROG)*%
X147055000Y-38100000D03*
%TO.P,U3,4,V_{DD}*%
%TO.N,Net-(D1-A)*%
X147055000Y-40000000D03*
%TO.P,U3,3,V_{BAT}*%
%TO.N,BATT Vin*%
X144780000Y-40000000D03*
%TO.P,U3,2,V_{SS}*%
%TO.N,GND*%
X144780000Y-39050000D03*
%TO.P,U3,1,STAT*%
%TO.N,STAT*%
X144780000Y-38100000D03*
%TD*%
D17*
%TO.P,U2,16,VCC1*%
%TO.N,BATT Vin*%
X129539999Y-35559999D03*
%TO.P,U2,15,4A*%
%TO.N,PC6-9_PWM4*%
X129539999Y-38099999D03*
%TO.P,U2,14,4Y*%
%TO.N,Motor2_B*%
X129539999Y-40639999D03*
%TO.P,U2,13,GND*%
%TO.N,GND*%
X129539999Y-43179999D03*
%TO.P,U2,12,GND*%
X129539999Y-45719999D03*
%TO.P,U2,11,3Y*%
%TO.N,Motor2_A*%
X129539999Y-48259999D03*
%TO.P,U2,10,3A*%
%TO.N,PC6-9_PWM3*%
X129539999Y-50799999D03*
%TO.P,U2,9,EN3\u002C4*%
%TO.N,3V3*%
X129539999Y-53339999D03*
%TO.P,U2,8,VCC2*%
%TO.N,BATT Vin*%
X121919999Y-53339999D03*
%TO.P,U2,7,2A*%
%TO.N,PC6-9_PWM2*%
X121919999Y-50799999D03*
%TO.P,U2,6,2Y*%
%TO.N,Motor1_B*%
X121919999Y-48259999D03*
%TO.P,U2,5,GND*%
%TO.N,GND*%
X121919999Y-45719999D03*
%TO.P,U2,4,GND*%
X121919999Y-43179999D03*
%TO.P,U2,3,1Y*%
%TO.N,Motor1_A*%
X121919999Y-40639999D03*
%TO.P,U2,2,1A*%
%TO.N,PC6-9_PWM1*%
X121919999Y-38099999D03*
D18*
%TO.P,U2,1,EN1\u002C2*%
%TO.N,3V3*%
X121919999Y-35559999D03*
%TD*%
D19*
%TO.P,U1,4,VOUT*%
%TO.N,3V3*%
X147319999Y-61519999D03*
D20*
%TO.P,U1,3,INPUT*%
%TO.N,BATT Vin*%
X145019999Y-55319999D03*
%TO.P,U1,2,OUTPUT*%
%TO.N,3V3*%
X147319999Y-55319999D03*
%TO.P,U1,1,GND*%
%TO.N,GND*%
X149619999Y-55319999D03*
%TD*%
D21*
%TO.P,SW3,7*%
%TO.N,N/C*%
X137711999Y-35474999D03*
%TO.P,SW3,6*%
X135586999Y-35474999D03*
%TO.P,SW3,5*%
X137736999Y-42224999D03*
%TO.P,SW3,4*%
X135586999Y-42224999D03*
D22*
%TO.P,SW3,3,C*%
%TO.N,unconnected-(SW3-C-Pad3)*%
X134619999Y-36599999D03*
%TO.P,SW3,2,B*%
%TO.N,Vin*%
X134619999Y-38099999D03*
%TO.P,SW3,1,A*%
%TO.N,Net-(D1-A)*%
X134619999Y-41099999D03*
%TD*%
D21*
%TO.P,SW1,7*%
%TO.N,N/C*%
X134644999Y-52469999D03*
%TO.P,SW1,6*%
X136769999Y-52469999D03*
%TO.P,SW1,5*%
X134619999Y-45719999D03*
%TO.P,SW1,4*%
X136769999Y-45719999D03*
D22*
%TO.P,SW1,3,C*%
%TO.N,unconnected-(SW1-C-Pad3)*%
X137736999Y-51344999D03*
%TO.P,SW1,2,B*%
%TO.N,GND*%
X137736999Y-49844999D03*
%TO.P,SW1,1,A*%
%TO.N,BATT Vin*%
X137736999Y-46844999D03*
%TD*%
D23*
%TO.P,J2,1,Pin_1*%
%TO.N,Motor2_A*%
X112879999Y-37609999D03*
D24*
%TO.P,J2,2,Pin_2*%
%TO.N,PC6-9_PWM1*%
X115419999Y-37609999D03*
%TO.P,J2,3,Pin_3*%
%TO.N,Motor2_B*%
X112879999Y-40149999D03*
%TO.P,J2,4,Pin_4*%
%TO.N,PC6-9_PWM2*%
X115419999Y-40149999D03*
%TO.P,J2,5,Pin_5*%
%TO.N,GND*%
X112879999Y-42689999D03*
%TO.P,J2,6,Pin_6*%
X115419999Y-42689999D03*
%TO.P,J2,7,Pin_7*%
%TO.N,BATT Vin*%
X112879999Y-45229999D03*
%TO.P,J2,8,Pin_8*%
X115419999Y-45229999D03*
%TO.P,J2,9,Pin_9*%
%TO.N,PD7*%
X112879999Y-47769999D03*
%TO.P,J2,10,Pin_10*%
%TO.N,BATT Level*%
X115419999Y-47769999D03*
%TO.P,J2,11,Pin_11*%
%TO.N,Vin*%
X112879999Y-50309999D03*
%TO.P,J2,12,Pin_12*%
X115419999Y-50309999D03*
%TO.P,J2,13,Pin_13*%
%TO.N,Motor1_A*%
X112879999Y-52849999D03*
%TO.P,J2,14,Pin_14*%
%TO.N,PC6-9_PWM3*%
X115419999Y-52849999D03*
%TO.P,J2,15,Pin_15*%
%TO.N,Motor1_B*%
X112879999Y-55389999D03*
%TO.P,J2,16,Pin_16*%
%TO.N,PC6-9_PWM4*%
X115419999Y-55389999D03*
%TD*%
D25*
%TO.P,J1,1,Pin_1*%
%TO.N,BATT Vin*%
X112300000Y-60960000D03*
D26*
%TO.P,J1,2,Pin_2*%
%TO.N,GND*%
X114299999Y-60959999D03*
%TD*%
D27*
%TO.N,Net-(U3-PROG)*%
X147320000Y-45720000D03*
X147974679Y-39220750D03*
D28*
%TO.N,BATT Level*%
X116840000Y-61434500D03*
D27*
X117672300Y-56712300D03*
D28*
%TO.N,Net-(D1-A)*%
X143001437Y-41401436D03*
%TO.N,GND*%
X117376157Y-41914499D03*
%TO.N,Net-(D1-A)*%
X141207752Y-40828430D03*
D27*
%TO.N,GND*%
X139613614Y-43093614D03*
X124460000Y-53340000D03*
%TO.N,BATT Vin*%
X132592300Y-41152300D03*
%TD*%
D29*
%TO.N,Net-(U3-PROG)*%
X147320000Y-45720000D02*
X147320000Y-43540000D01*
X147320000Y-43540000D02*
X147680000Y-43180000D01*
X147055000Y-38301071D02*
X147974679Y-39220750D01*
X147055000Y-38100000D02*
X147055000Y-38301071D01*
%TO.N,BATT Level*%
X119212300Y-56712300D02*
X119380000Y-56880000D01*
X117672300Y-56712300D02*
X119212300Y-56712300D01*
X118854500Y-61434500D02*
X116840000Y-61434500D01*
X119380000Y-61960000D02*
X118854500Y-61434500D01*
%TO.N,Net-(D1-A)*%
X142240000Y-42162873D02*
X143001437Y-41401436D01*
X142240000Y-43492500D02*
X142240000Y-42162873D01*
X142240000Y-43180000D02*
X142240000Y-43492500D01*
X144795000Y-40625000D02*
X142240000Y-43180000D01*
%TO.N,BATT Vin*%
X120405000Y-55905000D02*
X119380000Y-54880000D01*
X120405000Y-57468173D02*
X120405000Y-55905000D01*
X120068173Y-57805000D02*
X120405000Y-57468173D01*
X115455000Y-57805000D02*
X120068173Y-57805000D01*
X112300000Y-60960000D02*
X115455000Y-57805000D01*
%TO.N,GND*%
X116600656Y-42690000D02*
X117376157Y-41914499D01*
X115420000Y-42690000D02*
X116600656Y-42690000D01*
%TO.N,BATT Vin*%
X140177000Y-44405000D02*
X137737000Y-46845000D01*
X143353173Y-44405000D02*
X140177000Y-44405000D01*
X143755000Y-44003173D02*
X143353173Y-44405000D01*
X148835000Y-42155000D02*
X144355431Y-42155000D01*
X149860000Y-50800000D02*
X149860000Y-43180000D01*
X149540000Y-50800000D02*
X149860000Y-50800000D01*
X149860000Y-43180000D02*
X148835000Y-42155000D01*
X143755000Y-42755431D02*
X143755000Y-44003173D01*
X145020000Y-55320000D02*
X149540000Y-50800000D01*
X144355431Y-42155000D02*
X143755000Y-42755431D01*
X119380000Y-49190000D02*
X115420000Y-45230000D01*
X119380000Y-54880000D02*
X119380000Y-49190000D01*
%TO.N,BATT Level*%
X116595000Y-54095000D02*
X119380000Y-56880000D01*
X116595000Y-48945000D02*
X116595000Y-54095000D01*
X115420000Y-47770000D02*
X116595000Y-48945000D01*
%TO.N,GND*%
X118380000Y-60960000D02*
X114300000Y-60960000D01*
X119380000Y-59960000D02*
X118380000Y-60960000D01*
%TO.N,Net-(U3-PROG)*%
X147680000Y-43180000D02*
X147680000Y-42989500D01*
%TO.N,STAT*%
X144780000Y-36560000D02*
X143780000Y-35560000D01*
X144780000Y-38100000D02*
X144780000Y-36560000D01*
%TO.N,GND*%
X143292500Y-45567500D02*
X142240000Y-45567500D01*
X145680000Y-43180000D02*
X143292500Y-45567500D01*
%TO.N,Net-(D1-K)*%
X148835000Y-38100000D02*
X146295000Y-35560000D01*
X146295000Y-35560000D02*
X145780000Y-35560000D01*
%TO.N,Net-(D1-A)*%
X148985000Y-40000000D02*
X147055000Y-40000000D01*
X150885000Y-38100000D02*
X148985000Y-40000000D01*
%TO.N,PC6-9_PWM4*%
X128125000Y-36685000D02*
X129540000Y-38100000D01*
X119670000Y-35560000D02*
X120795000Y-36685000D01*
X111760000Y-35560000D02*
X119670000Y-35560000D01*
X110805000Y-36515000D02*
X111760000Y-35560000D01*
X120795000Y-36685000D02*
X128125000Y-36685000D01*
X110805000Y-52436701D02*
X110805000Y-36515000D01*
X112393299Y-54025000D02*
X110805000Y-52436701D01*
X114055000Y-54025000D02*
X112393299Y-54025000D01*
X115420000Y-55390000D02*
X114055000Y-54025000D01*
%TO.N,Net-(D1-A)*%
X140936182Y-41100000D02*
X141207752Y-40828430D01*
X134620000Y-41100000D02*
X140936182Y-41100000D01*
%TO.N,Motor1_A*%
X111255000Y-51225000D02*
X112880000Y-52850000D01*
X111255000Y-42653299D02*
X111255000Y-51225000D01*
X112468300Y-41439999D02*
X111255000Y-42653299D01*
X121120001Y-41439999D02*
X112468300Y-41439999D01*
X121920000Y-40640000D02*
X121120001Y-41439999D01*
%TO.N,GND*%
X138275000Y-49845000D02*
X142240000Y-45880000D01*
X137737000Y-49845000D02*
X138275000Y-49845000D01*
X143657228Y-39050000D02*
X139613614Y-43093614D01*
X144780000Y-39050000D02*
X143657228Y-39050000D01*
%TO.N,BATT Vin*%
X137737000Y-45994827D02*
X143731827Y-40000000D01*
X137737000Y-46845000D02*
X137737000Y-45994827D01*
X143731827Y-40000000D02*
X144780000Y-40000000D01*
%TO.N,Net-(D1-A)*%
X146430000Y-40625000D02*
X147055000Y-40000000D01*
X144795000Y-40625000D02*
X146430000Y-40625000D01*
%TO.N,GND*%
X124460000Y-48260000D02*
X121920000Y-45720000D01*
X124460000Y-53340000D02*
X124460000Y-48260000D01*
%TO.N,BATT Vin*%
X136460000Y-45020000D02*
X132592300Y-41152300D01*
X137520000Y-45020000D02*
X136460000Y-45020000D01*
X137737000Y-45237000D02*
X137520000Y-45020000D01*
X137737000Y-46845000D02*
X137737000Y-45237000D01*
%TO.N,Vin*%
X115906701Y-44055000D02*
X112393299Y-44055000D01*
X111705000Y-44743299D02*
X111705000Y-49135000D01*
X117906701Y-42055000D02*
X115906701Y-44055000D01*
X112393299Y-44055000D02*
X111705000Y-44743299D01*
X111705000Y-49135000D02*
X112880000Y-50310000D01*
X130665000Y-42055000D02*
X117906701Y-42055000D01*
X134620000Y-38100000D02*
X130665000Y-42055000D01*
%TO.N,3V3*%
X135180000Y-61520000D02*
X147320000Y-61520000D01*
X129540000Y-55880000D02*
X135180000Y-61520000D01*
X129540000Y-53340000D02*
X129540000Y-55880000D01*
%TO.N,PC6-9_PWM1*%
X121430000Y-37610000D02*
X121920000Y-38100000D01*
X115420000Y-37610000D02*
X121430000Y-37610000D01*
%TO.N,GND*%
X121920000Y-43180000D02*
X129540000Y-43180000D01*
X133665000Y-49845000D02*
X129540000Y-45720000D01*
X137737000Y-49845000D02*
X133665000Y-49845000D01*
X117480000Y-60960000D02*
X114300000Y-60960000D01*
X119380000Y-59060000D02*
X117480000Y-60960000D01*
%TO.N,BATT Vin*%
X112880000Y-45230000D02*
X115420000Y-45230000D01*
%TO.N,Vin*%
X112880000Y-50310000D02*
X115420000Y-50310000D01*
%TO.N,GND*%
X112880000Y-42690000D02*
X115420000Y-42690000D01*
X121920000Y-43180000D02*
X121920000Y-45720000D01*
X129540000Y-45720000D02*
X129540000Y-43180000D01*
%TO.N,3V3*%
X147320000Y-61520000D02*
X147320000Y-55320000D01*
X151840000Y-61520000D02*
X152400000Y-60960000D01*
X147320000Y-61520000D02*
X151840000Y-61520000D01*
%TO.N,GND*%
X152310000Y-58010000D02*
X152400000Y-58010000D01*
X149620000Y-55320000D02*
X152310000Y-58010000D01*
X152560000Y-43340000D02*
X152400000Y-43180000D01*
X152560000Y-48260000D02*
X152560000Y-46910000D01*
X152560000Y-48260000D02*
X152560000Y-43340000D01*
X152560000Y-50800000D02*
X152560000Y-48260000D01*
X149620000Y-53740000D02*
X152560000Y-50800000D01*
X149620000Y-55320000D02*
X149620000Y-53740000D01*
%TD*%
%TA.AperFunction,Conductor*%
%TO.N,GND*%
G36*
X136749500Y-41742113D02*
G01*
X136794887Y-41787500D01*
X136811500Y-41849500D01*
X136811500Y-42644560D01*
X136811500Y-42644578D01*
X136811501Y-42647872D01*
X136811853Y-42651150D01*
X136811854Y-42651161D01*
X136817079Y-42699768D01*
X136817080Y-42699773D01*
X136817909Y-42707483D01*
X136820619Y-42714749D01*
X136820620Y-42714753D01*
X136851959Y-42798777D01*
X136868204Y-42842331D01*
X136873518Y-42849430D01*
X136873519Y-42849431D01*
X136946269Y-42946613D01*
X136954454Y-42957546D01*
X137069669Y-43043796D01*
X137204517Y-43094091D01*
X137264127Y-43100500D01*
X138209872Y-43100499D01*
X138269483Y-43094091D01*
X138404331Y-43043796D01*
X138519546Y-42957546D01*
X138605796Y-42842331D01*
X138656091Y-42707483D01*
X138662500Y-42647873D01*
X138662499Y-41849499D01*
X138679112Y-41787500D01*
X138724499Y-41742113D01*
X138786499Y-41725500D01*
X140822373Y-41725500D01*
X140878668Y-41739015D01*
X140922691Y-41776615D01*
X140944846Y-41830102D01*
X140940304Y-41887818D01*
X140910054Y-41937181D01*
X138203594Y-44643641D01*
X138148007Y-44675735D01*
X138083819Y-44675735D01*
X138028232Y-44643641D01*
X138017286Y-44632695D01*
X138009842Y-44624514D01*
X138005786Y-44618123D01*
X137956775Y-44572098D01*
X137953978Y-44569387D01*
X137937227Y-44552636D01*
X137934471Y-44549880D01*
X137931290Y-44547412D01*
X137922414Y-44539830D01*
X137896269Y-44515278D01*
X137896267Y-44515276D01*
X137890582Y-44509938D01*
X137883749Y-44506182D01*
X137883743Y-44506177D01*
X137873025Y-44500285D01*
X137856766Y-44489606D01*
X137847095Y-44482104D01*
X137847092Y-44482102D01*
X137840936Y-44477327D01*
X137833779Y-44474229D01*
X137833776Y-44474228D01*
X137800849Y-44459978D01*
X137790363Y-44454841D01*
X137758932Y-44437562D01*
X137758923Y-44437558D01*
X137752092Y-44433803D01*
X137744535Y-44431862D01*
X137744531Y-44431861D01*
X137732688Y-44428820D01*
X137714284Y-44422519D01*
X137703057Y-44417660D01*
X137703050Y-44417658D01*
X137695896Y-44414562D01*
X137688192Y-44413341D01*
X137688190Y-44413341D01*
X137652759Y-44407729D01*
X137641324Y-44405361D01*
X137606571Y-44396438D01*
X137606563Y-44396437D01*
X137599019Y-44394500D01*
X137591223Y-44394500D01*
X137578983Y-44394500D01*
X137559597Y-44392974D01*
X137539804Y-44389840D01*
X137532038Y-44390574D01*
X137532035Y-44390574D01*
X137496324Y-44393950D01*
X137484655Y-44394500D01*
X136770452Y-44394500D01*
X136722999Y-44385061D01*
X136682771Y-44358181D01*
X135636771Y-43312180D01*
X135606521Y-43262817D01*
X135601979Y-43205101D01*
X135624134Y-43151614D01*
X135668157Y-43114014D01*
X135724452Y-43100499D01*
X136056561Y-43100499D01*
X136059872Y-43100499D01*
X136119483Y-43094091D01*
X136254331Y-43043796D01*
X136369546Y-42957546D01*
X136455796Y-42842331D01*
X136506091Y-42707483D01*
X136512500Y-42647873D01*
X136512499Y-41849499D01*
X136529112Y-41787500D01*
X136574499Y-41742113D01*
X136636499Y-41725500D01*
X136687500Y-41725500D01*
X136749500Y-41742113D01*
G37*
%TD.AperFunction*%
%TA.AperFunction,Conductor*%
G36*
X115608000Y-42456613D02*
G01*
X115653387Y-42502000D01*
X115670000Y-42564000D01*
X115670000Y-42816000D01*
X115653387Y-42878000D01*
X115608000Y-42923387D01*
X115546000Y-42940000D01*
X112754000Y-42940000D01*
X112692000Y-42923387D01*
X112646613Y-42878000D01*
X112630000Y-42816000D01*
X112630000Y-42564000D01*
X112646613Y-42502000D01*
X112692000Y-42456613D01*
X112754000Y-42440000D01*
X115546000Y-42440000D01*
X115608000Y-42456613D01*
G37*
%TD.AperFunction*%
%TA.AperFunction,Conductor*%
G36*
X154877500Y-33037113D02*
G01*
X154922887Y-33082500D01*
X154939500Y-33144500D01*
X154939500Y-65915500D01*
X154922887Y-65977500D01*
X154877500Y-66022887D01*
X154815500Y-66039500D01*
X109344500Y-66039500D01*
X109282500Y-66022887D01*
X109237113Y-65977500D01*
X109220500Y-65915500D01*
X109220500Y-36495196D01*
X110174840Y-36495196D01*
X110175574Y-36502961D01*
X110175574Y-36502964D01*
X110178950Y-36538676D01*
X110179500Y-36550345D01*
X110179500Y-52358926D01*
X110178978Y-52369981D01*
X110177327Y-52377368D01*
X110177571Y-52385154D01*
X110177571Y-52385162D01*
X110179439Y-52444574D01*
X110179500Y-52448469D01*
X110179500Y-52476051D01*
X110179988Y-52479920D01*
X110179989Y-52479926D01*
X110180004Y-52480044D01*
X110180918Y-52491667D01*
X110182045Y-52527531D01*
X110182046Y-52527538D01*
X110182291Y-52535328D01*
X110184467Y-52542820D01*
X110184468Y-52542822D01*
X110187879Y-52554563D01*
X110191825Y-52573616D01*
X110194336Y-52593493D01*
X110197206Y-52600743D01*
X110197208Y-52600749D01*
X110210414Y-52634105D01*
X110214197Y-52645152D01*
X110226382Y-52687091D01*
X110230353Y-52693806D01*
X110230354Y-52693808D01*
X110236581Y-52704338D01*
X110245136Y-52721800D01*
X110249642Y-52733181D01*
X110249643Y-52733184D01*
X110252514Y-52740433D01*
X110274440Y-52770613D01*
X110278181Y-52775761D01*
X110284593Y-52785523D01*
X110302856Y-52816403D01*
X110302859Y-52816408D01*
X110306830Y-52823121D01*
X110312345Y-52828636D01*
X110320990Y-52837281D01*
X110333626Y-52852075D01*
X110340819Y-52861976D01*
X110340823Y-52861980D01*
X110345406Y-52868288D01*
X110351415Y-52873259D01*
X110351416Y-52873260D01*
X110379058Y-52896127D01*
X110387699Y-52903990D01*
X111834861Y-54351153D01*
X111865970Y-54403266D01*
X111868620Y-54463901D01*
X111842744Y-54517359D01*
X111841505Y-54518599D01*
X111838401Y-54523030D01*
X111838400Y-54523033D01*
X111709073Y-54707731D01*
X111709068Y-54707738D01*
X111705965Y-54712171D01*
X111703677Y-54717077D01*
X111703675Y-54717081D01*
X111608386Y-54921427D01*
X111608383Y-54921432D01*
X111606097Y-54926337D01*
X111604698Y-54931557D01*
X111604694Y-54931569D01*
X111546337Y-55149365D01*
X111546335Y-55149371D01*
X111544937Y-55154592D01*
X111544465Y-55159977D01*
X111544465Y-55159982D01*
X111529294Y-55333385D01*
X111524341Y-55390000D01*
X111524813Y-55395395D01*
X111535590Y-55518580D01*
X111544937Y-55625408D01*
X111546336Y-55630630D01*
X111546337Y-55630634D01*
X111604694Y-55848430D01*
X111604697Y-55848438D01*
X111606097Y-55853663D01*
X111608385Y-55858570D01*
X111608386Y-55858572D01*
X111703678Y-56062927D01*
X111703681Y-56062933D01*
X111705965Y-56067830D01*
X111709064Y-56072257D01*
X111709066Y-56072259D01*
X111838399Y-56256966D01*
X111838402Y-56256970D01*
X111841505Y-56261401D01*
X112008599Y-56428495D01*
X112013031Y-56431598D01*
X112013033Y-56431600D01*
X112069465Y-56471114D01*
X112202170Y-56564035D01*
X112416337Y-56663903D01*
X112644592Y-56725063D01*
X112880000Y-56745659D01*
X113115408Y-56725063D01*
X113343663Y-56663903D01*
X113557830Y-56564035D01*
X113751401Y-56428495D01*
X113918495Y-56261401D01*
X113971495Y-56185710D01*
X114048425Y-56075842D01*
X114092743Y-56036976D01*
X114150000Y-56022965D01*
X114207257Y-56036976D01*
X114251575Y-56075842D01*
X114378395Y-56256961D01*
X114378401Y-56256968D01*
X114381505Y-56261401D01*
X114548599Y-56428495D01*
X114553031Y-56431598D01*
X114553033Y-56431600D01*
X114609465Y-56471114D01*
X114742170Y-56564035D01*
X114956337Y-56663903D01*
X115184592Y-56725063D01*
X115420000Y-56745659D01*
X115655408Y-56725063D01*
X115883663Y-56663903D01*
X116097830Y-56564035D01*
X116291401Y-56428495D01*
X116458495Y-56261401D01*
X116594035Y-56067830D01*
X116693903Y-55853663D01*
X116755063Y-55625408D01*
X116770966Y-55443638D01*
X116796118Y-55378960D01*
X116852084Y-55337924D01*
X116921333Y-55333385D01*
X116982175Y-55366765D01*
X117316171Y-55700761D01*
X117346912Y-55751670D01*
X117350414Y-55811038D01*
X117325870Y-55865209D01*
X117278927Y-55901721D01*
X117225505Y-55925506D01*
X117225500Y-55925508D01*
X117219570Y-55928149D01*
X117214316Y-55931965D01*
X117214311Y-55931969D01*
X117071688Y-56035590D01*
X117071681Y-56035595D01*
X117066429Y-56039412D01*
X117062084Y-56044237D01*
X117062079Y-56044242D01*
X116944113Y-56175256D01*
X116944108Y-56175262D01*
X116939767Y-56180084D01*
X116936522Y-56185704D01*
X116936518Y-56185710D01*
X116848369Y-56338389D01*
X116848366Y-56338394D01*
X116845121Y-56344016D01*
X116843115Y-56350188D01*
X116843113Y-56350194D01*
X116788633Y-56517864D01*
X116788631Y-56517873D01*
X116786626Y-56524044D01*
X116785948Y-56530494D01*
X116785946Y-56530504D01*
X116768262Y-56698764D01*
X116766840Y-56712300D01*
X116767519Y-56718760D01*
X116785946Y-56894095D01*
X116785947Y-56894103D01*
X116786626Y-56900556D01*
X116788631Y-56906728D01*
X116788633Y-56906735D01*
X116824520Y-57017182D01*
X116829062Y-57074898D01*
X116806907Y-57128385D01*
X116762884Y-57165985D01*
X116706589Y-57179500D01*
X115532775Y-57179500D01*
X115521719Y-57178978D01*
X115514333Y-57177327D01*
X115506545Y-57177571D01*
X115506538Y-57177571D01*
X115447127Y-57179439D01*
X115443232Y-57179500D01*
X115415650Y-57179500D01*
X115411805Y-57179985D01*
X115411780Y-57179987D01*
X115411653Y-57180004D01*
X115400034Y-57180918D01*
X115364172Y-57182045D01*
X115364165Y-57182046D01*
X115356373Y-57182291D01*
X115348888Y-57184465D01*
X115348872Y-57184468D01*
X115337126Y-57187881D01*
X115318083Y-57191825D01*
X115305949Y-57193358D01*
X115305948Y-57193358D01*
X115298208Y-57194336D01*
X115290958Y-57197205D01*
X115290951Y-57197208D01*
X115257598Y-57210413D01*
X115246554Y-57214194D01*
X115212101Y-57224204D01*
X115212090Y-57224208D01*
X115204610Y-57226382D01*
X115197898Y-57230351D01*
X115197896Y-57230352D01*
X115187364Y-57236580D01*
X115169904Y-57245134D01*
X115158519Y-57249642D01*
X115158513Y-57249644D01*
X115151268Y-57252514D01*
X115144963Y-57257094D01*
X115144955Y-57257099D01*
X115115932Y-57278185D01*
X115106174Y-57284595D01*
X115075296Y-57302857D01*
X115075290Y-57302861D01*
X115068580Y-57306830D01*
X115063067Y-57312341D01*
X115063060Y-57312348D01*
X115054410Y-57320998D01*
X115039627Y-57333624D01*
X115029726Y-57340817D01*
X115029716Y-57340826D01*
X115023413Y-57345406D01*
X115018444Y-57351411D01*
X115018441Y-57351415D01*
X114995572Y-57379059D01*
X114987711Y-57387697D01*
X112824147Y-59551260D01*
X112778029Y-59580406D01*
X112723864Y-59586936D01*
X112721083Y-59586652D01*
X112703140Y-59584819D01*
X112703123Y-59584818D01*
X112700009Y-59584500D01*
X112696860Y-59584500D01*
X111903141Y-59584500D01*
X111903121Y-59584500D01*
X111899992Y-59584501D01*
X111896860Y-59584820D01*
X111896858Y-59584821D01*
X111803938Y-59594312D01*
X111803928Y-59594313D01*
X111797203Y-59595001D01*
X111790781Y-59597128D01*
X111790776Y-59597130D01*
X111637521Y-59647914D01*
X111637517Y-59647915D01*
X111630666Y-59650186D01*
X111624522Y-59653975D01*
X111624519Y-59653977D01*
X111487488Y-59738497D01*
X111487480Y-59738503D01*
X111481344Y-59742288D01*
X111476242Y-59747389D01*
X111476238Y-59747393D01*
X111362393Y-59861238D01*
X111362389Y-59861242D01*
X111357288Y-59866344D01*
X111353503Y-59872480D01*
X111353497Y-59872488D01*
X111268977Y-60009519D01*
X111265186Y-60015666D01*
X111262915Y-60022517D01*
X111262914Y-60022521D01*
X111213856Y-60170568D01*
X111210001Y-60182203D01*
X111209313Y-60188933D01*
X111209312Y-60188940D01*
X111199819Y-60281859D01*
X111199818Y-60281877D01*
X111199500Y-60284991D01*
X111199500Y-60288138D01*
X111199500Y-60288139D01*
X111199500Y-61631859D01*
X111199500Y-61631878D01*
X111199501Y-61635008D01*
X111199820Y-61638140D01*
X111199821Y-61638141D01*
X111209312Y-61731061D01*
X111209313Y-61731069D01*
X111210001Y-61737797D01*
X111212129Y-61744219D01*
X111212130Y-61744223D01*
X111253487Y-61869030D01*
X111265186Y-61904334D01*
X111272343Y-61915937D01*
X111353497Y-62047511D01*
X111353500Y-62047515D01*
X111357288Y-62053656D01*
X111481344Y-62177712D01*
X111487485Y-62181500D01*
X111487488Y-62181502D01*
X111529638Y-62207500D01*
X111630666Y-62269814D01*
X111797203Y-62324999D01*
X111899991Y-62335500D01*
X112700008Y-62335499D01*
X112802797Y-62324999D01*
X112969334Y-62269814D01*
X113118656Y-62177712D01*
X113242712Y-62053656D01*
X113282095Y-61989804D01*
X113324146Y-61948388D01*
X113380585Y-61931103D01*
X113438620Y-61941871D01*
X113485103Y-61978251D01*
X113496623Y-61992900D01*
X113504735Y-62001408D01*
X113654572Y-62131243D01*
X113664149Y-62138062D01*
X113835846Y-62237191D01*
X113846549Y-62242079D01*
X114033904Y-62306924D01*
X114039488Y-62308279D01*
X114047681Y-62307693D01*
X114050000Y-62297036D01*
X114050000Y-62292181D01*
X114550000Y-62292181D01*
X114552505Y-62303072D01*
X114563679Y-62302939D01*
X114655670Y-62280622D01*
X114666788Y-62276774D01*
X114847121Y-62194419D01*
X114857319Y-62188531D01*
X115018806Y-62073536D01*
X115027703Y-62065827D01*
X115164517Y-61922341D01*
X115171784Y-61913100D01*
X115278971Y-61746314D01*
X115284363Y-61735856D01*
X115358049Y-61551798D01*
X115361362Y-61540515D01*
X115381794Y-61434500D01*
X116184722Y-61434500D01*
X116185626Y-61441945D01*
X116202858Y-61583870D01*
X116202859Y-61583875D01*
X116203763Y-61591318D01*
X116206422Y-61598331D01*
X116206423Y-61598332D01*
X116221520Y-61638141D01*
X116259780Y-61739023D01*
X116349517Y-61869030D01*
X116355126Y-61873999D01*
X116355127Y-61874000D01*
X116439094Y-61948388D01*
X116467760Y-61973783D01*
X116525358Y-62004013D01*
X116593377Y-62039713D01*
X116607635Y-62047196D01*
X116691628Y-62067898D01*
X116750218Y-62082339D01*
X116761015Y-62085000D01*
X116911485Y-62085000D01*
X116918985Y-62085000D01*
X116988372Y-62067898D01*
X117005798Y-62063603D01*
X117035473Y-62060000D01*
X118055501Y-62060000D01*
X118117501Y-62076613D01*
X118162888Y-62122000D01*
X118179501Y-62184000D01*
X118179501Y-62360008D01*
X118179820Y-62363140D01*
X118179821Y-62363141D01*
X118189312Y-62456061D01*
X118189313Y-62456069D01*
X118190001Y-62462797D01*
X118245186Y-62629334D01*
X118248977Y-62635480D01*
X118333497Y-62772511D01*
X118333500Y-62772515D01*
X118337288Y-62778656D01*
X118461344Y-62902712D01*
X118467485Y-62906500D01*
X118467488Y-62906502D01*
X118524558Y-62941702D01*
X118610666Y-62994814D01*
X118777203Y-63049999D01*
X118879991Y-63060500D01*
X119880008Y-63060499D01*
X119982797Y-63049999D01*
X120149334Y-62994814D01*
X120298656Y-62902712D01*
X120422712Y-62778656D01*
X120514814Y-62629334D01*
X120569999Y-62462797D01*
X120580500Y-62360009D01*
X120580499Y-61559992D01*
X120569999Y-61457203D01*
X120514814Y-61290666D01*
X120446144Y-61179334D01*
X120426502Y-61147488D01*
X120426500Y-61147485D01*
X120422712Y-61141344D01*
X120328695Y-61047327D01*
X120296601Y-60991739D01*
X120296601Y-60927552D01*
X120328695Y-60871964D01*
X120417209Y-60783450D01*
X120426109Y-60772194D01*
X120510567Y-60635266D01*
X120516629Y-60622267D01*
X120567375Y-60469125D01*
X120570194Y-60455958D01*
X120579680Y-60363109D01*
X120580000Y-60356832D01*
X120580000Y-60226326D01*
X120576549Y-60213450D01*
X120563674Y-60210000D01*
X118196327Y-60210000D01*
X118183451Y-60213450D01*
X118180001Y-60226326D01*
X118180001Y-60356829D01*
X118180321Y-60363111D01*
X118189805Y-60455959D01*
X118192623Y-60469122D01*
X118243371Y-60622271D01*
X118248187Y-60632598D01*
X118259538Y-60693112D01*
X118240384Y-60751626D01*
X118195446Y-60793714D01*
X118135804Y-60809000D01*
X117035473Y-60809000D01*
X117005798Y-60805397D01*
X116926267Y-60785794D01*
X116926260Y-60785793D01*
X116918985Y-60784000D01*
X116761015Y-60784000D01*
X116753740Y-60785792D01*
X116753732Y-60785794D01*
X116614915Y-60820009D01*
X116614909Y-60820010D01*
X116607635Y-60821804D01*
X116601000Y-60825286D01*
X116600993Y-60825289D01*
X116474406Y-60891728D01*
X116474400Y-60891731D01*
X116467760Y-60895217D01*
X116462148Y-60900187D01*
X116462143Y-60900192D01*
X116355127Y-60994999D01*
X116355122Y-60995003D01*
X116349517Y-60999970D01*
X116345262Y-61006134D01*
X116345257Y-61006140D01*
X116264043Y-61123800D01*
X116264040Y-61123803D01*
X116259780Y-61129977D01*
X116257120Y-61136988D01*
X116257118Y-61136994D01*
X116206423Y-61270667D01*
X116203763Y-61277682D01*
X116202859Y-61285122D01*
X116202858Y-61285129D01*
X116186070Y-61423396D01*
X116184722Y-61434500D01*
X115381794Y-61434500D01*
X115398882Y-61345834D01*
X115400000Y-61334134D01*
X115400000Y-61226326D01*
X115396549Y-61213450D01*
X115383674Y-61210000D01*
X114566326Y-61210000D01*
X114553450Y-61213450D01*
X114550000Y-61226326D01*
X114550000Y-62292181D01*
X114050000Y-62292181D01*
X114050000Y-60834000D01*
X114066613Y-60772000D01*
X114112000Y-60726613D01*
X114174000Y-60710000D01*
X115383674Y-60710000D01*
X115396549Y-60706549D01*
X115400000Y-60693674D01*
X115400000Y-60635550D01*
X115399719Y-60629660D01*
X115385596Y-60481757D01*
X115383369Y-60470206D01*
X115327512Y-60279973D01*
X115323146Y-60269067D01*
X115232295Y-60092840D01*
X115225935Y-60082944D01*
X115103382Y-59927105D01*
X115095264Y-59918591D01*
X114945427Y-59788756D01*
X114935850Y-59781937D01*
X114782974Y-59693674D01*
X118180000Y-59693674D01*
X118183450Y-59706549D01*
X118196326Y-59710000D01*
X119113674Y-59710000D01*
X119126549Y-59706549D01*
X119130000Y-59693674D01*
X119630000Y-59693674D01*
X119633450Y-59706549D01*
X119646326Y-59710000D01*
X120563673Y-59710000D01*
X120576548Y-59706549D01*
X120579999Y-59693674D01*
X120579999Y-59563171D01*
X120579678Y-59556888D01*
X120570194Y-59464040D01*
X120567376Y-59450877D01*
X120516629Y-59297732D01*
X120510567Y-59284733D01*
X120426109Y-59147805D01*
X120417205Y-59136544D01*
X120303455Y-59022794D01*
X120292194Y-59013890D01*
X120155266Y-58929432D01*
X120142267Y-58923370D01*
X119989125Y-58872624D01*
X119975958Y-58869805D01*
X119883109Y-58860319D01*
X119876832Y-58860000D01*
X119646326Y-58860000D01*
X119633450Y-58863450D01*
X119630000Y-58876326D01*
X119630000Y-59693674D01*
X119130000Y-59693674D01*
X119130000Y-58876327D01*
X119126549Y-58863451D01*
X119113674Y-58860001D01*
X118883171Y-58860001D01*
X118876888Y-58860321D01*
X118784040Y-58869805D01*
X118770877Y-58872623D01*
X118617732Y-58923370D01*
X118604733Y-58929432D01*
X118467805Y-59013890D01*
X118456544Y-59022794D01*
X118342794Y-59136544D01*
X118333890Y-59147805D01*
X118249432Y-59284733D01*
X118243370Y-59297732D01*
X118192624Y-59450874D01*
X118189805Y-59464041D01*
X118180319Y-59556890D01*
X118180000Y-59563168D01*
X118180000Y-59693674D01*
X114782974Y-59693674D01*
X114764153Y-59682808D01*
X114753450Y-59677920D01*
X114727600Y-59668973D01*
X114675908Y-59634655D01*
X114647313Y-59579591D01*
X114648974Y-59517566D01*
X114680473Y-59464115D01*
X115677770Y-58466819D01*
X115717999Y-58439939D01*
X115765452Y-58430500D01*
X119990398Y-58430500D01*
X120001453Y-58431021D01*
X120008840Y-58432673D01*
X120076045Y-58430561D01*
X120079941Y-58430500D01*
X120103621Y-58430500D01*
X120107523Y-58430500D01*
X120111486Y-58429999D01*
X120123136Y-58429080D01*
X120166800Y-58427709D01*
X120186034Y-58422119D01*
X120205090Y-58418174D01*
X120224965Y-58415664D01*
X120265568Y-58399587D01*
X120276623Y-58395802D01*
X120318563Y-58383618D01*
X120335802Y-58373422D01*
X120353276Y-58364862D01*
X120364647Y-58360360D01*
X120364649Y-58360358D01*
X120371905Y-58357486D01*
X120407242Y-58331811D01*
X120416997Y-58325403D01*
X120454593Y-58303170D01*
X120468757Y-58289005D01*
X120483552Y-58276368D01*
X120499760Y-58264594D01*
X120527609Y-58230929D01*
X120535452Y-58222310D01*
X120792312Y-57965449D01*
X120800480Y-57958017D01*
X120806877Y-57953959D01*
X120852904Y-57904944D01*
X120855551Y-57902211D01*
X120875120Y-57882644D01*
X120877585Y-57879465D01*
X120885167Y-57870589D01*
X120915062Y-57838755D01*
X120924713Y-57821196D01*
X120935390Y-57804943D01*
X120947673Y-57789109D01*
X120965018Y-57749025D01*
X120970151Y-57738544D01*
X120991197Y-57700265D01*
X120996179Y-57680857D01*
X121002482Y-57662449D01*
X121010437Y-57644069D01*
X121017271Y-57600917D01*
X121019633Y-57589511D01*
X121030500Y-57547192D01*
X121030500Y-57527156D01*
X121032027Y-57507758D01*
X121033939Y-57495686D01*
X121033938Y-57495686D01*
X121035160Y-57487977D01*
X121031050Y-57444497D01*
X121030500Y-57432828D01*
X121030500Y-55982775D01*
X121031021Y-55971719D01*
X121032673Y-55964333D01*
X121030561Y-55897127D01*
X121030500Y-55893232D01*
X121030500Y-55869541D01*
X121030500Y-55865650D01*
X121029998Y-55861677D01*
X121029080Y-55850018D01*
X121027954Y-55814173D01*
X121027709Y-55806373D01*
X121022120Y-55787140D01*
X121018174Y-55768083D01*
X121016641Y-55755944D01*
X121015664Y-55748208D01*
X120999582Y-55707591D01*
X120995803Y-55696551D01*
X120985795Y-55662102D01*
X120985793Y-55662099D01*
X120983618Y-55654610D01*
X120973417Y-55637360D01*
X120964863Y-55619901D01*
X120957486Y-55601268D01*
X120931808Y-55565925D01*
X120925401Y-55556171D01*
X120907142Y-55525296D01*
X120907141Y-55525294D01*
X120903170Y-55518580D01*
X120889004Y-55504414D01*
X120876370Y-55489622D01*
X120864594Y-55473413D01*
X120858583Y-55468440D01*
X120858581Y-55468438D01*
X120830941Y-55445573D01*
X120822300Y-55437710D01*
X120616818Y-55232228D01*
X120589938Y-55192000D01*
X120580499Y-55144547D01*
X120580499Y-54483141D01*
X120580499Y-54483140D01*
X120580499Y-54479992D01*
X120569999Y-54377203D01*
X120514814Y-54210666D01*
X120449860Y-54105358D01*
X120426502Y-54067488D01*
X120426500Y-54067485D01*
X120422712Y-54061344D01*
X120298656Y-53937288D01*
X120292515Y-53933500D01*
X120292511Y-53933497D01*
X120155480Y-53848977D01*
X120149334Y-53845186D01*
X120142482Y-53842915D01*
X120142479Y-53842914D01*
X120090496Y-53825689D01*
X120046171Y-53799810D01*
X120016123Y-53758198D01*
X120005500Y-53707983D01*
X120005500Y-53340000D01*
X120614532Y-53340000D01*
X120615004Y-53345395D01*
X120619737Y-53399500D01*
X120634365Y-53566692D01*
X120635762Y-53571907D01*
X120635764Y-53571916D01*
X120691858Y-53781263D01*
X120691861Y-53781271D01*
X120693261Y-53786496D01*
X120695549Y-53791403D01*
X120695550Y-53791405D01*
X120726370Y-53857498D01*
X120789432Y-53992734D01*
X120792539Y-53997171D01*
X120792540Y-53997173D01*
X120837473Y-54061344D01*
X120919953Y-54179139D01*
X121080861Y-54340047D01*
X121267266Y-54470568D01*
X121473504Y-54566739D01*
X121693308Y-54625635D01*
X121920000Y-54645468D01*
X122146692Y-54625635D01*
X122366496Y-54566739D01*
X122572734Y-54470568D01*
X122759139Y-54340047D01*
X122920047Y-54179139D01*
X123050568Y-53992734D01*
X123146739Y-53786496D01*
X123205635Y-53566692D01*
X123225468Y-53340000D01*
X123205635Y-53113308D01*
X123146739Y-52893504D01*
X123050568Y-52687266D01*
X122920047Y-52500861D01*
X122759139Y-52339953D01*
X122682627Y-52286379D01*
X122577173Y-52212540D01*
X122577171Y-52212539D01*
X122572734Y-52209432D01*
X122514724Y-52182381D01*
X122462549Y-52136625D01*
X122443130Y-52070000D01*
X122462549Y-52003375D01*
X122514725Y-51957618D01*
X122572734Y-51930568D01*
X122759139Y-51800047D01*
X122920047Y-51639139D01*
X123050568Y-51452734D01*
X123146739Y-51246496D01*
X123205635Y-51026692D01*
X123225468Y-50800000D01*
X123205635Y-50573308D01*
X123177515Y-50468361D01*
X123148141Y-50358736D01*
X123148140Y-50358734D01*
X123146739Y-50353504D01*
X123050568Y-50147266D01*
X122920047Y-49960861D01*
X122759139Y-49799953D01*
X122669793Y-49737393D01*
X122577173Y-49672540D01*
X122577171Y-49672539D01*
X122572734Y-49669432D01*
X122514724Y-49642381D01*
X122462549Y-49596625D01*
X122443130Y-49530000D01*
X122462549Y-49463375D01*
X122514725Y-49417618D01*
X122572734Y-49390568D01*
X122759139Y-49260047D01*
X122920047Y-49099139D01*
X123050568Y-48912734D01*
X123146739Y-48706496D01*
X123205635Y-48486692D01*
X123225468Y-48260000D01*
X123205635Y-48033308D01*
X123199792Y-48011503D01*
X123148141Y-47818736D01*
X123148140Y-47818734D01*
X123146739Y-47813504D01*
X123050568Y-47607266D01*
X122920047Y-47420861D01*
X122759139Y-47259953D01*
X122572734Y-47129432D01*
X122567831Y-47127145D01*
X122567823Y-47127141D01*
X122514134Y-47102106D01*
X122461958Y-47056349D01*
X122442539Y-46989723D01*
X122461959Y-46923098D01*
X122514135Y-46877341D01*
X122567585Y-46852417D01*
X122576912Y-46847032D01*
X122754381Y-46722767D01*
X122762647Y-46715830D01*
X122915830Y-46562647D01*
X122922767Y-46554381D01*
X123047032Y-46376912D01*
X123052420Y-46367580D01*
X123143977Y-46171234D01*
X123147669Y-46161092D01*
X123195179Y-45983780D01*
X123195547Y-45972551D01*
X123184605Y-45970000D01*
X120655395Y-45970000D01*
X120644452Y-45972551D01*
X120644820Y-45983780D01*
X120692330Y-46161092D01*
X120696022Y-46171234D01*
X120787579Y-46367580D01*
X120792967Y-46376912D01*
X120917232Y-46554381D01*
X120924169Y-46562647D01*
X121077352Y-46715830D01*
X121085618Y-46722767D01*
X121263087Y-46847032D01*
X121272423Y-46852422D01*
X121325864Y-46877342D01*
X121378040Y-46923098D01*
X121397460Y-46989723D01*
X121378041Y-47056348D01*
X121325865Y-47102106D01*
X121267266Y-47129432D01*
X121262833Y-47132535D01*
X121262826Y-47132540D01*
X121085296Y-47256847D01*
X121085291Y-47256850D01*
X121080861Y-47259953D01*
X121077037Y-47263776D01*
X121077031Y-47263782D01*
X120923782Y-47417031D01*
X120923776Y-47417037D01*
X120919953Y-47420861D01*
X120916850Y-47425291D01*
X120916847Y-47425296D01*
X120792540Y-47602826D01*
X120792535Y-47602833D01*
X120789432Y-47607266D01*
X120787144Y-47612172D01*
X120787142Y-47612176D01*
X120695550Y-47808594D01*
X120695547Y-47808599D01*
X120693261Y-47813504D01*
X120691862Y-47818724D01*
X120691858Y-47818736D01*
X120635764Y-48028083D01*
X120635762Y-48028094D01*
X120634365Y-48033308D01*
X120633893Y-48038693D01*
X120633893Y-48038698D01*
X120616104Y-48242032D01*
X120614532Y-48260000D01*
X120615004Y-48265395D01*
X120628265Y-48416976D01*
X120634365Y-48486692D01*
X120635762Y-48491907D01*
X120635764Y-48491916D01*
X120691858Y-48701263D01*
X120691861Y-48701271D01*
X120693261Y-48706496D01*
X120695549Y-48711403D01*
X120695550Y-48711405D01*
X120717470Y-48758413D01*
X120789432Y-48912734D01*
X120792539Y-48917171D01*
X120792540Y-48917173D01*
X120811349Y-48944035D01*
X120919953Y-49099139D01*
X121080861Y-49260047D01*
X121267266Y-49390568D01*
X121272172Y-49392855D01*
X121272176Y-49392858D01*
X121325274Y-49417618D01*
X121377450Y-49463375D01*
X121396869Y-49530000D01*
X121377450Y-49596625D01*
X121325274Y-49642382D01*
X121272176Y-49667141D01*
X121272163Y-49667148D01*
X121267266Y-49669432D01*
X121262833Y-49672535D01*
X121262826Y-49672540D01*
X121085296Y-49796847D01*
X121085291Y-49796850D01*
X121080861Y-49799953D01*
X121077037Y-49803776D01*
X121077031Y-49803782D01*
X120923782Y-49957031D01*
X120923776Y-49957037D01*
X120919953Y-49960861D01*
X120916850Y-49965291D01*
X120916847Y-49965296D01*
X120792540Y-50142826D01*
X120792535Y-50142833D01*
X120789432Y-50147266D01*
X120787144Y-50152172D01*
X120787142Y-50152176D01*
X120695550Y-50348594D01*
X120695547Y-50348599D01*
X120693261Y-50353504D01*
X120691862Y-50358724D01*
X120691858Y-50358736D01*
X120635764Y-50568083D01*
X120635762Y-50568094D01*
X120634365Y-50573308D01*
X120633893Y-50578693D01*
X120633893Y-50578698D01*
X120622017Y-50714446D01*
X120614532Y-50800000D01*
X120615004Y-50805395D01*
X120632397Y-51004207D01*
X120634365Y-51026692D01*
X120635762Y-51031907D01*
X120635764Y-51031916D01*
X120691858Y-51241263D01*
X120691861Y-51241271D01*
X120693261Y-51246496D01*
X120789432Y-51452734D01*
X120919953Y-51639139D01*
X121080861Y-51800047D01*
X121267266Y-51930568D01*
X121272172Y-51932855D01*
X121272176Y-51932858D01*
X121325274Y-51957618D01*
X121377450Y-52003375D01*
X121396869Y-52070000D01*
X121377450Y-52136625D01*
X121325274Y-52182382D01*
X121272176Y-52207141D01*
X121272163Y-52207148D01*
X121267266Y-52209432D01*
X121262833Y-52212535D01*
X121262826Y-52212540D01*
X121085296Y-52336847D01*
X121085291Y-52336850D01*
X121080861Y-52339953D01*
X121077037Y-52343776D01*
X121077031Y-52343782D01*
X120923782Y-52497031D01*
X120923776Y-52497037D01*
X120919953Y-52500861D01*
X120916850Y-52505291D01*
X120916847Y-52505296D01*
X120792540Y-52682826D01*
X120792535Y-52682833D01*
X120789432Y-52687266D01*
X120787144Y-52692172D01*
X120787142Y-52692176D01*
X120695550Y-52888594D01*
X120695547Y-52888599D01*
X120693261Y-52893504D01*
X120691862Y-52898724D01*
X120691858Y-52898736D01*
X120635764Y-53108083D01*
X120635762Y-53108094D01*
X120634365Y-53113308D01*
X120633893Y-53118693D01*
X120633893Y-53118698D01*
X120626093Y-53207858D01*
X120614532Y-53340000D01*
X120005500Y-53340000D01*
X120005500Y-49267775D01*
X120006021Y-49256719D01*
X120007673Y-49249333D01*
X120005561Y-49182113D01*
X120005500Y-49178219D01*
X120005500Y-49154542D01*
X120005500Y-49150650D01*
X120004998Y-49146683D01*
X120004081Y-49135026D01*
X120002710Y-49091373D01*
X119997118Y-49072128D01*
X119993174Y-49053083D01*
X119990664Y-49033208D01*
X119974579Y-48992583D01*
X119970806Y-48981562D01*
X119958618Y-48939610D01*
X119948417Y-48922360D01*
X119939863Y-48904901D01*
X119932486Y-48886268D01*
X119906808Y-48850925D01*
X119900401Y-48841171D01*
X119882142Y-48810296D01*
X119882141Y-48810294D01*
X119878170Y-48803580D01*
X119864004Y-48789414D01*
X119851370Y-48774622D01*
X119839594Y-48758413D01*
X119833583Y-48753440D01*
X119833581Y-48753438D01*
X119805941Y-48730573D01*
X119797300Y-48722710D01*
X116760237Y-45685646D01*
X116728143Y-45630058D01*
X116728143Y-45565876D01*
X116754516Y-45467448D01*
X120644452Y-45467448D01*
X120655395Y-45470000D01*
X121653674Y-45470000D01*
X121666549Y-45466549D01*
X121670000Y-45453674D01*
X122170000Y-45453674D01*
X122173450Y-45466549D01*
X122186326Y-45470000D01*
X123184605Y-45470000D01*
X123195547Y-45467448D01*
X128264452Y-45467448D01*
X128275395Y-45470000D01*
X129273674Y-45470000D01*
X129286549Y-45466549D01*
X129290000Y-45453674D01*
X129790000Y-45453674D01*
X129793450Y-45466549D01*
X129806326Y-45470000D01*
X130804605Y-45470000D01*
X130815547Y-45467448D01*
X130815179Y-45456219D01*
X130767669Y-45278907D01*
X130763977Y-45268765D01*
X130672420Y-45072419D01*
X130667032Y-45063087D01*
X130542767Y-44885618D01*
X130535830Y-44877352D01*
X130382647Y-44724169D01*
X130374381Y-44717232D01*
X130196912Y-44592967D01*
X130187576Y-44587577D01*
X130133544Y-44562382D01*
X130081368Y-44516625D01*
X130061948Y-44450000D01*
X130081368Y-44383375D01*
X130133544Y-44337618D01*
X130187576Y-44312422D01*
X130196912Y-44307032D01*
X130374381Y-44182767D01*
X130382647Y-44175830D01*
X130535830Y-44022647D01*
X130542767Y-44014381D01*
X130667032Y-43836912D01*
X130672420Y-43827580D01*
X130763977Y-43631234D01*
X130767669Y-43621092D01*
X130815179Y-43443780D01*
X130815547Y-43432551D01*
X130804605Y-43430000D01*
X129806326Y-43430000D01*
X129793450Y-43433450D01*
X129790000Y-43446326D01*
X129790000Y-45453674D01*
X129290000Y-45453674D01*
X129290000Y-43446326D01*
X129286549Y-43433450D01*
X129273674Y-43430000D01*
X128275395Y-43430000D01*
X128264452Y-43432551D01*
X128264820Y-43443780D01*
X128312330Y-43621092D01*
X128316022Y-43631234D01*
X128407579Y-43827580D01*
X128412967Y-43836912D01*
X128537232Y-44014381D01*
X128544169Y-44022647D01*
X128697352Y-44175830D01*
X128705618Y-44182767D01*
X128883087Y-44307032D01*
X128892414Y-44312417D01*
X128946455Y-44337616D01*
X128998631Y-44383373D01*
X129018051Y-44449997D01*
X128998633Y-44516622D01*
X128946458Y-44562380D01*
X128892421Y-44587578D01*
X128883087Y-44592967D01*
X128705618Y-44717232D01*
X128697352Y-44724169D01*
X128544169Y-44877352D01*
X128537232Y-44885618D01*
X128412967Y-45063087D01*
X128407579Y-45072419D01*
X128316022Y-45268765D01*
X128312330Y-45278907D01*
X128264820Y-45456219D01*
X128264452Y-45467448D01*
X123195547Y-45467448D01*
X123195179Y-45456219D01*
X123147669Y-45278907D01*
X123143977Y-45268765D01*
X123052420Y-45072419D01*
X123047032Y-45063087D01*
X122922767Y-44885618D01*
X122915830Y-44877352D01*
X122762647Y-44724169D01*
X122754381Y-44717232D01*
X122576912Y-44592967D01*
X122567576Y-44587577D01*
X122513544Y-44562382D01*
X122461368Y-44516625D01*
X122441948Y-44450000D01*
X122461368Y-44383375D01*
X122513544Y-44337618D01*
X122567576Y-44312422D01*
X122576912Y-44307032D01*
X122754381Y-44182767D01*
X122762647Y-44175830D01*
X122915830Y-44022647D01*
X122922767Y-44014381D01*
X123047032Y-43836912D01*
X123052420Y-43827580D01*
X123143977Y-43631234D01*
X123147669Y-43621092D01*
X123195179Y-43443780D01*
X123195547Y-43432551D01*
X123184605Y-43430000D01*
X122186326Y-43430000D01*
X122173450Y-43433450D01*
X122170000Y-43446326D01*
X122170000Y-45453674D01*
X121670000Y-45453674D01*
X121670000Y-43446326D01*
X121666549Y-43433450D01*
X121653674Y-43430000D01*
X120655395Y-43430000D01*
X120644452Y-43432551D01*
X120644820Y-43443780D01*
X120692330Y-43621092D01*
X120696022Y-43631234D01*
X120787579Y-43827580D01*
X120792967Y-43836912D01*
X120917232Y-44014381D01*
X120924169Y-44022647D01*
X121077352Y-44175830D01*
X121085618Y-44182767D01*
X121263087Y-44307032D01*
X121272414Y-44312417D01*
X121326455Y-44337616D01*
X121378631Y-44383373D01*
X121398051Y-44449997D01*
X121378633Y-44516622D01*
X121326458Y-44562380D01*
X121272421Y-44587578D01*
X121263087Y-44592967D01*
X121085618Y-44717232D01*
X121077352Y-44724169D01*
X120924169Y-44877352D01*
X120917232Y-44885618D01*
X120792967Y-45063087D01*
X120787579Y-45072419D01*
X120696022Y-45268765D01*
X120692330Y-45278907D01*
X120644820Y-45456219D01*
X120644452Y-45467448D01*
X116754516Y-45467448D01*
X116755063Y-45465408D01*
X116775659Y-45230000D01*
X116755063Y-44994592D01*
X116693903Y-44766337D01*
X116594035Y-44552171D01*
X116569146Y-44516625D01*
X116530198Y-44461001D01*
X116509082Y-44407849D01*
X116514067Y-44350874D01*
X116544090Y-44302199D01*
X118129472Y-42716819D01*
X118169701Y-42689939D01*
X118217154Y-42680500D01*
X120546381Y-42680500D01*
X120601225Y-42693288D01*
X120644757Y-42729013D01*
X120667998Y-42780308D01*
X120666156Y-42836593D01*
X120644820Y-42916219D01*
X120644452Y-42927448D01*
X120655395Y-42930000D01*
X123184605Y-42930000D01*
X123195547Y-42927448D01*
X123195179Y-42916219D01*
X123173844Y-42836593D01*
X123172002Y-42780308D01*
X123195243Y-42729013D01*
X123238775Y-42693288D01*
X123293619Y-42680500D01*
X128166381Y-42680500D01*
X128221225Y-42693288D01*
X128264757Y-42729013D01*
X128287998Y-42780308D01*
X128286156Y-42836593D01*
X128264820Y-42916219D01*
X128264452Y-42927448D01*
X128275395Y-42930000D01*
X130804605Y-42930000D01*
X130815547Y-42927448D01*
X130815179Y-42916219D01*
X130783711Y-42798777D01*
X130782567Y-42739213D01*
X130809335Y-42685990D01*
X130857835Y-42651393D01*
X130858421Y-42651161D01*
X130862401Y-42649585D01*
X130873450Y-42645802D01*
X130915390Y-42633618D01*
X130932629Y-42623422D01*
X130950103Y-42614862D01*
X130961474Y-42610360D01*
X130961476Y-42610358D01*
X130968732Y-42607486D01*
X131004069Y-42581811D01*
X131013824Y-42575403D01*
X131051420Y-42553170D01*
X131065584Y-42539005D01*
X131080379Y-42526368D01*
X131096587Y-42514594D01*
X131124428Y-42480938D01*
X131132279Y-42472309D01*
X131795945Y-41808643D01*
X131853626Y-41776009D01*
X131919879Y-41777745D01*
X131975773Y-41813354D01*
X131986429Y-41825188D01*
X131991687Y-41829008D01*
X131991688Y-41829009D01*
X132019892Y-41849500D01*
X132139570Y-41936451D01*
X132312497Y-42013444D01*
X132497654Y-42052800D01*
X132556848Y-42052800D01*
X132604301Y-42062239D01*
X132644529Y-42089119D01*
X135188663Y-44633253D01*
X135219316Y-44683879D01*
X135223012Y-44742947D01*
X135198911Y-44797000D01*
X135152501Y-44833725D01*
X135094683Y-44844694D01*
X135092873Y-44844500D01*
X135089553Y-44844500D01*
X134150439Y-44844500D01*
X134150420Y-44844500D01*
X134147128Y-44844501D01*
X134143850Y-44844853D01*
X134143838Y-44844854D01*
X134095231Y-44850079D01*
X134095225Y-44850080D01*
X134087517Y-44850909D01*
X134080252Y-44853618D01*
X134080246Y-44853620D01*
X133960980Y-44898104D01*
X133960978Y-44898104D01*
X133952669Y-44901204D01*
X133945572Y-44906516D01*
X133945568Y-44906519D01*
X133844550Y-44982141D01*
X133844546Y-44982144D01*
X133837454Y-44987454D01*
X133832144Y-44994546D01*
X133832141Y-44994550D01*
X133756519Y-45095568D01*
X133756516Y-45095572D01*
X133751204Y-45102669D01*
X133748104Y-45110978D01*
X133748104Y-45110980D01*
X133703620Y-45230247D01*
X133703619Y-45230250D01*
X133700909Y-45237517D01*
X133700079Y-45245227D01*
X133700079Y-45245232D01*
X133694855Y-45293819D01*
X133694854Y-45293831D01*
X133694500Y-45297127D01*
X133694500Y-45300448D01*
X133694500Y-45300449D01*
X133694500Y-46139560D01*
X133694500Y-46139578D01*
X133694501Y-46142872D01*
X133694853Y-46146150D01*
X133694854Y-46146161D01*
X133700079Y-46194768D01*
X133700080Y-46194773D01*
X133700909Y-46202483D01*
X133703619Y-46209749D01*
X133703620Y-46209753D01*
X133725530Y-46268495D01*
X133751204Y-46337331D01*
X133756518Y-46344430D01*
X133756519Y-46344431D01*
X133789177Y-46388057D01*
X133837454Y-46452546D01*
X133952669Y-46538796D01*
X134087517Y-46589091D01*
X134147127Y-46595500D01*
X135092872Y-46595499D01*
X135152483Y-46589091D01*
X135287331Y-46538796D01*
X135402546Y-46452546D01*
X135488796Y-46337331D01*
X135539091Y-46202483D01*
X135545500Y-46142873D01*
X135545499Y-45297128D01*
X135545305Y-45295323D01*
X135556269Y-45237507D01*
X135592992Y-45191092D01*
X135647046Y-45166986D01*
X135706116Y-45170681D01*
X135756745Y-45201335D01*
X135808181Y-45252771D01*
X135835061Y-45292999D01*
X135844500Y-45340452D01*
X135844500Y-46139560D01*
X135844500Y-46139578D01*
X135844501Y-46142872D01*
X135844853Y-46146150D01*
X135844854Y-46146161D01*
X135850079Y-46194768D01*
X135850080Y-46194773D01*
X135850909Y-46202483D01*
X135853619Y-46209749D01*
X135853620Y-46209753D01*
X135875530Y-46268495D01*
X135901204Y-46337331D01*
X135906518Y-46344430D01*
X135906519Y-46344431D01*
X135939177Y-46388057D01*
X135987454Y-46452546D01*
X136102669Y-46538796D01*
X136237517Y-46589091D01*
X136297127Y-46595500D01*
X136412500Y-46595499D01*
X136474499Y-46612111D01*
X136519887Y-46657499D01*
X136536500Y-46719499D01*
X136536500Y-47339560D01*
X136536500Y-47339578D01*
X136536501Y-47342872D01*
X136536853Y-47346150D01*
X136536854Y-47346161D01*
X136542079Y-47394768D01*
X136542080Y-47394773D01*
X136542909Y-47402483D01*
X136545619Y-47409749D01*
X136545620Y-47409753D01*
X136563878Y-47458704D01*
X136593204Y-47537331D01*
X136598518Y-47544430D01*
X136598519Y-47544431D01*
X136642945Y-47603777D01*
X136679454Y-47652546D01*
X136794669Y-47738796D01*
X136929517Y-47789091D01*
X136989127Y-47795500D01*
X138484872Y-47795499D01*
X138544483Y-47789091D01*
X138679331Y-47738796D01*
X138794546Y-47652546D01*
X138880796Y-47537331D01*
X138931091Y-47402483D01*
X138937500Y-47342873D01*
X138937499Y-46580451D01*
X138946938Y-46532999D01*
X138973815Y-46492774D01*
X139514760Y-45951829D01*
X141015001Y-45951829D01*
X141015321Y-45958111D01*
X141024805Y-46050959D01*
X141027623Y-46064122D01*
X141078370Y-46217267D01*
X141084432Y-46230266D01*
X141168890Y-46367194D01*
X141177794Y-46378455D01*
X141291544Y-46492205D01*
X141302805Y-46501109D01*
X141439733Y-46585567D01*
X141452732Y-46591629D01*
X141605874Y-46642375D01*
X141619041Y-46645194D01*
X141711890Y-46654680D01*
X141718168Y-46655000D01*
X141973674Y-46655000D01*
X141986549Y-46651549D01*
X141990000Y-46638674D01*
X141990000Y-46638673D01*
X142490000Y-46638673D01*
X142493450Y-46651548D01*
X142506326Y-46654999D01*
X142761829Y-46654999D01*
X142768111Y-46654678D01*
X142860959Y-46645194D01*
X142874122Y-46642376D01*
X143027267Y-46591629D01*
X143040266Y-46585567D01*
X143177194Y-46501109D01*
X143188455Y-46492205D01*
X143302205Y-46378455D01*
X143311109Y-46367194D01*
X143395567Y-46230266D01*
X143401629Y-46217267D01*
X143452375Y-46064125D01*
X143455194Y-46050958D01*
X143464680Y-45958109D01*
X143465000Y-45951832D01*
X143465000Y-45833826D01*
X143461549Y-45820950D01*
X143448674Y-45817500D01*
X142506326Y-45817500D01*
X142493450Y-45820950D01*
X142490000Y-45833826D01*
X142490000Y-46638673D01*
X141990000Y-46638673D01*
X141990000Y-45833826D01*
X141986549Y-45820950D01*
X141973674Y-45817500D01*
X141031327Y-45817500D01*
X141018451Y-45820950D01*
X141015001Y-45833826D01*
X141015001Y-45951829D01*
X139514760Y-45951829D01*
X140399771Y-45066819D01*
X140440000Y-45039939D01*
X140487453Y-45030500D01*
X140892962Y-45030500D01*
X140958571Y-45049279D01*
X141004308Y-45099927D01*
X141016320Y-45167105D01*
X141015319Y-45176896D01*
X141015000Y-45183168D01*
X141015000Y-45301174D01*
X141018450Y-45314049D01*
X141031326Y-45317500D01*
X143448673Y-45317500D01*
X143461548Y-45314049D01*
X143464999Y-45301174D01*
X143464999Y-45183171D01*
X143464679Y-45176895D01*
X143460145Y-45132517D01*
X143466196Y-45079725D01*
X143493788Y-45034313D01*
X143537856Y-45004621D01*
X143550573Y-44999586D01*
X143561623Y-44995802D01*
X143603563Y-44983618D01*
X143620802Y-44973422D01*
X143638276Y-44964862D01*
X143649647Y-44960360D01*
X143649649Y-44960358D01*
X143656905Y-44957486D01*
X143692242Y-44931811D01*
X143701997Y-44925403D01*
X143739593Y-44903170D01*
X143753757Y-44889005D01*
X143768552Y-44876368D01*
X143784760Y-44864594D01*
X143812601Y-44830938D01*
X143820452Y-44822309D01*
X144142313Y-44500448D01*
X144150480Y-44493017D01*
X144156877Y-44488959D01*
X144202918Y-44439929D01*
X144205535Y-44437227D01*
X144225120Y-44417644D01*
X144227585Y-44414465D01*
X144235167Y-44405589D01*
X144236021Y-44404680D01*
X144265062Y-44373755D01*
X144274713Y-44356196D01*
X144285390Y-44339943D01*
X144297673Y-44324109D01*
X144315018Y-44284025D01*
X144320151Y-44273544D01*
X144341197Y-44235265D01*
X144346179Y-44215857D01*
X144352482Y-44197449D01*
X144360437Y-44179069D01*
X144367271Y-44135917D01*
X144369633Y-44124511D01*
X144380500Y-44082192D01*
X144380500Y-44062156D01*
X144382027Y-44042758D01*
X144383939Y-44030686D01*
X144383938Y-44030686D01*
X144385160Y-44022977D01*
X144381050Y-43979497D01*
X144380500Y-43967828D01*
X144380500Y-43917401D01*
X144399726Y-43851080D01*
X144451442Y-43805326D01*
X144519612Y-43794325D01*
X144583095Y-43821490D01*
X144622206Y-43878397D01*
X144643370Y-43942267D01*
X144649432Y-43955266D01*
X144733890Y-44092194D01*
X144742794Y-44103455D01*
X144856544Y-44217205D01*
X144867805Y-44226109D01*
X145004733Y-44310567D01*
X145017732Y-44316629D01*
X145170874Y-44367375D01*
X145184041Y-44370194D01*
X145276890Y-44379680D01*
X145283168Y-44380000D01*
X145413674Y-44380000D01*
X145426549Y-44376549D01*
X145430000Y-44363674D01*
X145430000Y-43054000D01*
X145446613Y-42992000D01*
X145492000Y-42946613D01*
X145554000Y-42930000D01*
X145806000Y-42930000D01*
X145868000Y-42946613D01*
X145913387Y-42992000D01*
X145930000Y-43054000D01*
X145930000Y-44363673D01*
X145933450Y-44376548D01*
X145946326Y-44379999D01*
X146076829Y-44379999D01*
X146083111Y-44379678D01*
X146175959Y-44370194D01*
X146189122Y-44367376D01*
X146342267Y-44316629D01*
X146355266Y-44310567D01*
X146492200Y-44226106D01*
X146493587Y-44225010D01*
X146494753Y-44224531D01*
X146498344Y-44222317D01*
X146498709Y-44222909D01*
X146556997Y-44199011D01*
X146624531Y-44210665D01*
X146675562Y-44256410D01*
X146694500Y-44322274D01*
X146694500Y-45021313D01*
X146686264Y-45065751D01*
X146662650Y-45104285D01*
X146591813Y-45182956D01*
X146591808Y-45182962D01*
X146587467Y-45187784D01*
X146584222Y-45193404D01*
X146584218Y-45193410D01*
X146496069Y-45346089D01*
X146496066Y-45346094D01*
X146492821Y-45351716D01*
X146490815Y-45357888D01*
X146490813Y-45357894D01*
X146436333Y-45525564D01*
X146436331Y-45525573D01*
X146434326Y-45531744D01*
X146433648Y-45538194D01*
X146433646Y-45538204D01*
X146418218Y-45685001D01*
X146414540Y-45720000D01*
X146415219Y-45726460D01*
X146433646Y-45901795D01*
X146433647Y-45901803D01*
X146434326Y-45908256D01*
X146436331Y-45914428D01*
X146436333Y-45914435D01*
X146473415Y-46028559D01*
X146492821Y-46088284D01*
X146496068Y-46093908D01*
X146496069Y-46093910D01*
X146558753Y-46202483D01*
X146587467Y-46252216D01*
X146591811Y-46257041D01*
X146591813Y-46257043D01*
X146707018Y-46384991D01*
X146714129Y-46392888D01*
X146719387Y-46396708D01*
X146719388Y-46396709D01*
X146782749Y-46442743D01*
X146867270Y-46504151D01*
X147040197Y-46581144D01*
X147225354Y-46620500D01*
X147408143Y-46620500D01*
X147414646Y-46620500D01*
X147599803Y-46581144D01*
X147772730Y-46504151D01*
X147925871Y-46392888D01*
X148052533Y-46252216D01*
X148147179Y-46088284D01*
X148205674Y-45908256D01*
X148225460Y-45720000D01*
X148205674Y-45531744D01*
X148147179Y-45351716D01*
X148052533Y-45187784D01*
X148042729Y-45176896D01*
X147977350Y-45104285D01*
X147953736Y-45065751D01*
X147945500Y-45021313D01*
X147945500Y-44504499D01*
X147962113Y-44442499D01*
X148007500Y-44397112D01*
X148069500Y-44380499D01*
X148076859Y-44380499D01*
X148080008Y-44380499D01*
X148182797Y-44369999D01*
X148349334Y-44314814D01*
X148498656Y-44222712D01*
X148622712Y-44098656D01*
X148714814Y-43949334D01*
X148769999Y-43782797D01*
X148780500Y-43680009D01*
X148780499Y-43284450D01*
X148794014Y-43228157D01*
X148831613Y-43184134D01*
X148885101Y-43161979D01*
X148942817Y-43166521D01*
X148992180Y-43196771D01*
X149048181Y-43252772D01*
X149075061Y-43293000D01*
X149084500Y-43340453D01*
X149084500Y-43701858D01*
X149084500Y-43701877D01*
X149084501Y-43705008D01*
X149084820Y-43708140D01*
X149084821Y-43708141D01*
X149094312Y-43801061D01*
X149094313Y-43801069D01*
X149095001Y-43807797D01*
X149097129Y-43814219D01*
X149097130Y-43814223D01*
X149131320Y-43917401D01*
X149150186Y-43974334D01*
X149153975Y-43980477D01*
X149153977Y-43980481D01*
X149216039Y-44081100D01*
X149234500Y-44146196D01*
X149234500Y-45943804D01*
X149216039Y-46008900D01*
X149153977Y-46109518D01*
X149153973Y-46109525D01*
X149150186Y-46115666D01*
X149147915Y-46122517D01*
X149147914Y-46122521D01*
X149103338Y-46257043D01*
X149095001Y-46282203D01*
X149094313Y-46288933D01*
X149094312Y-46288940D01*
X149084819Y-46381859D01*
X149084818Y-46381877D01*
X149084500Y-46384991D01*
X149084500Y-46388138D01*
X149084500Y-46388139D01*
X149084500Y-47431859D01*
X149084500Y-47431878D01*
X149084501Y-47435008D01*
X149084820Y-47438140D01*
X149084821Y-47438141D01*
X149094312Y-47531061D01*
X149094313Y-47531069D01*
X149095001Y-47537797D01*
X149097129Y-47544219D01*
X149097130Y-47544223D01*
X149147844Y-47697267D01*
X149150186Y-47704334D01*
X149153975Y-47710477D01*
X149153977Y-47710481D01*
X149216039Y-47811100D01*
X149234500Y-47876196D01*
X149234500Y-49833804D01*
X149216039Y-49898900D01*
X149153977Y-49999518D01*
X149153973Y-49999525D01*
X149150186Y-50005666D01*
X149147915Y-50012517D01*
X149147914Y-50012521D01*
X149101637Y-50152176D01*
X149095001Y-50172203D01*
X149094313Y-50178933D01*
X149094312Y-50178940D01*
X149084819Y-50271859D01*
X149084818Y-50271877D01*
X149084500Y-50274991D01*
X149084500Y-50278140D01*
X149084500Y-50319546D01*
X149075061Y-50366999D01*
X149048181Y-50407227D01*
X145771253Y-53684154D01*
X145724840Y-53713404D01*
X145674528Y-53719278D01*
X145674488Y-53720033D01*
X145671180Y-53719855D01*
X145667873Y-53719500D01*
X145664550Y-53719500D01*
X144375439Y-53719500D01*
X144375420Y-53719500D01*
X144372128Y-53719501D01*
X144368850Y-53719853D01*
X144368838Y-53719854D01*
X144320231Y-53725079D01*
X144320225Y-53725080D01*
X144312517Y-53725909D01*
X144305252Y-53728618D01*
X144305246Y-53728620D01*
X144185980Y-53773104D01*
X144185978Y-53773104D01*
X144177669Y-53776204D01*
X144170572Y-53781516D01*
X144170568Y-53781519D01*
X144069550Y-53857141D01*
X144069546Y-53857144D01*
X144062454Y-53862454D01*
X144057144Y-53869546D01*
X144057141Y-53869550D01*
X143981519Y-53970568D01*
X143981516Y-53970572D01*
X143976204Y-53977669D01*
X143973104Y-53985978D01*
X143973104Y-53985980D01*
X143928620Y-54105247D01*
X143928619Y-54105250D01*
X143925909Y-54112517D01*
X143925079Y-54120227D01*
X143925079Y-54120232D01*
X143919855Y-54168819D01*
X143919854Y-54168831D01*
X143919500Y-54172127D01*
X143919500Y-54175448D01*
X143919500Y-54175449D01*
X143919500Y-56464560D01*
X143919500Y-56464578D01*
X143919501Y-56467872D01*
X143919853Y-56471150D01*
X143919854Y-56471161D01*
X143925079Y-56519768D01*
X143925080Y-56519773D01*
X143925909Y-56527483D01*
X143928619Y-56534749D01*
X143928620Y-56534753D01*
X143959210Y-56616767D01*
X143976204Y-56662331D01*
X144062454Y-56777546D01*
X144177669Y-56863796D01*
X144312517Y-56914091D01*
X144372127Y-56920500D01*
X145667872Y-56920499D01*
X145727483Y-56914091D01*
X145862331Y-56863796D01*
X145977546Y-56777546D01*
X146063796Y-56662331D01*
X146064126Y-56661444D01*
X146106725Y-56617296D01*
X146170000Y-56599937D01*
X146233275Y-56617296D01*
X146275873Y-56661444D01*
X146276204Y-56662331D01*
X146362454Y-56777546D01*
X146477669Y-56863796D01*
X146576228Y-56900556D01*
X146612517Y-56914091D01*
X146611752Y-56916140D01*
X146648307Y-56934033D01*
X146682357Y-56977068D01*
X146694500Y-57030584D01*
X146694500Y-59795501D01*
X146677887Y-59857501D01*
X146632500Y-59902888D01*
X146570500Y-59919501D01*
X145522128Y-59919501D01*
X145518850Y-59919853D01*
X145518838Y-59919854D01*
X145470231Y-59925079D01*
X145470225Y-59925080D01*
X145462517Y-59925909D01*
X145455252Y-59928618D01*
X145455246Y-59928620D01*
X145335980Y-59973104D01*
X145335978Y-59973104D01*
X145327669Y-59976204D01*
X145320572Y-59981516D01*
X145320568Y-59981519D01*
X145219550Y-60057141D01*
X145219546Y-60057144D01*
X145212454Y-60062454D01*
X145207144Y-60069546D01*
X145207141Y-60069550D01*
X145131519Y-60170568D01*
X145131516Y-60170572D01*
X145126204Y-60177669D01*
X145123104Y-60185978D01*
X145123104Y-60185980D01*
X145078620Y-60305247D01*
X145078619Y-60305250D01*
X145075909Y-60312517D01*
X145075079Y-60320227D01*
X145075079Y-60320232D01*
X145069855Y-60368819D01*
X145069854Y-60368831D01*
X145069500Y-60372127D01*
X145069500Y-60375449D01*
X145069500Y-60770500D01*
X145052887Y-60832500D01*
X145007500Y-60877887D01*
X144945500Y-60894500D01*
X135490453Y-60894500D01*
X135443000Y-60885061D01*
X135402772Y-60858181D01*
X130201819Y-55657228D01*
X130174939Y-55617000D01*
X130165500Y-55569547D01*
X130165500Y-54554188D01*
X130179511Y-54496931D01*
X130218377Y-54452613D01*
X130288852Y-54403266D01*
X130379139Y-54340047D01*
X130540047Y-54179139D01*
X130670568Y-53992734D01*
X130766739Y-53786496D01*
X130825635Y-53566692D01*
X130845468Y-53340000D01*
X130825635Y-53113308D01*
X130766739Y-52893504D01*
X130764908Y-52889578D01*
X133719500Y-52889578D01*
X133719501Y-52892872D01*
X133719853Y-52896150D01*
X133719854Y-52896161D01*
X133725079Y-52944768D01*
X133725080Y-52944773D01*
X133725909Y-52952483D01*
X133728619Y-52959749D01*
X133728620Y-52959753D01*
X133762217Y-53049831D01*
X133776204Y-53087331D01*
X133862454Y-53202546D01*
X133977669Y-53288796D01*
X134112517Y-53339091D01*
X134172127Y-53345500D01*
X135117872Y-53345499D01*
X135177483Y-53339091D01*
X135312331Y-53288796D01*
X135427546Y-53202546D01*
X135513796Y-53087331D01*
X135564091Y-52952483D01*
X135570500Y-52892873D01*
X135570500Y-52889578D01*
X135844500Y-52889578D01*
X135844501Y-52892872D01*
X135844853Y-52896150D01*
X135844854Y-52896161D01*
X135850079Y-52944768D01*
X135850080Y-52944773D01*
X135850909Y-52952483D01*
X135853619Y-52959749D01*
X135853620Y-52959753D01*
X135887217Y-53049831D01*
X135901204Y-53087331D01*
X135987454Y-53202546D01*
X136102669Y-53288796D01*
X136237517Y-53339091D01*
X136297127Y-53345500D01*
X137242872Y-53345499D01*
X137302483Y-53339091D01*
X137437331Y-53288796D01*
X137552546Y-53202546D01*
X137638796Y-53087331D01*
X137689091Y-52952483D01*
X137695500Y-52892873D01*
X137695499Y-52419498D01*
X137712112Y-52357499D01*
X137757499Y-52312112D01*
X137819499Y-52295499D01*
X138481561Y-52295499D01*
X138484872Y-52295499D01*
X138544483Y-52289091D01*
X138679331Y-52238796D01*
X138794546Y-52152546D01*
X138880796Y-52037331D01*
X138931091Y-51902483D01*
X138937500Y-51842873D01*
X138937499Y-50847128D01*
X138931091Y-50787517D01*
X138880796Y-50652669D01*
X138879156Y-50650479D01*
X138864862Y-50594472D01*
X138880032Y-50535043D01*
X138883451Y-50528780D01*
X138927888Y-50409641D01*
X138931426Y-50394667D01*
X138936646Y-50346114D01*
X138937000Y-50339518D01*
X138937000Y-50111326D01*
X138933549Y-50098450D01*
X138920674Y-50095000D01*
X136553326Y-50095000D01*
X136540450Y-50098450D01*
X136537000Y-50111326D01*
X136537000Y-50339518D01*
X136537353Y-50346114D01*
X136542573Y-50394667D01*
X136546111Y-50409641D01*
X136590547Y-50528779D01*
X136593971Y-50535049D01*
X136609137Y-50594472D01*
X136594843Y-50650478D01*
X136593204Y-50652669D01*
X136590106Y-50660975D01*
X136590105Y-50660977D01*
X136545620Y-50780247D01*
X136545619Y-50780250D01*
X136542909Y-50787517D01*
X136542079Y-50795227D01*
X136542079Y-50795232D01*
X136536855Y-50843819D01*
X136536854Y-50843831D01*
X136536500Y-50847127D01*
X136536500Y-50850449D01*
X136536500Y-51470501D01*
X136519887Y-51532501D01*
X136474500Y-51577888D01*
X136412501Y-51594500D01*
X136297128Y-51594501D01*
X136293850Y-51594853D01*
X136293838Y-51594854D01*
X136245231Y-51600079D01*
X136245225Y-51600080D01*
X136237517Y-51600909D01*
X136230252Y-51603618D01*
X136230246Y-51603620D01*
X136110980Y-51648104D01*
X136110978Y-51648104D01*
X136102669Y-51651204D01*
X136095572Y-51656516D01*
X136095568Y-51656519D01*
X135994550Y-51732141D01*
X135994546Y-51732144D01*
X135987454Y-51737454D01*
X135982144Y-51744546D01*
X135982141Y-51744550D01*
X135906519Y-51845568D01*
X135906516Y-51845572D01*
X135901204Y-51852669D01*
X135898104Y-51860978D01*
X135898104Y-51860980D01*
X135853620Y-51980247D01*
X135853619Y-51980250D01*
X135850909Y-51987517D01*
X135850079Y-51995227D01*
X135850079Y-51995232D01*
X135844855Y-52043819D01*
X135844854Y-52043831D01*
X135844500Y-52047127D01*
X135844500Y-52050448D01*
X135844500Y-52050449D01*
X135844500Y-52889560D01*
X135844500Y-52889578D01*
X135570500Y-52889578D01*
X135570499Y-52047128D01*
X135564091Y-51987517D01*
X135513796Y-51852669D01*
X135427546Y-51737454D01*
X135352901Y-51681575D01*
X135319431Y-51656519D01*
X135319430Y-51656518D01*
X135312331Y-51651204D01*
X135177483Y-51600909D01*
X135169770Y-51600079D01*
X135169767Y-51600079D01*
X135121180Y-51594855D01*
X135121169Y-51594854D01*
X135117873Y-51594500D01*
X135114550Y-51594500D01*
X134175439Y-51594500D01*
X134175420Y-51594500D01*
X134172128Y-51594501D01*
X134168850Y-51594853D01*
X134168838Y-51594854D01*
X134120231Y-51600079D01*
X134120225Y-51600080D01*
X134112517Y-51600909D01*
X134105252Y-51603618D01*
X134105246Y-51603620D01*
X133985980Y-51648104D01*
X133985978Y-51648104D01*
X133977669Y-51651204D01*
X133970572Y-51656516D01*
X133970568Y-51656519D01*
X133869550Y-51732141D01*
X133869546Y-51732144D01*
X133862454Y-51737454D01*
X133857144Y-51744546D01*
X133857141Y-51744550D01*
X133781519Y-51845568D01*
X133781516Y-51845572D01*
X133776204Y-51852669D01*
X133773104Y-51860978D01*
X133773104Y-51860980D01*
X133728620Y-51980247D01*
X133728619Y-51980250D01*
X133725909Y-51987517D01*
X133725079Y-51995227D01*
X133725079Y-51995232D01*
X133719855Y-52043819D01*
X133719854Y-52043831D01*
X133719500Y-52047127D01*
X133719500Y-52050448D01*
X133719500Y-52050449D01*
X133719500Y-52889560D01*
X133719500Y-52889578D01*
X130764908Y-52889578D01*
X130670568Y-52687266D01*
X130540047Y-52500861D01*
X130379139Y-52339953D01*
X130302627Y-52286379D01*
X130197173Y-52212540D01*
X130197171Y-52212539D01*
X130192734Y-52209432D01*
X130134724Y-52182381D01*
X130082549Y-52136625D01*
X130063130Y-52070000D01*
X130082549Y-52003375D01*
X130134725Y-51957618D01*
X130192734Y-51930568D01*
X130379139Y-51800047D01*
X130540047Y-51639139D01*
X130670568Y-51452734D01*
X130766739Y-51246496D01*
X130825635Y-51026692D01*
X130845468Y-50800000D01*
X130827533Y-50595000D01*
X135239867Y-50595000D01*
X135241129Y-50603777D01*
X135257040Y-50714446D01*
X135257041Y-50714450D01*
X135258303Y-50723226D01*
X135261987Y-50731294D01*
X135261988Y-50731295D01*
X135308434Y-50832998D01*
X135308436Y-50833002D01*
X135312118Y-50841063D01*
X135317920Y-50847759D01*
X135317922Y-50847762D01*
X135381638Y-50921294D01*
X135396951Y-50938967D01*
X135505931Y-51009004D01*
X135630228Y-51045500D01*
X135750901Y-51045500D01*
X135759772Y-51045500D01*
X135884069Y-51009004D01*
X135993049Y-50938967D01*
X136077882Y-50841063D01*
X136131697Y-50723226D01*
X136150133Y-50595000D01*
X136131697Y-50466774D01*
X136077882Y-50348937D01*
X135993049Y-50251033D01*
X135985589Y-50246238D01*
X135985587Y-50246237D01*
X135938558Y-50216014D01*
X135884069Y-50180996D01*
X135875555Y-50178496D01*
X135768284Y-50146999D01*
X135768282Y-50146998D01*
X135759772Y-50144500D01*
X135630228Y-50144500D01*
X135621718Y-50146998D01*
X135621715Y-50146999D01*
X135514444Y-50178496D01*
X135514441Y-50178497D01*
X135505931Y-50180996D01*
X135498468Y-50185791D01*
X135498468Y-50185792D01*
X135404412Y-50246237D01*
X135404406Y-50246241D01*
X135396951Y-50251033D01*
X135391146Y-50257732D01*
X135391143Y-50257735D01*
X135317922Y-50342237D01*
X135317917Y-50342243D01*
X135312118Y-50348937D01*
X135308438Y-50356994D01*
X135308434Y-50357001D01*
X135261988Y-50458704D01*
X135258303Y-50466774D01*
X135257041Y-50475547D01*
X135257040Y-50475553D01*
X135248141Y-50537454D01*
X135239867Y-50595000D01*
X130827533Y-50595000D01*
X130825635Y-50573308D01*
X130797515Y-50468361D01*
X130768141Y-50358736D01*
X130768140Y-50358734D01*
X130766739Y-50353504D01*
X130670568Y-50147266D01*
X130540047Y-49960861D01*
X130379139Y-49799953D01*
X130289793Y-49737393D01*
X130197173Y-49672540D01*
X130197171Y-49672539D01*
X130192734Y-49669432D01*
X130134724Y-49642381D01*
X130082549Y-49596625D01*
X130077317Y-49578674D01*
X136537000Y-49578674D01*
X136540450Y-49591549D01*
X136553326Y-49595000D01*
X137470674Y-49595000D01*
X137483549Y-49591549D01*
X137487000Y-49578674D01*
X137987000Y-49578674D01*
X137990450Y-49591549D01*
X138003326Y-49595000D01*
X138920674Y-49595000D01*
X138933549Y-49591549D01*
X138937000Y-49578674D01*
X138937000Y-49350482D01*
X138936646Y-49343885D01*
X138931426Y-49295332D01*
X138927888Y-49280358D01*
X138883452Y-49161222D01*
X138875037Y-49145810D01*
X138799501Y-49044907D01*
X138787092Y-49032498D01*
X138686189Y-48956962D01*
X138670777Y-48948547D01*
X138551641Y-48904111D01*
X138536667Y-48900573D01*
X138488114Y-48895353D01*
X138481518Y-48895000D01*
X138003326Y-48895000D01*
X137990450Y-48898450D01*
X137987000Y-48911326D01*
X137987000Y-49578674D01*
X137487000Y-49578674D01*
X137487000Y-48911326D01*
X137483549Y-48898450D01*
X137470674Y-48895000D01*
X136992482Y-48895000D01*
X136985885Y-48895353D01*
X136937332Y-48900573D01*
X136922358Y-48904111D01*
X136803222Y-48948547D01*
X136787810Y-48956962D01*
X136686907Y-49032498D01*
X136674498Y-49044907D01*
X136598962Y-49145810D01*
X136590547Y-49161222D01*
X136546111Y-49280358D01*
X136542573Y-49295332D01*
X136537353Y-49343885D01*
X136537000Y-49350482D01*
X136537000Y-49578674D01*
X130077317Y-49578674D01*
X130063130Y-49530000D01*
X130082549Y-49463375D01*
X130134725Y-49417618D01*
X130192734Y-49390568D01*
X130379139Y-49260047D01*
X130540047Y-49099139D01*
X130670568Y-48912734D01*
X130766739Y-48706496D01*
X130825635Y-48486692D01*
X130845468Y-48260000D01*
X130825635Y-48033308D01*
X130819792Y-48011503D01*
X130768141Y-47818736D01*
X130768140Y-47818734D01*
X130766739Y-47813504D01*
X130670568Y-47607266D01*
X130661979Y-47595000D01*
X135239867Y-47595000D01*
X135241129Y-47603777D01*
X135257040Y-47714446D01*
X135257041Y-47714450D01*
X135258303Y-47723226D01*
X135261987Y-47731294D01*
X135261988Y-47731295D01*
X135308434Y-47832998D01*
X135308436Y-47833002D01*
X135312118Y-47841063D01*
X135317920Y-47847759D01*
X135317922Y-47847762D01*
X135327453Y-47858761D01*
X135396951Y-47938967D01*
X135505931Y-48009004D01*
X135630228Y-48045500D01*
X135750901Y-48045500D01*
X135759772Y-48045500D01*
X135884069Y-48009004D01*
X135993049Y-47938967D01*
X136077882Y-47841063D01*
X136131697Y-47723226D01*
X136150133Y-47595000D01*
X136131697Y-47466774D01*
X136077882Y-47348937D01*
X136069748Y-47339550D01*
X135998856Y-47257735D01*
X135993049Y-47251033D01*
X135985589Y-47246238D01*
X135985587Y-47246237D01*
X135938558Y-47216014D01*
X135884069Y-47180996D01*
X135875555Y-47178496D01*
X135768284Y-47146999D01*
X135768282Y-47146998D01*
X135759772Y-47144500D01*
X135630228Y-47144500D01*
X135621718Y-47146998D01*
X135621715Y-47146999D01*
X135514444Y-47178496D01*
X135514441Y-47178497D01*
X135505931Y-47180996D01*
X135498468Y-47185791D01*
X135498468Y-47185792D01*
X135404412Y-47246237D01*
X135404406Y-47246241D01*
X135396951Y-47251033D01*
X135391146Y-47257732D01*
X135391143Y-47257735D01*
X135317922Y-47342237D01*
X135317917Y-47342243D01*
X135312118Y-47348937D01*
X135308438Y-47356994D01*
X135308434Y-47357001D01*
X135271379Y-47438141D01*
X135258303Y-47466774D01*
X135257041Y-47475547D01*
X135257040Y-47475553D01*
X135242369Y-47577593D01*
X135239867Y-47595000D01*
X130661979Y-47595000D01*
X130540047Y-47420861D01*
X130379139Y-47259953D01*
X130192734Y-47129432D01*
X130187831Y-47127145D01*
X130187823Y-47127141D01*
X130134134Y-47102106D01*
X130081958Y-47056349D01*
X130062539Y-46989723D01*
X130081959Y-46923098D01*
X130134135Y-46877341D01*
X130187585Y-46852417D01*
X130196912Y-46847032D01*
X130374381Y-46722767D01*
X130382647Y-46715830D01*
X130535830Y-46562647D01*
X130542767Y-46554381D01*
X130667032Y-46376912D01*
X130672420Y-46367580D01*
X130763977Y-46171234D01*
X130767669Y-46161092D01*
X130815179Y-45983780D01*
X130815547Y-45972551D01*
X130804605Y-45970000D01*
X128275395Y-45970000D01*
X128264452Y-45972551D01*
X128264820Y-45983780D01*
X128312330Y-46161092D01*
X128316022Y-46171234D01*
X128407579Y-46367580D01*
X128412967Y-46376912D01*
X128537232Y-46554381D01*
X128544169Y-46562647D01*
X128697352Y-46715830D01*
X128705618Y-46722767D01*
X128883087Y-46847032D01*
X128892423Y-46852422D01*
X128945864Y-46877342D01*
X128998040Y-46923098D01*
X129017460Y-46989723D01*
X128998041Y-47056348D01*
X128945865Y-47102106D01*
X128887266Y-47129432D01*
X128882833Y-47132535D01*
X128882826Y-47132540D01*
X128705296Y-47256847D01*
X128705291Y-47256850D01*
X128700861Y-47259953D01*
X128697037Y-47263776D01*
X128697031Y-47263782D01*
X128543782Y-47417031D01*
X128543776Y-47417037D01*
X128539953Y-47420861D01*
X128536850Y-47425291D01*
X128536847Y-47425296D01*
X128412540Y-47602826D01*
X128412535Y-47602833D01*
X128409432Y-47607266D01*
X128407144Y-47612172D01*
X128407142Y-47612176D01*
X128315550Y-47808594D01*
X128315547Y-47808599D01*
X128313261Y-47813504D01*
X128311862Y-47818724D01*
X128311858Y-47818736D01*
X128255764Y-48028083D01*
X128255762Y-48028094D01*
X128254365Y-48033308D01*
X128253893Y-48038693D01*
X128253893Y-48038698D01*
X128236104Y-48242032D01*
X128234532Y-48260000D01*
X128235004Y-48265395D01*
X128248265Y-48416976D01*
X128254365Y-48486692D01*
X128255762Y-48491907D01*
X128255764Y-48491916D01*
X128311858Y-48701263D01*
X128311861Y-48701271D01*
X128313261Y-48706496D01*
X128315549Y-48711403D01*
X128315550Y-48711405D01*
X128337470Y-48758413D01*
X128409432Y-48912734D01*
X128412539Y-48917171D01*
X128412540Y-48917173D01*
X128431349Y-48944035D01*
X128539953Y-49099139D01*
X128700861Y-49260047D01*
X128887266Y-49390568D01*
X128892172Y-49392855D01*
X128892176Y-49392858D01*
X128945274Y-49417618D01*
X128997450Y-49463375D01*
X129016869Y-49530000D01*
X128997450Y-49596625D01*
X128945274Y-49642382D01*
X128892176Y-49667141D01*
X128892163Y-49667148D01*
X128887266Y-49669432D01*
X128882833Y-49672535D01*
X128882826Y-49672540D01*
X128705296Y-49796847D01*
X128705291Y-49796850D01*
X128700861Y-49799953D01*
X128697037Y-49803776D01*
X128697031Y-49803782D01*
X128543782Y-49957031D01*
X128543776Y-49957037D01*
X128539953Y-49960861D01*
X128536850Y-49965291D01*
X128536847Y-49965296D01*
X128412540Y-50142826D01*
X128412535Y-50142833D01*
X128409432Y-50147266D01*
X128407144Y-50152172D01*
X128407142Y-50152176D01*
X128315550Y-50348594D01*
X128315547Y-50348599D01*
X128313261Y-50353504D01*
X128311862Y-50358724D01*
X128311858Y-50358736D01*
X128255764Y-50568083D01*
X128255762Y-50568094D01*
X128254365Y-50573308D01*
X128253893Y-50578693D01*
X128253893Y-50578698D01*
X128242017Y-50714446D01*
X128234532Y-50800000D01*
X128235004Y-50805395D01*
X128252397Y-51004207D01*
X128254365Y-51026692D01*
X128255762Y-51031907D01*
X128255764Y-51031916D01*
X128311858Y-51241263D01*
X128311861Y-51241271D01*
X128313261Y-51246496D01*
X128409432Y-51452734D01*
X128539953Y-51639139D01*
X128700861Y-51800047D01*
X128887266Y-51930568D01*
X128892172Y-51932855D01*
X128892176Y-51932858D01*
X128945274Y-51957618D01*
X128997450Y-52003375D01*
X129016869Y-52070000D01*
X128997450Y-52136625D01*
X128945274Y-52182382D01*
X128892176Y-52207141D01*
X128892163Y-52207148D01*
X128887266Y-52209432D01*
X128882833Y-52212535D01*
X128882826Y-52212540D01*
X128705296Y-52336847D01*
X128705291Y-52336850D01*
X128700861Y-52339953D01*
X128697037Y-52343776D01*
X128697031Y-52343782D01*
X128543782Y-52497031D01*
X128543776Y-52497037D01*
X128539953Y-52500861D01*
X128536850Y-52505291D01*
X128536847Y-52505296D01*
X128412540Y-52682826D01*
X128412535Y-52682833D01*
X128409432Y-52687266D01*
X128407144Y-52692172D01*
X128407142Y-52692176D01*
X128315550Y-52888594D01*
X128315547Y-52888599D01*
X128313261Y-52893504D01*
X128311862Y-52898724D01*
X128311858Y-52898736D01*
X128255764Y-53108083D01*
X128255762Y-53108094D01*
X128254365Y-53113308D01*
X128253893Y-53118693D01*
X128253893Y-53118698D01*
X128246093Y-53207858D01*
X128234532Y-53340000D01*
X128235004Y-53345395D01*
X128239737Y-53399500D01*
X128254365Y-53566692D01*
X128255762Y-53571907D01*
X128255764Y-53571916D01*
X128311858Y-53781263D01*
X128311861Y-53781271D01*
X128313261Y-53786496D01*
X128315549Y-53791403D01*
X128315550Y-53791405D01*
X128346370Y-53857498D01*
X128409432Y-53992734D01*
X128412539Y-53997171D01*
X128412540Y-53997173D01*
X128457473Y-54061344D01*
X128539953Y-54179139D01*
X128700861Y-54340047D01*
X128763547Y-54383940D01*
X128861623Y-54452613D01*
X128900489Y-54496931D01*
X128914500Y-54554188D01*
X128914500Y-55802225D01*
X128913978Y-55813280D01*
X128912327Y-55820667D01*
X128912571Y-55828453D01*
X128912571Y-55828461D01*
X128914439Y-55887873D01*
X128914500Y-55891768D01*
X128914500Y-55919350D01*
X128914988Y-55923219D01*
X128914989Y-55923225D01*
X128915004Y-55923343D01*
X128915918Y-55934966D01*
X128917045Y-55970830D01*
X128917046Y-55970837D01*
X128917291Y-55978627D01*
X128919467Y-55986119D01*
X128919468Y-55986121D01*
X128922879Y-55997862D01*
X128926825Y-56016915D01*
X128929336Y-56036792D01*
X128932206Y-56044042D01*
X128932208Y-56044048D01*
X128945414Y-56077404D01*
X128949197Y-56088451D01*
X128961382Y-56130390D01*
X128965353Y-56137105D01*
X128965354Y-56137107D01*
X128971581Y-56147637D01*
X128980136Y-56165099D01*
X128984642Y-56176480D01*
X128984643Y-56176483D01*
X128987514Y-56183732D01*
X129009440Y-56213912D01*
X129013181Y-56219060D01*
X129019593Y-56228822D01*
X129037856Y-56259702D01*
X129037859Y-56259707D01*
X129041830Y-56266420D01*
X129047344Y-56271934D01*
X129047345Y-56271935D01*
X129055990Y-56280580D01*
X129068626Y-56295374D01*
X129075819Y-56305275D01*
X129075823Y-56305279D01*
X129080406Y-56311587D01*
X129086415Y-56316558D01*
X129086416Y-56316559D01*
X129114058Y-56339426D01*
X129122699Y-56347289D01*
X134682707Y-61907298D01*
X134690159Y-61915487D01*
X134694214Y-61921877D01*
X134722445Y-61948388D01*
X134743223Y-61967900D01*
X134746020Y-61970611D01*
X134765529Y-61990120D01*
X134768709Y-61992587D01*
X134777571Y-62000155D01*
X134790880Y-62012654D01*
X134803732Y-62024723D01*
X134803734Y-62024724D01*
X134809418Y-62030062D01*
X134816251Y-62033818D01*
X134816252Y-62033819D01*
X134826973Y-62039713D01*
X134843234Y-62050394D01*
X134859064Y-62062673D01*
X134899155Y-62080021D01*
X134909635Y-62085155D01*
X134947908Y-62106197D01*
X134967316Y-62111180D01*
X134985719Y-62117481D01*
X134996944Y-62122339D01*
X134996946Y-62122339D01*
X135004104Y-62125437D01*
X135047258Y-62132271D01*
X135058644Y-62134629D01*
X135100981Y-62145500D01*
X135121017Y-62145500D01*
X135140415Y-62147027D01*
X135160196Y-62150160D01*
X135203671Y-62146049D01*
X135215342Y-62145500D01*
X144945501Y-62145500D01*
X145007501Y-62162113D01*
X145052888Y-62207500D01*
X145069501Y-62269500D01*
X145069501Y-62667872D01*
X145069853Y-62671150D01*
X145069854Y-62671161D01*
X145075079Y-62719768D01*
X145075080Y-62719773D01*
X145075909Y-62727483D01*
X145078619Y-62734749D01*
X145078620Y-62734753D01*
X145092703Y-62772511D01*
X145126204Y-62862331D01*
X145212454Y-62977546D01*
X145327669Y-63063796D01*
X145462517Y-63114091D01*
X145522127Y-63120500D01*
X149117872Y-63120499D01*
X149177483Y-63114091D01*
X149312331Y-63063796D01*
X149427546Y-62977546D01*
X149513796Y-62862331D01*
X149564091Y-62727483D01*
X149570500Y-62667873D01*
X149570500Y-62269500D01*
X149587113Y-62207500D01*
X149632500Y-62162113D01*
X149694500Y-62145500D01*
X151762225Y-62145500D01*
X151773280Y-62146021D01*
X151780667Y-62147673D01*
X151847872Y-62145561D01*
X151851768Y-62145500D01*
X151875448Y-62145500D01*
X151879350Y-62145500D01*
X151883313Y-62144999D01*
X151894963Y-62144080D01*
X151938627Y-62142709D01*
X151957861Y-62137119D01*
X151976917Y-62133174D01*
X151996792Y-62130664D01*
X152037395Y-62114587D01*
X152048450Y-62110802D01*
X152090390Y-62098618D01*
X152107629Y-62088422D01*
X152125103Y-62079862D01*
X152136474Y-62075360D01*
X152136476Y-62075358D01*
X152143732Y-62072486D01*
X152179069Y-62046811D01*
X152188824Y-62040403D01*
X152226420Y-62018170D01*
X152240584Y-62004005D01*
X152255379Y-61991368D01*
X152271587Y-61979594D01*
X152299428Y-61945938D01*
X152307279Y-61937309D01*
X152597771Y-61646818D01*
X152637999Y-61619938D01*
X152685452Y-61610499D01*
X152921859Y-61610499D01*
X152925008Y-61610499D01*
X153027797Y-61599999D01*
X153194334Y-61544814D01*
X153343656Y-61452712D01*
X153467712Y-61328656D01*
X153559814Y-61179334D01*
X153614999Y-61012797D01*
X153625500Y-60910009D01*
X153625499Y-60134992D01*
X153614999Y-60032203D01*
X153559814Y-59865666D01*
X153486863Y-59747393D01*
X153471502Y-59722488D01*
X153471500Y-59722485D01*
X153467712Y-59716344D01*
X153343656Y-59592288D01*
X153337511Y-59588498D01*
X153331843Y-59584016D01*
X153332990Y-59582564D01*
X153297157Y-59545129D01*
X153281440Y-59484689D01*
X153297174Y-59424253D01*
X153332738Y-59387119D01*
X153331529Y-59385590D01*
X153348455Y-59372205D01*
X153462205Y-59258455D01*
X153471109Y-59247194D01*
X153555567Y-59110266D01*
X153561629Y-59097267D01*
X153612375Y-58944125D01*
X153615194Y-58930958D01*
X153624680Y-58838109D01*
X153625000Y-58831832D01*
X153625000Y-58713826D01*
X153621549Y-58700950D01*
X153608674Y-58697500D01*
X151191327Y-58697500D01*
X151178451Y-58700950D01*
X151175001Y-58713826D01*
X151175001Y-58831829D01*
X151175321Y-58838111D01*
X151184805Y-58930959D01*
X151187623Y-58944122D01*
X151238370Y-59097267D01*
X151244432Y-59110266D01*
X151328890Y-59247194D01*
X151337794Y-59258455D01*
X151451544Y-59372205D01*
X151468471Y-59385590D01*
X151467263Y-59387117D01*
X151502829Y-59424262D01*
X151518559Y-59484689D01*
X151502845Y-59545122D01*
X151467010Y-59582566D01*
X151468157Y-59584016D01*
X151462486Y-59588499D01*
X151456344Y-59592288D01*
X151451242Y-59597389D01*
X151451238Y-59597393D01*
X151337393Y-59711238D01*
X151337389Y-59711242D01*
X151332288Y-59716344D01*
X151328503Y-59722480D01*
X151328497Y-59722488D01*
X151245222Y-59857501D01*
X151240186Y-59865666D01*
X151237915Y-59872517D01*
X151237914Y-59872521D01*
X151188209Y-60022521D01*
X151185001Y-60032203D01*
X151184313Y-60038933D01*
X151184312Y-60038940D01*
X151174819Y-60131859D01*
X151174818Y-60131877D01*
X151174500Y-60134991D01*
X151174500Y-60481757D01*
X151174501Y-60770500D01*
X151157888Y-60832500D01*
X151112501Y-60877887D01*
X151050501Y-60894500D01*
X149694499Y-60894500D01*
X149632499Y-60877887D01*
X149587112Y-60832500D01*
X149570499Y-60770500D01*
X149570499Y-60375439D01*
X149570499Y-60372128D01*
X149564091Y-60312517D01*
X149513796Y-60177669D01*
X149427546Y-60062454D01*
X149396135Y-60038940D01*
X149319431Y-59981519D01*
X149319430Y-59981518D01*
X149312331Y-59976204D01*
X149177483Y-59925909D01*
X149169770Y-59925079D01*
X149169767Y-59925079D01*
X149121180Y-59919855D01*
X149121169Y-59919854D01*
X149117873Y-59919500D01*
X149114551Y-59919500D01*
X148069500Y-59919500D01*
X148007500Y-59902887D01*
X147962113Y-59857500D01*
X147945500Y-59795500D01*
X147945500Y-58181174D01*
X151175000Y-58181174D01*
X151178450Y-58194049D01*
X151191326Y-58197500D01*
X152133674Y-58197500D01*
X152146549Y-58194049D01*
X152150000Y-58181174D01*
X152650000Y-58181174D01*
X152653450Y-58194049D01*
X152666326Y-58197500D01*
X153608673Y-58197500D01*
X153621548Y-58194049D01*
X153624999Y-58181174D01*
X153624999Y-58063171D01*
X153624678Y-58056888D01*
X153615194Y-57964040D01*
X153612376Y-57950877D01*
X153561629Y-57797732D01*
X153555567Y-57784733D01*
X153471109Y-57647805D01*
X153462205Y-57636544D01*
X153348455Y-57522794D01*
X153337194Y-57513890D01*
X153200266Y-57429432D01*
X153187267Y-57423370D01*
X153034125Y-57372624D01*
X153020958Y-57369805D01*
X152928109Y-57360319D01*
X152921832Y-57360000D01*
X152666326Y-57360000D01*
X152653450Y-57363450D01*
X152650000Y-57376326D01*
X152650000Y-58181174D01*
X152150000Y-58181174D01*
X152150000Y-57376327D01*
X152146549Y-57363451D01*
X152133674Y-57360001D01*
X151878171Y-57360001D01*
X151871888Y-57360321D01*
X151779040Y-57369805D01*
X151765877Y-57372623D01*
X151612732Y-57423370D01*
X151599733Y-57429432D01*
X151462805Y-57513890D01*
X151451544Y-57522794D01*
X151337794Y-57636544D01*
X151328890Y-57647805D01*
X151244432Y-57784733D01*
X151238370Y-57797732D01*
X151187624Y-57950874D01*
X151184805Y-57964041D01*
X151175319Y-58056890D01*
X151175000Y-58063168D01*
X151175000Y-58181174D01*
X147945500Y-58181174D01*
X147945500Y-57030584D01*
X147957643Y-56977068D01*
X147991693Y-56934033D01*
X148028247Y-56916140D01*
X148027483Y-56914091D01*
X148034754Y-56911379D01*
X148162331Y-56863796D01*
X148277546Y-56777546D01*
X148363796Y-56662331D01*
X148364264Y-56661074D01*
X148407008Y-56616772D01*
X148470283Y-56599410D01*
X148533559Y-56616767D01*
X148579119Y-56663984D01*
X148581958Y-56669184D01*
X148657498Y-56770092D01*
X148669907Y-56782501D01*
X148770810Y-56858037D01*
X148786222Y-56866452D01*
X148905358Y-56910888D01*
X148920332Y-56914426D01*
X148968885Y-56919646D01*
X148975482Y-56920000D01*
X149353674Y-56920000D01*
X149366549Y-56916549D01*
X149370000Y-56903674D01*
X149870000Y-56903674D01*
X149873450Y-56916549D01*
X149886326Y-56920000D01*
X150264518Y-56920000D01*
X150271114Y-56919646D01*
X150319667Y-56914426D01*
X150334641Y-56910888D01*
X150453777Y-56866452D01*
X150469189Y-56858037D01*
X150570092Y-56782501D01*
X150582501Y-56770092D01*
X150658037Y-56669189D01*
X150666452Y-56653777D01*
X150710888Y-56534641D01*
X150714426Y-56519667D01*
X150719646Y-56471114D01*
X150720000Y-56464518D01*
X150720000Y-55586326D01*
X150716549Y-55573450D01*
X150703674Y-55570000D01*
X149886326Y-55570000D01*
X149873450Y-55573450D01*
X149870000Y-55586326D01*
X149870000Y-56903674D01*
X149370000Y-56903674D01*
X149370000Y-55053674D01*
X149870000Y-55053674D01*
X149873450Y-55066549D01*
X149886326Y-55070000D01*
X150703674Y-55070000D01*
X150716549Y-55066549D01*
X150720000Y-55053674D01*
X150720000Y-54175482D01*
X150719646Y-54168885D01*
X150714426Y-54120332D01*
X150710888Y-54105358D01*
X150666452Y-53986222D01*
X150658037Y-53970810D01*
X150582501Y-53869907D01*
X150570092Y-53857498D01*
X150469189Y-53781962D01*
X150453777Y-53773547D01*
X150334641Y-53729111D01*
X150319667Y-53725573D01*
X150271114Y-53720353D01*
X150264518Y-53720000D01*
X149886326Y-53720000D01*
X149873450Y-53723450D01*
X149870000Y-53736326D01*
X149870000Y-55053674D01*
X149370000Y-55053674D01*
X149370000Y-53736326D01*
X149366549Y-53723450D01*
X149353674Y-53720000D01*
X148975482Y-53720000D01*
X148968885Y-53720353D01*
X148920332Y-53725573D01*
X148905358Y-53729111D01*
X148786222Y-53773547D01*
X148770810Y-53781962D01*
X148669907Y-53857498D01*
X148657498Y-53869907D01*
X148581961Y-53970811D01*
X148579118Y-53976019D01*
X148533557Y-54023233D01*
X148470283Y-54040589D01*
X148407010Y-54023228D01*
X148364265Y-53978927D01*
X148363796Y-53977669D01*
X148277546Y-53862454D01*
X148242086Y-53835909D01*
X148169431Y-53781519D01*
X148169430Y-53781518D01*
X148162331Y-53776204D01*
X148091965Y-53749959D01*
X148034752Y-53728620D01*
X148034750Y-53728619D01*
X148027483Y-53725909D01*
X148019770Y-53725079D01*
X148019767Y-53725079D01*
X147971180Y-53719855D01*
X147971169Y-53719854D01*
X147967873Y-53719500D01*
X147964551Y-53719500D01*
X147804452Y-53719500D01*
X147748157Y-53705985D01*
X147704134Y-53668385D01*
X147681979Y-53614898D01*
X147686521Y-53557182D01*
X147716771Y-53507819D01*
X148502790Y-52721800D01*
X149291162Y-51933427D01*
X149337562Y-51904182D01*
X149392042Y-51897815D01*
X149443934Y-51915569D01*
X149515666Y-51959814D01*
X149682203Y-52014999D01*
X149784991Y-52025500D01*
X150560008Y-52025499D01*
X150662797Y-52014999D01*
X150829334Y-51959814D01*
X150978656Y-51867712D01*
X151102712Y-51743656D01*
X151106503Y-51737509D01*
X151110984Y-51731843D01*
X151112438Y-51732992D01*
X151149846Y-51697171D01*
X151210282Y-51681440D01*
X151270720Y-51697160D01*
X151307883Y-51732735D01*
X151309410Y-51731529D01*
X151322794Y-51748455D01*
X151436544Y-51862205D01*
X151447805Y-51871109D01*
X151584733Y-51955567D01*
X151597732Y-51961629D01*
X151750874Y-52012375D01*
X151764041Y-52015194D01*
X151856890Y-52024680D01*
X151863168Y-52025000D01*
X151981174Y-52025000D01*
X151994049Y-52021549D01*
X151997500Y-52008674D01*
X151997500Y-52008673D01*
X152497500Y-52008673D01*
X152500950Y-52021548D01*
X152513826Y-52024999D01*
X152631829Y-52024999D01*
X152638111Y-52024678D01*
X152730959Y-52015194D01*
X152744122Y-52012376D01*
X152897267Y-51961629D01*
X152910266Y-51955567D01*
X153047194Y-51871109D01*
X153058455Y-51862205D01*
X153172205Y-51748455D01*
X153181109Y-51737194D01*
X153265567Y-51600266D01*
X153271629Y-51587267D01*
X153322375Y-51434125D01*
X153325194Y-51420958D01*
X153334680Y-51328109D01*
X153335000Y-51321832D01*
X153335000Y-51066326D01*
X153331549Y-51053450D01*
X153318674Y-51050000D01*
X152513826Y-51050000D01*
X152500950Y-51053450D01*
X152497500Y-51066326D01*
X152497500Y-52008673D01*
X151997500Y-52008673D01*
X151997500Y-50533674D01*
X152497500Y-50533674D01*
X152500950Y-50546549D01*
X152513826Y-50550000D01*
X153318673Y-50550000D01*
X153331548Y-50546549D01*
X153334999Y-50533674D01*
X153334999Y-50278171D01*
X153334678Y-50271888D01*
X153325194Y-50179040D01*
X153322376Y-50165877D01*
X153271629Y-50012732D01*
X153265567Y-49999733D01*
X153181109Y-49862805D01*
X153172205Y-49851544D01*
X153058455Y-49737794D01*
X153047194Y-49728890D01*
X152910266Y-49644432D01*
X152897267Y-49638370D01*
X152744125Y-49587624D01*
X152730958Y-49584805D01*
X152638109Y-49575319D01*
X152631832Y-49575000D01*
X152513826Y-49575000D01*
X152500950Y-49578450D01*
X152497500Y-49591326D01*
X152497500Y-50533674D01*
X151997500Y-50533674D01*
X151997500Y-49591327D01*
X151994049Y-49578451D01*
X151981174Y-49575001D01*
X151863171Y-49575001D01*
X151856888Y-49575321D01*
X151764040Y-49584805D01*
X151750877Y-49587623D01*
X151597732Y-49638370D01*
X151584733Y-49644432D01*
X151447805Y-49728890D01*
X151436544Y-49737794D01*
X151322794Y-49851544D01*
X151309410Y-49868471D01*
X151307886Y-49867266D01*
X151270712Y-49902844D01*
X151210281Y-49918559D01*
X151149853Y-49902832D01*
X151112436Y-49867008D01*
X151110984Y-49868157D01*
X151106502Y-49862488D01*
X151102712Y-49856344D01*
X150978656Y-49732288D01*
X150972515Y-49728500D01*
X150972511Y-49728497D01*
X150835480Y-49643977D01*
X150829334Y-49640186D01*
X150805146Y-49632171D01*
X150669225Y-49587131D01*
X150669224Y-49587130D01*
X150662797Y-49585001D01*
X150656066Y-49584313D01*
X150656060Y-49584312D01*
X150616174Y-49580237D01*
X150596896Y-49578268D01*
X150540360Y-49557846D01*
X150500071Y-49513232D01*
X150485500Y-49454911D01*
X150485500Y-48255089D01*
X150500071Y-48196768D01*
X150540360Y-48152154D01*
X150596898Y-48131731D01*
X150611307Y-48130258D01*
X150662797Y-48124999D01*
X150829334Y-48069814D01*
X150978656Y-47977712D01*
X151102712Y-47853656D01*
X151106503Y-47847509D01*
X151110984Y-47841843D01*
X151112438Y-47842992D01*
X151149846Y-47807171D01*
X151210282Y-47791440D01*
X151270720Y-47807160D01*
X151307883Y-47842735D01*
X151309410Y-47841529D01*
X151322794Y-47858455D01*
X151436544Y-47972205D01*
X151447805Y-47981109D01*
X151584733Y-48065567D01*
X151597732Y-48071629D01*
X151750874Y-48122375D01*
X151764041Y-48125194D01*
X151856890Y-48134680D01*
X151863168Y-48135000D01*
X151981174Y-48135000D01*
X151994049Y-48131549D01*
X151997500Y-48118674D01*
X151997500Y-48118673D01*
X152497500Y-48118673D01*
X152500950Y-48131548D01*
X152513826Y-48134999D01*
X152631829Y-48134999D01*
X152638111Y-48134678D01*
X152730959Y-48125194D01*
X152744122Y-48122376D01*
X152897267Y-48071629D01*
X152910266Y-48065567D01*
X153047194Y-47981109D01*
X153058455Y-47972205D01*
X153172205Y-47858455D01*
X153181109Y-47847194D01*
X153265567Y-47710266D01*
X153271629Y-47697267D01*
X153322375Y-47544125D01*
X153325194Y-47530958D01*
X153334680Y-47438109D01*
X153335000Y-47431832D01*
X153335000Y-47176326D01*
X153331549Y-47163450D01*
X153318674Y-47160000D01*
X152513826Y-47160000D01*
X152500950Y-47163450D01*
X152497500Y-47176326D01*
X152497500Y-48118673D01*
X151997500Y-48118673D01*
X151997500Y-46643674D01*
X152497500Y-46643674D01*
X152500950Y-46656549D01*
X152513826Y-46660000D01*
X153318673Y-46660000D01*
X153331548Y-46656549D01*
X153334999Y-46643674D01*
X153334999Y-46388171D01*
X153334678Y-46381888D01*
X153325194Y-46289040D01*
X153322376Y-46275877D01*
X153271629Y-46122732D01*
X153265567Y-46109733D01*
X153181109Y-45972805D01*
X153172205Y-45961544D01*
X153058455Y-45847794D01*
X153047194Y-45838890D01*
X152910266Y-45754432D01*
X152897267Y-45748370D01*
X152744125Y-45697624D01*
X152730958Y-45694805D01*
X152638109Y-45685319D01*
X152631832Y-45685000D01*
X152513826Y-45685000D01*
X152500950Y-45688450D01*
X152497500Y-45701326D01*
X152497500Y-46643674D01*
X151997500Y-46643674D01*
X151997500Y-45701327D01*
X151994049Y-45688451D01*
X151981174Y-45685001D01*
X151863171Y-45685001D01*
X151856888Y-45685321D01*
X151764040Y-45694805D01*
X151750877Y-45697623D01*
X151597732Y-45748370D01*
X151584733Y-45754432D01*
X151447805Y-45838890D01*
X151436544Y-45847794D01*
X151322794Y-45961544D01*
X151309410Y-45978471D01*
X151307886Y-45977266D01*
X151270712Y-46012844D01*
X151210281Y-46028559D01*
X151149853Y-46012832D01*
X151112436Y-45977008D01*
X151110984Y-45978157D01*
X151106502Y-45972488D01*
X151102712Y-45966344D01*
X150978656Y-45842288D01*
X150972515Y-45838500D01*
X150972511Y-45838497D01*
X150835480Y-45753977D01*
X150829334Y-45750186D01*
X150662797Y-45695001D01*
X150656066Y-45694313D01*
X150656060Y-45694312D01*
X150616174Y-45690237D01*
X150596896Y-45688268D01*
X150540360Y-45667846D01*
X150500071Y-45623232D01*
X150485500Y-45564911D01*
X150485500Y-44525089D01*
X150500071Y-44466768D01*
X150540360Y-44422154D01*
X150596898Y-44401731D01*
X150611307Y-44400258D01*
X150662797Y-44394999D01*
X150829334Y-44339814D01*
X150978656Y-44247712D01*
X151102712Y-44123656D01*
X151106503Y-44117509D01*
X151110984Y-44111843D01*
X151112438Y-44112992D01*
X151149846Y-44077171D01*
X151210282Y-44061440D01*
X151270720Y-44077160D01*
X151307883Y-44112735D01*
X151309410Y-44111529D01*
X151322794Y-44128455D01*
X151436544Y-44242205D01*
X151447805Y-44251109D01*
X151584733Y-44335567D01*
X151597732Y-44341629D01*
X151750874Y-44392375D01*
X151764041Y-44395194D01*
X151856890Y-44404680D01*
X151863168Y-44405000D01*
X151981174Y-44405000D01*
X151994049Y-44401549D01*
X151997500Y-44388674D01*
X151997500Y-44388673D01*
X152497500Y-44388673D01*
X152500950Y-44401548D01*
X152513826Y-44404999D01*
X152631829Y-44404999D01*
X152638111Y-44404678D01*
X152730959Y-44395194D01*
X152744122Y-44392376D01*
X152897267Y-44341629D01*
X152910266Y-44335567D01*
X153047194Y-44251109D01*
X153058455Y-44242205D01*
X153172205Y-44128455D01*
X153181109Y-44117194D01*
X153265567Y-43980266D01*
X153271629Y-43967267D01*
X153322375Y-43814125D01*
X153325194Y-43800958D01*
X153334680Y-43708109D01*
X153335000Y-43701832D01*
X153335000Y-43446326D01*
X153331549Y-43433450D01*
X153318674Y-43430000D01*
X152513826Y-43430000D01*
X152500950Y-43433450D01*
X152497500Y-43446326D01*
X152497500Y-44388673D01*
X151997500Y-44388673D01*
X151997500Y-42913674D01*
X152497500Y-42913674D01*
X152500950Y-42926549D01*
X152513826Y-42930000D01*
X153318673Y-42930000D01*
X153331548Y-42926549D01*
X153334999Y-42913674D01*
X153334999Y-42658171D01*
X153334678Y-42651888D01*
X153325194Y-42559040D01*
X153322376Y-42545877D01*
X153271629Y-42392732D01*
X153265567Y-42379733D01*
X153181109Y-42242805D01*
X153172205Y-42231544D01*
X153058455Y-42117794D01*
X153047194Y-42108890D01*
X152910266Y-42024432D01*
X152897267Y-42018370D01*
X152744125Y-41967624D01*
X152730958Y-41964805D01*
X152638109Y-41955319D01*
X152631832Y-41955000D01*
X152513826Y-41955000D01*
X152500950Y-41958450D01*
X152497500Y-41971326D01*
X152497500Y-42913674D01*
X151997500Y-42913674D01*
X151997500Y-41971327D01*
X151994049Y-41958451D01*
X151981174Y-41955001D01*
X151863171Y-41955001D01*
X151856888Y-41955321D01*
X151764040Y-41964805D01*
X151750877Y-41967623D01*
X151597732Y-42018370D01*
X151584733Y-42024432D01*
X151447805Y-42108890D01*
X151436544Y-42117794D01*
X151322794Y-42231544D01*
X151309410Y-42248471D01*
X151307886Y-42247266D01*
X151270712Y-42282844D01*
X151210281Y-42298559D01*
X151149853Y-42282832D01*
X151112436Y-42247008D01*
X151110984Y-42248157D01*
X151106502Y-42242488D01*
X151102712Y-42236344D01*
X150978656Y-42112288D01*
X150972515Y-42108500D01*
X150972511Y-42108497D01*
X150835480Y-42023977D01*
X150829334Y-42020186D01*
X150662797Y-41965001D01*
X150656064Y-41964313D01*
X150656059Y-41964312D01*
X150563140Y-41954819D01*
X150563123Y-41954818D01*
X150560009Y-41954500D01*
X150556860Y-41954500D01*
X149788141Y-41954500D01*
X149788121Y-41954500D01*
X149784992Y-41954501D01*
X149781860Y-41954820D01*
X149781858Y-41954821D01*
X149688941Y-41964312D01*
X149688934Y-41964313D01*
X149682203Y-41965001D01*
X149675773Y-41967131D01*
X149675771Y-41967132D01*
X149640173Y-41978927D01*
X149572575Y-41981877D01*
X149513492Y-41948901D01*
X149332286Y-41767695D01*
X149324842Y-41759514D01*
X149320786Y-41753123D01*
X149271775Y-41707098D01*
X149268978Y-41704387D01*
X149252227Y-41687636D01*
X149252226Y-41687635D01*
X149249471Y-41684880D01*
X149246290Y-41682412D01*
X149237414Y-41674830D01*
X149211269Y-41650278D01*
X149211267Y-41650276D01*
X149205582Y-41644938D01*
X149198749Y-41641182D01*
X149198743Y-41641177D01*
X149188025Y-41635285D01*
X149171766Y-41624606D01*
X149162095Y-41617104D01*
X149162092Y-41617102D01*
X149155936Y-41612327D01*
X149148779Y-41609229D01*
X149148776Y-41609228D01*
X149115849Y-41594978D01*
X149105363Y-41589841D01*
X149073932Y-41572562D01*
X149073923Y-41572558D01*
X149067092Y-41568803D01*
X149059535Y-41566862D01*
X149059531Y-41566861D01*
X149047688Y-41563820D01*
X149029284Y-41557519D01*
X149018057Y-41552660D01*
X149018050Y-41552658D01*
X149010896Y-41549562D01*
X149003192Y-41548341D01*
X149003190Y-41548341D01*
X148967759Y-41542729D01*
X148956324Y-41540361D01*
X148921571Y-41531438D01*
X148921563Y-41531437D01*
X148914019Y-41529500D01*
X148906223Y-41529500D01*
X148893983Y-41529500D01*
X148874597Y-41527974D01*
X148854804Y-41524840D01*
X148847038Y-41525574D01*
X148847035Y-41525574D01*
X148811324Y-41528950D01*
X148799655Y-41529500D01*
X145074452Y-41529500D01*
X145018157Y-41515985D01*
X144974134Y-41478385D01*
X144951979Y-41424898D01*
X144956521Y-41367182D01*
X144986771Y-41317819D01*
X145017771Y-41286819D01*
X145057999Y-41259939D01*
X145105452Y-41250500D01*
X146352225Y-41250500D01*
X146363280Y-41251021D01*
X146370667Y-41252673D01*
X146437872Y-41250561D01*
X146441768Y-41250500D01*
X146465448Y-41250500D01*
X146469350Y-41250500D01*
X146473313Y-41249999D01*
X146484963Y-41249080D01*
X146528627Y-41247709D01*
X146547861Y-41242119D01*
X146566917Y-41238174D01*
X146586792Y-41235664D01*
X146627395Y-41219587D01*
X146638450Y-41215802D01*
X146680390Y-41203618D01*
X146697629Y-41193422D01*
X146715103Y-41184862D01*
X146726474Y-41180360D01*
X146726476Y-41180358D01*
X146733732Y-41177486D01*
X146769069Y-41151811D01*
X146778824Y-41145403D01*
X146816420Y-41123170D01*
X146830584Y-41109005D01*
X146845379Y-41096368D01*
X146861587Y-41084594D01*
X146889428Y-41050938D01*
X146897269Y-41042319D01*
X147102773Y-40836816D01*
X147143000Y-40809939D01*
X147190452Y-40800500D01*
X147630749Y-40800500D01*
X147633194Y-40800500D01*
X147670069Y-40797598D01*
X147827898Y-40751744D01*
X147969365Y-40668081D01*
X147975627Y-40661819D01*
X147977177Y-40660782D01*
X147981045Y-40657783D01*
X147981257Y-40658056D01*
X148015855Y-40634939D01*
X148063308Y-40625500D01*
X148907225Y-40625500D01*
X148918280Y-40626021D01*
X148925667Y-40627673D01*
X148992872Y-40625561D01*
X148996768Y-40625500D01*
X149020448Y-40625500D01*
X149024350Y-40625500D01*
X149028313Y-40624999D01*
X149039963Y-40624080D01*
X149083627Y-40622709D01*
X149102861Y-40617119D01*
X149121917Y-40613174D01*
X149141792Y-40610664D01*
X149182395Y-40594587D01*
X149193450Y-40590802D01*
X149235390Y-40578618D01*
X149252629Y-40568422D01*
X149270103Y-40559862D01*
X149281474Y-40555360D01*
X149281476Y-40555358D01*
X149288732Y-40552486D01*
X149324069Y-40526811D01*
X149333824Y-40520403D01*
X149371420Y-40498170D01*
X149385584Y-40484005D01*
X149400379Y-40471368D01*
X149416587Y-40459594D01*
X149444428Y-40425938D01*
X149452279Y-40417309D01*
X150532770Y-39336818D01*
X150572999Y-39309938D01*
X150620452Y-39300499D01*
X151256859Y-39300499D01*
X151260008Y-39300499D01*
X151362797Y-39289999D01*
X151529334Y-39234814D01*
X151678656Y-39142712D01*
X151802712Y-39018656D01*
X151894814Y-38869334D01*
X151949999Y-38702797D01*
X151960500Y-38600009D01*
X151960499Y-37599992D01*
X151949999Y-37497203D01*
X151894814Y-37330666D01*
X151822672Y-37213704D01*
X151806502Y-37187488D01*
X151806500Y-37187485D01*
X151802712Y-37181344D01*
X151678656Y-37057288D01*
X151672515Y-37053500D01*
X151672511Y-37053497D01*
X151538736Y-36970985D01*
X151529334Y-36965186D01*
X151460516Y-36942382D01*
X151369225Y-36912131D01*
X151369224Y-36912130D01*
X151362797Y-36910001D01*
X151356064Y-36909313D01*
X151356059Y-36909312D01*
X151263140Y-36899819D01*
X151263123Y-36899818D01*
X151260009Y-36899500D01*
X151256860Y-36899500D01*
X150513141Y-36899500D01*
X150513121Y-36899500D01*
X150509992Y-36899501D01*
X150506860Y-36899820D01*
X150506858Y-36899821D01*
X150413938Y-36909312D01*
X150413928Y-36909313D01*
X150407203Y-36910001D01*
X150400781Y-36912128D01*
X150400776Y-36912130D01*
X150247521Y-36962914D01*
X150247517Y-36962915D01*
X150240666Y-36965186D01*
X150234522Y-36968975D01*
X150234519Y-36968977D01*
X150097488Y-37053497D01*
X150097480Y-37053503D01*
X150091344Y-37057288D01*
X150086242Y-37062389D01*
X150086238Y-37062393D01*
X149972393Y-37176238D01*
X149972389Y-37176242D01*
X149967288Y-37181344D01*
X149963499Y-37187486D01*
X149959016Y-37193157D01*
X149957454Y-37191921D01*
X149920427Y-37227363D01*
X149860000Y-37243083D01*
X149799573Y-37227363D01*
X149762545Y-37191921D01*
X149760984Y-37193157D01*
X149756502Y-37187488D01*
X149752712Y-37181344D01*
X149628656Y-37057288D01*
X149622515Y-37053500D01*
X149622511Y-37053497D01*
X149488736Y-36970985D01*
X149479334Y-36965186D01*
X149410516Y-36942382D01*
X149319225Y-36912131D01*
X149319224Y-36912130D01*
X149312797Y-36910001D01*
X149306064Y-36909313D01*
X149306059Y-36909312D01*
X149213140Y-36899819D01*
X149213123Y-36899818D01*
X149210009Y-36899500D01*
X149206860Y-36899500D01*
X148570453Y-36899500D01*
X148523000Y-36890061D01*
X148482772Y-36863181D01*
X146916818Y-35297227D01*
X146889938Y-35256999D01*
X146880499Y-35209546D01*
X146880499Y-35063141D01*
X146880499Y-35063139D01*
X146880499Y-35059992D01*
X146869999Y-34957203D01*
X146814814Y-34790666D01*
X146722712Y-34641344D01*
X146598656Y-34517288D01*
X146592515Y-34513500D01*
X146592511Y-34513497D01*
X146455480Y-34428977D01*
X146449334Y-34425186D01*
X146380733Y-34402454D01*
X146289225Y-34372131D01*
X146289224Y-34372130D01*
X146282797Y-34370001D01*
X146276064Y-34369313D01*
X146276059Y-34369312D01*
X146183140Y-34359819D01*
X146183123Y-34359818D01*
X146180009Y-34359500D01*
X146176860Y-34359500D01*
X145383141Y-34359500D01*
X145383121Y-34359500D01*
X145379992Y-34359501D01*
X145376860Y-34359820D01*
X145376858Y-34359821D01*
X145283938Y-34369312D01*
X145283928Y-34369313D01*
X145277203Y-34370001D01*
X145270781Y-34372128D01*
X145270776Y-34372130D01*
X145117521Y-34422914D01*
X145117517Y-34422915D01*
X145110666Y-34425186D01*
X145104522Y-34428975D01*
X145104519Y-34428977D01*
X144967488Y-34513497D01*
X144967480Y-34513503D01*
X144961344Y-34517288D01*
X144956242Y-34522389D01*
X144956238Y-34522393D01*
X144867681Y-34610951D01*
X144812094Y-34643045D01*
X144747906Y-34643045D01*
X144692319Y-34610951D01*
X144603761Y-34522393D01*
X144603760Y-34522392D01*
X144598656Y-34517288D01*
X144592515Y-34513500D01*
X144592511Y-34513497D01*
X144455480Y-34428977D01*
X144449334Y-34425186D01*
X144380733Y-34402454D01*
X144289225Y-34372131D01*
X144289224Y-34372130D01*
X144282797Y-34370001D01*
X144276064Y-34369313D01*
X144276059Y-34369312D01*
X144183140Y-34359819D01*
X144183123Y-34359818D01*
X144180009Y-34359500D01*
X144176860Y-34359500D01*
X143383141Y-34359500D01*
X143383121Y-34359500D01*
X143379992Y-34359501D01*
X143376860Y-34359820D01*
X143376858Y-34359821D01*
X143283938Y-34369312D01*
X143283928Y-34369313D01*
X143277203Y-34370001D01*
X143270781Y-34372128D01*
X143270776Y-34372130D01*
X143117521Y-34422914D01*
X143117517Y-34422915D01*
X143110666Y-34425186D01*
X143104522Y-34428975D01*
X143104519Y-34428977D01*
X142967488Y-34513497D01*
X142967480Y-34513503D01*
X142961344Y-34517288D01*
X142956242Y-34522389D01*
X142956238Y-34522393D01*
X142842393Y-34636238D01*
X142842389Y-34636242D01*
X142837288Y-34641344D01*
X142833503Y-34647480D01*
X142833497Y-34647488D01*
X142770546Y-34749550D01*
X142745186Y-34790666D01*
X142742915Y-34797517D01*
X142742914Y-34797521D01*
X142693440Y-34946825D01*
X142690001Y-34957203D01*
X142689313Y-34963933D01*
X142689312Y-34963940D01*
X142679819Y-35056859D01*
X142679818Y-35056877D01*
X142679500Y-35059991D01*
X142679500Y-35063138D01*
X142679500Y-35063139D01*
X142679500Y-36056859D01*
X142679500Y-36056878D01*
X142679501Y-36060008D01*
X142679820Y-36063140D01*
X142679821Y-36063141D01*
X142689312Y-36156061D01*
X142689313Y-36156069D01*
X142690001Y-36162797D01*
X142692129Y-36169219D01*
X142692130Y-36169223D01*
X142742914Y-36322478D01*
X142745186Y-36329334D01*
X142755962Y-36346805D01*
X142833497Y-36472511D01*
X142833500Y-36472515D01*
X142837288Y-36478656D01*
X142961344Y-36602712D01*
X142967485Y-36606500D01*
X142967488Y-36606502D01*
X143024558Y-36641702D01*
X143110666Y-36694814D01*
X143277203Y-36749999D01*
X143379991Y-36760500D01*
X144030500Y-36760499D01*
X144092500Y-36777112D01*
X144137887Y-36822499D01*
X144154500Y-36884499D01*
X144154500Y-37212332D01*
X144143245Y-37263951D01*
X144111524Y-37306200D01*
X144065098Y-37331406D01*
X144007102Y-37348256D01*
X144000391Y-37352224D01*
X144000386Y-37352227D01*
X143872351Y-37427946D01*
X143872344Y-37427950D01*
X143865635Y-37431919D01*
X143860120Y-37437433D01*
X143860116Y-37437437D01*
X143754937Y-37542616D01*
X143754933Y-37542620D01*
X143749419Y-37548135D01*
X143745450Y-37554844D01*
X143745446Y-37554851D01*
X143669727Y-37682886D01*
X143669724Y-37682891D01*
X143665756Y-37689602D01*
X143663580Y-37697091D01*
X143663579Y-37697094D01*
X143621670Y-37841342D01*
X143621668Y-37841351D01*
X143619902Y-37847431D01*
X143619405Y-37853739D01*
X143619404Y-37853748D01*
X143617191Y-37881871D01*
X143617190Y-37881886D01*
X143617000Y-37884306D01*
X143617000Y-38315694D01*
X143617190Y-38318114D01*
X143617191Y-38318128D01*
X143619404Y-38346251D01*
X143619405Y-38346258D01*
X143619902Y-38352569D01*
X143621668Y-38358650D01*
X143621670Y-38358657D01*
X143660726Y-38493084D01*
X143665756Y-38510398D01*
X143669727Y-38517112D01*
X143672826Y-38524274D01*
X143670464Y-38525295D01*
X143684189Y-38575469D01*
X143670710Y-38624809D01*
X143673288Y-38625925D01*
X143664041Y-38647294D01*
X143622807Y-38789223D01*
X143624213Y-38796293D01*
X143637356Y-38800000D01*
X143885685Y-38800000D01*
X143948806Y-38817268D01*
X144007102Y-38851744D01*
X144164931Y-38897598D01*
X144201806Y-38900500D01*
X145355749Y-38900500D01*
X145358194Y-38900500D01*
X145395069Y-38897598D01*
X145552898Y-38851744D01*
X145611193Y-38817268D01*
X145674315Y-38800000D01*
X145922644Y-38800000D01*
X145937267Y-38795875D01*
X145956619Y-38774941D01*
X145958928Y-38770354D01*
X146014811Y-38734961D01*
X146080938Y-38733335D01*
X146127471Y-38759695D01*
X146128955Y-38757783D01*
X146135116Y-38762562D01*
X146140635Y-38768081D01*
X146147349Y-38772052D01*
X146147351Y-38772053D01*
X146158126Y-38778425D01*
X146282102Y-38851744D01*
X146439931Y-38897598D01*
X146476806Y-38900500D01*
X146718477Y-38900500D01*
X146765930Y-38909939D01*
X146806158Y-38936819D01*
X146857158Y-38987819D01*
X146887408Y-39037182D01*
X146891950Y-39094898D01*
X146869795Y-39148385D01*
X146825772Y-39185985D01*
X146769477Y-39199500D01*
X146476806Y-39199500D01*
X146474386Y-39199690D01*
X146474371Y-39199691D01*
X146446248Y-39201904D01*
X146446239Y-39201905D01*
X146439931Y-39202402D01*
X146433851Y-39204168D01*
X146433842Y-39204170D01*
X146289594Y-39246079D01*
X146289591Y-39246080D01*
X146282102Y-39248256D01*
X146275391Y-39252224D01*
X146275386Y-39252227D01*
X146147351Y-39327946D01*
X146147344Y-39327950D01*
X146140635Y-39331919D01*
X146135118Y-39337435D01*
X146128955Y-39342217D01*
X146127474Y-39340308D01*
X146080919Y-39366668D01*
X146014801Y-39365035D01*
X145958927Y-39329645D01*
X145956617Y-39325056D01*
X145937267Y-39304124D01*
X145922644Y-39300000D01*
X145674315Y-39300000D01*
X145611194Y-39282732D01*
X145559613Y-39252227D01*
X145559611Y-39252226D01*
X145552898Y-39248256D01*
X145514448Y-39237085D01*
X145401157Y-39204170D01*
X145401150Y-39204168D01*
X145395069Y-39202402D01*
X145388758Y-39201905D01*
X145388751Y-39201904D01*
X145360628Y-39199691D01*
X145360614Y-39199690D01*
X145358194Y-39199500D01*
X144201806Y-39199500D01*
X144199386Y-39199690D01*
X144199371Y-39199691D01*
X144171248Y-39201904D01*
X144171239Y-39201905D01*
X144164931Y-39202402D01*
X144158851Y-39204168D01*
X144158842Y-39204170D01*
X144014594Y-39246079D01*
X144014591Y-39246080D01*
X144007102Y-39248256D01*
X144000391Y-39252224D01*
X144000386Y-39252227D01*
X143948806Y-39282732D01*
X143885685Y-39300000D01*
X143637356Y-39300000D01*
X143624213Y-39303706D01*
X143623104Y-39309283D01*
X143596717Y-39364507D01*
X143547129Y-39400383D01*
X143534423Y-39405413D01*
X143523381Y-39409194D01*
X143488927Y-39419205D01*
X143488921Y-39419207D01*
X143481437Y-39421382D01*
X143474725Y-39425351D01*
X143474723Y-39425352D01*
X143464191Y-39431580D01*
X143446731Y-39440134D01*
X143435346Y-39444642D01*
X143435340Y-39444644D01*
X143428095Y-39447514D01*
X143421790Y-39452094D01*
X143421782Y-39452099D01*
X143392759Y-39473185D01*
X143383001Y-39479595D01*
X143352123Y-39497857D01*
X143352117Y-39497861D01*
X143345407Y-39501830D01*
X143339894Y-39507341D01*
X143339887Y-39507348D01*
X143331237Y-39515998D01*
X143316454Y-39528624D01*
X143306553Y-39535817D01*
X143306543Y-39535826D01*
X143300240Y-39540406D01*
X143295271Y-39546411D01*
X143295268Y-39546415D01*
X143272399Y-39574059D01*
X143264538Y-39582697D01*
X142059976Y-40787259D01*
X142000148Y-40820409D01*
X141931845Y-40816795D01*
X141875850Y-40777516D01*
X141849199Y-40714523D01*
X141845849Y-40686935D01*
X141843989Y-40671612D01*
X141787972Y-40523907D01*
X141715352Y-40418698D01*
X141702494Y-40400070D01*
X141702492Y-40400068D01*
X141698235Y-40393900D01*
X141692624Y-40388929D01*
X141585608Y-40294122D01*
X141585606Y-40294120D01*
X141579992Y-40289147D01*
X141573347Y-40285659D01*
X141573345Y-40285658D01*
X141446758Y-40219219D01*
X141446754Y-40219217D01*
X141440117Y-40215734D01*
X141432839Y-40213940D01*
X141432836Y-40213939D01*
X141294019Y-40179724D01*
X141294012Y-40179723D01*
X141286737Y-40177930D01*
X141128767Y-40177930D01*
X141121492Y-40179722D01*
X141121484Y-40179724D01*
X140982667Y-40213939D01*
X140982661Y-40213940D01*
X140975387Y-40215734D01*
X140968752Y-40219216D01*
X140968745Y-40219219D01*
X140842158Y-40285658D01*
X140842152Y-40285661D01*
X140835512Y-40289147D01*
X140829900Y-40294117D01*
X140829895Y-40294122D01*
X140722879Y-40388929D01*
X140722874Y-40388933D01*
X140717269Y-40393900D01*
X140713013Y-40400065D01*
X140713011Y-40400068D01*
X140713010Y-40400070D01*
X140698604Y-40420940D01*
X140654181Y-40460296D01*
X140596555Y-40474500D01*
X137239871Y-40474500D01*
X137177871Y-40457887D01*
X137132484Y-40412500D01*
X137116645Y-40353390D01*
X137117133Y-40350000D01*
X137098697Y-40221774D01*
X137044882Y-40103937D01*
X137035909Y-40093582D01*
X136965856Y-40012735D01*
X136960049Y-40006033D01*
X136952589Y-40001238D01*
X136952587Y-40001237D01*
X136902848Y-39969272D01*
X136851069Y-39935996D01*
X136842555Y-39933496D01*
X136735284Y-39901999D01*
X136735282Y-39901998D01*
X136726772Y-39899500D01*
X136597228Y-39899500D01*
X136588718Y-39901998D01*
X136588715Y-39901999D01*
X136481444Y-39933496D01*
X136481441Y-39933497D01*
X136472931Y-39935996D01*
X136465468Y-39940791D01*
X136465468Y-39940792D01*
X136371412Y-40001237D01*
X136371406Y-40001241D01*
X136363951Y-40006033D01*
X136358146Y-40012732D01*
X136358143Y-40012735D01*
X136284922Y-40097237D01*
X136284917Y-40097243D01*
X136279118Y-40103937D01*
X136275438Y-40111994D01*
X136275434Y-40112001D01*
X136229986Y-40211519D01*
X136225303Y-40221774D01*
X136224041Y-40230547D01*
X136224040Y-40230553D01*
X136209369Y-40332593D01*
X136206867Y-40350000D01*
X136207354Y-40353390D01*
X136191516Y-40412500D01*
X136146129Y-40457887D01*
X136084129Y-40474500D01*
X135872423Y-40474500D01*
X135809149Y-40457141D01*
X135765297Y-40411696D01*
X135763796Y-40407669D01*
X135677546Y-40292454D01*
X135575061Y-40215734D01*
X135569431Y-40211519D01*
X135569430Y-40211518D01*
X135562331Y-40206204D01*
X135473668Y-40173135D01*
X135434752Y-40158620D01*
X135434750Y-40158619D01*
X135427483Y-40155909D01*
X135419770Y-40155079D01*
X135419767Y-40155079D01*
X135371180Y-40149855D01*
X135371169Y-40149854D01*
X135367873Y-40149500D01*
X135364550Y-40149500D01*
X133875439Y-40149500D01*
X133875420Y-40149500D01*
X133872128Y-40149501D01*
X133868850Y-40149853D01*
X133868838Y-40149854D01*
X133820231Y-40155079D01*
X133820225Y-40155080D01*
X133812517Y-40155909D01*
X133805252Y-40158618D01*
X133805242Y-40158621D01*
X133766329Y-40173135D01*
X133700108Y-40178822D01*
X133640463Y-40149496D01*
X133604531Y-40093582D01*
X133602633Y-40027145D01*
X133635314Y-39969274D01*
X134517771Y-39086817D01*
X134557999Y-39059938D01*
X134605452Y-39050499D01*
X135364561Y-39050499D01*
X135367872Y-39050499D01*
X135427483Y-39044091D01*
X135562331Y-38993796D01*
X135677546Y-38907546D01*
X135763796Y-38792331D01*
X135814091Y-38657483D01*
X135820500Y-38597873D01*
X135820499Y-37602128D01*
X135814091Y-37542517D01*
X135763796Y-37407669D01*
X135762390Y-37405791D01*
X135748149Y-37350000D01*
X136206867Y-37350000D01*
X136208129Y-37358777D01*
X136224040Y-37469446D01*
X136224041Y-37469450D01*
X136225303Y-37478226D01*
X136228987Y-37486294D01*
X136228988Y-37486295D01*
X136275434Y-37587998D01*
X136275436Y-37588002D01*
X136279118Y-37596063D01*
X136284920Y-37602759D01*
X136284922Y-37602762D01*
X136348638Y-37676294D01*
X136363951Y-37693967D01*
X136472931Y-37764004D01*
X136597228Y-37800500D01*
X136717901Y-37800500D01*
X136726772Y-37800500D01*
X136851069Y-37764004D01*
X136960049Y-37693967D01*
X137044882Y-37596063D01*
X137098697Y-37478226D01*
X137117133Y-37350000D01*
X137098697Y-37221774D01*
X137044882Y-37103937D01*
X137036748Y-37094550D01*
X136965856Y-37012735D01*
X136960049Y-37006033D01*
X136952589Y-37001238D01*
X136952587Y-37001237D01*
X136899533Y-36967142D01*
X136851069Y-36935996D01*
X136836176Y-36931623D01*
X136735284Y-36901999D01*
X136735282Y-36901998D01*
X136726772Y-36899500D01*
X136597228Y-36899500D01*
X136588718Y-36901998D01*
X136588715Y-36901999D01*
X136481444Y-36933496D01*
X136481441Y-36933497D01*
X136472931Y-36935996D01*
X136465468Y-36940791D01*
X136465468Y-36940792D01*
X136371412Y-37001237D01*
X136371406Y-37001241D01*
X136363951Y-37006033D01*
X136358146Y-37012732D01*
X136358143Y-37012735D01*
X136284922Y-37097237D01*
X136284917Y-37097243D01*
X136279118Y-37103937D01*
X136275438Y-37111994D01*
X136275434Y-37112001D01*
X136229615Y-37212332D01*
X136225303Y-37221774D01*
X136224041Y-37230547D01*
X136224040Y-37230553D01*
X136213456Y-37304170D01*
X136206867Y-37350000D01*
X135748149Y-37350000D01*
X135762390Y-37294207D01*
X135763796Y-37292331D01*
X135814091Y-37157483D01*
X135820500Y-37097873D01*
X135820499Y-36474498D01*
X135837112Y-36412499D01*
X135882499Y-36367112D01*
X135944499Y-36350499D01*
X136056561Y-36350499D01*
X136059872Y-36350499D01*
X136119483Y-36344091D01*
X136254331Y-36293796D01*
X136369546Y-36207546D01*
X136455796Y-36092331D01*
X136506091Y-35957483D01*
X136512500Y-35897873D01*
X136512500Y-35894578D01*
X136786500Y-35894578D01*
X136786501Y-35897872D01*
X136786853Y-35901150D01*
X136786854Y-35901161D01*
X136792079Y-35949768D01*
X136792080Y-35949773D01*
X136792909Y-35957483D01*
X136795619Y-35964749D01*
X136795620Y-35964753D01*
X136817673Y-36023878D01*
X136843204Y-36092331D01*
X136848518Y-36099430D01*
X136848519Y-36099431D01*
X136895339Y-36161975D01*
X136929454Y-36207546D01*
X137044669Y-36293796D01*
X137179517Y-36344091D01*
X137239127Y-36350500D01*
X138184872Y-36350499D01*
X138244483Y-36344091D01*
X138379331Y-36293796D01*
X138494546Y-36207546D01*
X138580796Y-36092331D01*
X138631091Y-35957483D01*
X138637500Y-35897873D01*
X138637499Y-35052128D01*
X138631091Y-34992517D01*
X138580796Y-34857669D01*
X138494546Y-34742454D01*
X138454034Y-34712127D01*
X138386431Y-34661519D01*
X138386430Y-34661518D01*
X138379331Y-34656204D01*
X138308965Y-34629959D01*
X138251752Y-34608620D01*
X138251750Y-34608619D01*
X138244483Y-34605909D01*
X138236770Y-34605079D01*
X138236767Y-34605079D01*
X138188180Y-34599855D01*
X138188169Y-34599854D01*
X138184873Y-34599500D01*
X138181550Y-34599500D01*
X137242439Y-34599500D01*
X137242420Y-34599500D01*
X137239128Y-34599501D01*
X137235850Y-34599853D01*
X137235838Y-34599854D01*
X137187231Y-34605079D01*
X137187225Y-34605080D01*
X137179517Y-34605909D01*
X137172252Y-34608618D01*
X137172246Y-34608620D01*
X137052980Y-34653104D01*
X137052978Y-34653104D01*
X137044669Y-34656204D01*
X137037572Y-34661516D01*
X137037568Y-34661519D01*
X136936550Y-34737141D01*
X136936546Y-34737144D01*
X136929454Y-34742454D01*
X136924144Y-34749546D01*
X136924141Y-34749550D01*
X136848519Y-34850568D01*
X136848516Y-34850572D01*
X136843204Y-34857669D01*
X136840104Y-34865978D01*
X136840104Y-34865980D01*
X136795620Y-34985247D01*
X136795619Y-34985250D01*
X136792909Y-34992517D01*
X136792079Y-35000227D01*
X136792079Y-35000232D01*
X136786855Y-35048819D01*
X136786854Y-35048831D01*
X136786500Y-35052127D01*
X136786500Y-35055448D01*
X136786500Y-35055449D01*
X136786500Y-35894560D01*
X136786500Y-35894578D01*
X136512500Y-35894578D01*
X136512499Y-35052128D01*
X136506091Y-34992517D01*
X136455796Y-34857669D01*
X136369546Y-34742454D01*
X136329034Y-34712127D01*
X136261431Y-34661519D01*
X136261430Y-34661518D01*
X136254331Y-34656204D01*
X136183965Y-34629959D01*
X136126752Y-34608620D01*
X136126750Y-34608619D01*
X136119483Y-34605909D01*
X136111770Y-34605079D01*
X136111767Y-34605079D01*
X136063180Y-34599855D01*
X136063169Y-34599854D01*
X136059873Y-34599500D01*
X136056550Y-34599500D01*
X135117439Y-34599500D01*
X135117420Y-34599500D01*
X135114128Y-34599501D01*
X135110850Y-34599853D01*
X135110838Y-34599854D01*
X135062231Y-34605079D01*
X135062225Y-34605080D01*
X135054517Y-34605909D01*
X135047252Y-34608618D01*
X135047246Y-34608620D01*
X134927980Y-34653104D01*
X134927978Y-34653104D01*
X134919669Y-34656204D01*
X134912572Y-34661516D01*
X134912568Y-34661519D01*
X134811550Y-34737141D01*
X134811546Y-34737144D01*
X134804454Y-34742454D01*
X134799144Y-34749546D01*
X134799141Y-34749550D01*
X134723519Y-34850568D01*
X134723516Y-34850572D01*
X134718204Y-34857669D01*
X134715104Y-34865978D01*
X134715104Y-34865980D01*
X134670620Y-34985247D01*
X134670619Y-34985250D01*
X134667909Y-34992517D01*
X134667079Y-35000227D01*
X134667079Y-35000232D01*
X134661855Y-35048819D01*
X134661854Y-35048831D01*
X134661500Y-35052127D01*
X134661500Y-35055449D01*
X134661500Y-35525500D01*
X134644887Y-35587500D01*
X134599500Y-35632887D01*
X134537500Y-35649500D01*
X133875439Y-35649500D01*
X133875420Y-35649500D01*
X133872128Y-35649501D01*
X133868850Y-35649853D01*
X133868838Y-35649854D01*
X133820231Y-35655079D01*
X133820225Y-35655080D01*
X133812517Y-35655909D01*
X133805252Y-35658618D01*
X133805246Y-35658620D01*
X133685980Y-35703104D01*
X133685978Y-35703104D01*
X133677669Y-35706204D01*
X133670572Y-35711516D01*
X133670568Y-35711519D01*
X133569550Y-35787141D01*
X133569546Y-35787144D01*
X133562454Y-35792454D01*
X133557144Y-35799546D01*
X133557141Y-35799550D01*
X133481519Y-35900568D01*
X133481516Y-35900572D01*
X133476204Y-35907669D01*
X133473104Y-35915978D01*
X133473104Y-35915980D01*
X133428620Y-36035247D01*
X133428619Y-36035250D01*
X133425909Y-36042517D01*
X133425079Y-36050227D01*
X133425079Y-36050232D01*
X133419855Y-36098819D01*
X133419854Y-36098831D01*
X133419500Y-36102127D01*
X133419500Y-36105448D01*
X133419500Y-36105449D01*
X133419500Y-37094560D01*
X133419500Y-37094578D01*
X133419501Y-37097872D01*
X133419853Y-37101150D01*
X133419854Y-37101161D01*
X133425079Y-37149768D01*
X133425080Y-37149773D01*
X133425909Y-37157483D01*
X133428619Y-37164749D01*
X133428620Y-37164753D01*
X133453162Y-37230553D01*
X133476204Y-37292331D01*
X133477610Y-37294209D01*
X133491850Y-37350000D01*
X133477610Y-37405790D01*
X133476204Y-37407669D01*
X133473106Y-37415975D01*
X133473105Y-37415977D01*
X133428620Y-37535247D01*
X133428619Y-37535250D01*
X133425909Y-37542517D01*
X133425079Y-37550227D01*
X133425079Y-37550232D01*
X133419855Y-37598819D01*
X133419854Y-37598831D01*
X133419500Y-37602127D01*
X133419500Y-37605449D01*
X133419500Y-38364546D01*
X133410061Y-38411999D01*
X133383181Y-38452227D01*
X131052818Y-40782589D01*
X131001391Y-40813490D01*
X130941476Y-40816630D01*
X130887100Y-40791273D01*
X130850994Y-40743357D01*
X130841609Y-40684102D01*
X130845468Y-40640000D01*
X130825635Y-40413308D01*
X130793699Y-40294122D01*
X130768141Y-40198736D01*
X130768140Y-40198734D01*
X130766739Y-40193504D01*
X130670568Y-39987266D01*
X130540047Y-39800861D01*
X130379139Y-39639953D01*
X130285032Y-39574059D01*
X130197173Y-39512540D01*
X130197171Y-39512539D01*
X130192734Y-39509432D01*
X130187827Y-39507143D01*
X130187817Y-39507138D01*
X130134724Y-39482380D01*
X130082549Y-39436623D01*
X130063130Y-39369997D01*
X130082550Y-39303372D01*
X130134723Y-39257618D01*
X130192734Y-39230568D01*
X130379139Y-39100047D01*
X130540047Y-38939139D01*
X130670568Y-38752734D01*
X130766739Y-38546496D01*
X130825635Y-38326692D01*
X130845468Y-38100000D01*
X130825635Y-37873308D01*
X130766739Y-37653504D01*
X130670568Y-37447266D01*
X130540047Y-37260861D01*
X130379139Y-37099953D01*
X130192734Y-36969432D01*
X130134724Y-36942381D01*
X130082549Y-36896625D01*
X130063130Y-36830000D01*
X130082549Y-36763375D01*
X130134725Y-36717618D01*
X130192734Y-36690568D01*
X130379139Y-36560047D01*
X130540047Y-36399139D01*
X130670568Y-36212734D01*
X130766739Y-36006496D01*
X130825635Y-35786692D01*
X130845468Y-35560000D01*
X130825635Y-35333308D01*
X130766739Y-35113504D01*
X130670568Y-34907266D01*
X130540047Y-34720861D01*
X130379139Y-34559953D01*
X130192734Y-34429432D01*
X130123486Y-34397141D01*
X129991405Y-34335550D01*
X129991403Y-34335549D01*
X129986496Y-34333261D01*
X129981271Y-34331861D01*
X129981263Y-34331858D01*
X129771916Y-34275764D01*
X129771907Y-34275762D01*
X129766692Y-34274365D01*
X129761304Y-34273893D01*
X129761301Y-34273893D01*
X129545395Y-34255004D01*
X129540000Y-34254532D01*
X129534605Y-34255004D01*
X129318698Y-34273893D01*
X129318693Y-34273893D01*
X129313308Y-34274365D01*
X129308094Y-34275762D01*
X129308083Y-34275764D01*
X129098736Y-34331858D01*
X129098724Y-34331862D01*
X129093504Y-34333261D01*
X129088599Y-34335547D01*
X129088594Y-34335550D01*
X128892176Y-34427142D01*
X128892172Y-34427144D01*
X128887266Y-34429432D01*
X128882833Y-34432535D01*
X128882826Y-34432540D01*
X128705296Y-34556847D01*
X128705291Y-34556850D01*
X128700861Y-34559953D01*
X128697037Y-34563776D01*
X128697031Y-34563782D01*
X128543782Y-34717031D01*
X128543776Y-34717037D01*
X128539953Y-34720861D01*
X128536850Y-34725291D01*
X128536847Y-34725296D01*
X128412540Y-34902826D01*
X128412535Y-34902833D01*
X128409432Y-34907266D01*
X128407144Y-34912172D01*
X128407142Y-34912176D01*
X128315550Y-35108594D01*
X128315547Y-35108599D01*
X128313261Y-35113504D01*
X128311862Y-35118724D01*
X128311858Y-35118736D01*
X128255764Y-35328083D01*
X128255762Y-35328094D01*
X128254365Y-35333308D01*
X128253893Y-35338693D01*
X128253893Y-35338698D01*
X128247373Y-35413228D01*
X128234532Y-35560000D01*
X128254365Y-35786692D01*
X128255764Y-35791916D01*
X128255765Y-35791917D01*
X128284835Y-35900410D01*
X128285634Y-35961449D01*
X128257212Y-36015473D01*
X128206457Y-36049389D01*
X128160387Y-36053624D01*
X128160303Y-36056306D01*
X128152512Y-36056060D01*
X128144804Y-36054840D01*
X128137038Y-36055574D01*
X128137035Y-36055574D01*
X128101324Y-36058950D01*
X128089655Y-36059500D01*
X123344500Y-36059500D01*
X123282500Y-36042887D01*
X123237113Y-35997500D01*
X123220500Y-35935500D01*
X123220499Y-34715439D01*
X123220499Y-34712128D01*
X123214091Y-34652517D01*
X123163796Y-34517669D01*
X123077546Y-34402454D01*
X123037038Y-34372130D01*
X122969431Y-34321519D01*
X122969430Y-34321518D01*
X122962331Y-34316204D01*
X122850155Y-34274365D01*
X122834752Y-34268620D01*
X122834750Y-34268619D01*
X122827483Y-34265909D01*
X122819770Y-34265079D01*
X122819767Y-34265079D01*
X122771180Y-34259855D01*
X122771169Y-34259854D01*
X122767873Y-34259500D01*
X122764550Y-34259500D01*
X121075439Y-34259500D01*
X121075420Y-34259500D01*
X121072128Y-34259501D01*
X121068850Y-34259853D01*
X121068838Y-34259854D01*
X121020231Y-34265079D01*
X121020225Y-34265080D01*
X121012517Y-34265909D01*
X121005252Y-34268618D01*
X121005246Y-34268620D01*
X120885980Y-34313104D01*
X120885978Y-34313104D01*
X120877669Y-34316204D01*
X120870572Y-34321516D01*
X120870568Y-34321519D01*
X120769550Y-34397141D01*
X120769546Y-34397144D01*
X120762454Y-34402454D01*
X120757144Y-34409546D01*
X120757141Y-34409550D01*
X120681519Y-34510568D01*
X120681516Y-34510572D01*
X120676204Y-34517669D01*
X120673104Y-34525978D01*
X120673104Y-34525980D01*
X120628620Y-34645247D01*
X120628619Y-34645250D01*
X120625909Y-34652517D01*
X120625079Y-34660227D01*
X120625079Y-34660232D01*
X120619855Y-34708819D01*
X120619854Y-34708831D01*
X120619500Y-34712127D01*
X120619500Y-34715449D01*
X120619500Y-35325547D01*
X120605985Y-35381842D01*
X120568385Y-35425865D01*
X120514898Y-35448020D01*
X120457182Y-35443478D01*
X120407819Y-35413228D01*
X120167286Y-35172695D01*
X120159842Y-35164514D01*
X120155786Y-35158123D01*
X120106775Y-35112098D01*
X120103978Y-35109387D01*
X120087227Y-35092636D01*
X120087226Y-35092635D01*
X120084471Y-35089880D01*
X120081290Y-35087412D01*
X120072414Y-35079830D01*
X120046269Y-35055278D01*
X120046267Y-35055276D01*
X120040582Y-35049938D01*
X120033749Y-35046182D01*
X120033743Y-35046177D01*
X120023025Y-35040285D01*
X120006766Y-35029606D01*
X119997095Y-35022104D01*
X119997092Y-35022102D01*
X119990936Y-35017327D01*
X119983779Y-35014229D01*
X119983776Y-35014228D01*
X119950849Y-34999978D01*
X119940363Y-34994841D01*
X119908932Y-34977562D01*
X119908923Y-34977558D01*
X119902092Y-34973803D01*
X119894535Y-34971862D01*
X119894531Y-34971861D01*
X119882688Y-34968820D01*
X119864284Y-34962519D01*
X119853057Y-34957660D01*
X119853050Y-34957658D01*
X119845896Y-34954562D01*
X119838192Y-34953341D01*
X119838190Y-34953341D01*
X119802759Y-34947729D01*
X119791324Y-34945361D01*
X119756571Y-34936438D01*
X119756563Y-34936437D01*
X119749019Y-34934500D01*
X119741223Y-34934500D01*
X119728983Y-34934500D01*
X119709597Y-34932974D01*
X119689804Y-34929840D01*
X119682038Y-34930574D01*
X119682035Y-34930574D01*
X119646324Y-34933950D01*
X119634655Y-34934500D01*
X111837775Y-34934500D01*
X111826719Y-34933978D01*
X111819333Y-34932327D01*
X111811545Y-34932571D01*
X111811538Y-34932571D01*
X111752127Y-34934439D01*
X111748232Y-34934500D01*
X111720650Y-34934500D01*
X111716805Y-34934985D01*
X111716780Y-34934987D01*
X111716653Y-34935004D01*
X111705034Y-34935918D01*
X111669172Y-34937045D01*
X111669165Y-34937046D01*
X111661373Y-34937291D01*
X111653888Y-34939465D01*
X111653872Y-34939468D01*
X111642126Y-34942881D01*
X111623083Y-34946825D01*
X111610949Y-34948358D01*
X111610948Y-34948358D01*
X111603208Y-34949336D01*
X111595958Y-34952205D01*
X111595951Y-34952208D01*
X111562598Y-34965413D01*
X111551554Y-34969194D01*
X111517101Y-34979204D01*
X111517090Y-34979208D01*
X111509610Y-34981382D01*
X111502898Y-34985351D01*
X111502896Y-34985352D01*
X111492364Y-34991580D01*
X111474904Y-35000134D01*
X111463519Y-35004642D01*
X111463513Y-35004644D01*
X111456268Y-35007514D01*
X111449963Y-35012094D01*
X111449955Y-35012099D01*
X111420932Y-35033185D01*
X111411174Y-35039595D01*
X111380296Y-35057857D01*
X111380290Y-35057861D01*
X111373580Y-35061830D01*
X111368067Y-35067341D01*
X111368060Y-35067348D01*
X111359410Y-35075998D01*
X111344627Y-35088624D01*
X111334726Y-35095817D01*
X111334716Y-35095826D01*
X111328413Y-35100406D01*
X111323444Y-35106411D01*
X111323441Y-35106415D01*
X111300572Y-35134059D01*
X111292711Y-35142697D01*
X110417696Y-36017711D01*
X110409511Y-36025159D01*
X110403123Y-36029214D01*
X110397788Y-36034894D01*
X110397783Y-36034899D01*
X110357096Y-36078225D01*
X110354392Y-36081016D01*
X110337628Y-36097780D01*
X110337621Y-36097787D01*
X110334880Y-36100529D01*
X110332500Y-36103596D01*
X110332489Y-36103609D01*
X110332400Y-36103725D01*
X110324842Y-36112570D01*
X110300280Y-36138727D01*
X110300273Y-36138736D01*
X110294938Y-36144418D01*
X110291182Y-36151249D01*
X110291179Y-36151254D01*
X110285285Y-36161975D01*
X110274609Y-36178227D01*
X110267109Y-36187896D01*
X110267101Y-36187907D01*
X110262327Y-36194064D01*
X110259234Y-36201208D01*
X110259229Y-36201219D01*
X110244974Y-36234160D01*
X110239838Y-36244643D01*
X110222560Y-36276073D01*
X110218803Y-36282908D01*
X110216864Y-36290456D01*
X110216863Y-36290461D01*
X110213822Y-36302307D01*
X110207521Y-36320711D01*
X110202658Y-36331948D01*
X110202656Y-36331952D01*
X110199562Y-36339104D01*
X110198342Y-36346803D01*
X110198342Y-36346805D01*
X110192729Y-36382241D01*
X110190361Y-36393676D01*
X110181438Y-36428428D01*
X110181436Y-36428436D01*
X110179500Y-36435981D01*
X110179500Y-36443777D01*
X110179500Y-36456017D01*
X110177974Y-36475402D01*
X110174840Y-36495196D01*
X109220500Y-36495196D01*
X109220500Y-33144500D01*
X109237113Y-33082500D01*
X109282500Y-33037113D01*
X109344500Y-33020500D01*
X154815500Y-33020500D01*
X154877500Y-33037113D01*
G37*
%TD.AperFunction*%
%TD*%
M02*
