%TF.GenerationSoftware,KiCad,Pcbnew,(7.0.0)*%
%TF.CreationDate,2024-04-03T23:31:09+02:00*%
%TF.ProjectId,p0wer EE3088,70307765-7220-4454-9533-3038382e6b69,rev?*%
%TF.SameCoordinates,Original*%
%TF.FileFunction,Paste,Top*%
%TF.FilePolarity,Positive*%
%FSLAX46Y46*%
G04 Gerber Fmt 4.6, Leading zero omitted, Abs format (unit mm)*
G04 Created by KiCad (PCBNEW (7.0.0)) date 2024-04-03 23:31:09*
%MOMM*%
%LPD*%
G01*
G04 APERTURE LIST*
G04 Aperture macros list*
%AMRoundRect*
0 Rectangle with rounded corners*
0 $1 Rounding radius*
0 $2 $3 $4 $5 $6 $7 $8 $9 X,Y pos of 4 corners*
0 Add a 4 corners polygon primitive as box body*
4,1,4,$2,$3,$4,$5,$6,$7,$8,$9,$2,$3,0*
0 Add four circle primitives for the rounded corners*
1,1,$1+$1,$2,$3*
1,1,$1+$1,$4,$5*
1,1,$1+$1,$6,$7*
1,1,$1+$1,$8,$9*
0 Add four rect primitives between the rounded corners*
20,1,$1+$1,$2,$3,$4,$5,0*
20,1,$1+$1,$4,$5,$6,$7,0*
20,1,$1+$1,$6,$7,$8,$9,0*
20,1,$1+$1,$8,$9,$2,$3,0*%
G04 Aperture macros list end*
%ADD10RoundRect,0.250000X-0.325000X-0.450000X0.325000X-0.450000X0.325000X0.450000X-0.325000X0.450000X0*%
%ADD11RoundRect,0.250000X0.450000X-0.350000X0.450000X0.350000X-0.450000X0.350000X-0.450000X-0.350000X0*%
%ADD12RoundRect,0.250000X0.350000X0.450000X-0.350000X0.450000X-0.350000X-0.450000X0.350000X-0.450000X0*%
%ADD13RoundRect,0.250000X-0.350000X-0.450000X0.350000X-0.450000X0.350000X0.450000X-0.350000X0.450000X0*%
%ADD14RoundRect,0.250000X-0.337500X-0.475000X0.337500X-0.475000X0.337500X0.475000X-0.337500X0.475000X0*%
%ADD15RoundRect,0.250000X-0.475000X0.337500X-0.475000X-0.337500X0.475000X-0.337500X0.475000X0.337500X0*%
%ADD16RoundRect,0.150000X-0.512500X-0.150000X0.512500X-0.150000X0.512500X0.150000X-0.512500X0.150000X0*%
%ADD17R,3.500000X2.200000*%
%ADD18R,1.200000X2.200000*%
%ADD19R,0.850000X0.750000*%
%ADD20R,1.400000X0.900000*%
G04 APERTURE END LIST*
D10*
%TO.C,D1*%
X148835000Y-38100000D03*
X150885000Y-38100000D03*
%TD*%
D11*
%TO.C,R4*%
X119380000Y-61960000D03*
X119380000Y-59960000D03*
%TD*%
%TO.C,R3*%
X119380000Y-56880000D03*
X119380000Y-54880000D03*
%TD*%
D12*
%TO.C,R2*%
X147680000Y-43180000D03*
X145680000Y-43180000D03*
%TD*%
D13*
%TO.C,R1*%
X143780000Y-35560000D03*
X145780000Y-35560000D03*
%TD*%
D14*
%TO.C,C9*%
X150172500Y-43180000D03*
X152247500Y-43180000D03*
%TD*%
D15*
%TO.C,C8*%
X142240000Y-43492500D03*
X142240000Y-45567500D03*
%TD*%
D14*
%TO.C,C7*%
X150172500Y-46910000D03*
X152247500Y-46910000D03*
%TD*%
D15*
%TO.C,C2*%
X152400000Y-58447500D03*
X152400000Y-60522500D03*
%TD*%
D14*
%TO.C,C1*%
X150172500Y-50800000D03*
X152247500Y-50800000D03*
%TD*%
D16*
%TO.C,U3*%
X147055000Y-38100000D03*
X147055000Y-40000000D03*
X144780000Y-40000000D03*
X144780000Y-39050000D03*
X144780000Y-38100000D03*
%TD*%
D17*
%TO.C,U1*%
X147319999Y-61519999D03*
D18*
X145019999Y-55319999D03*
X147319999Y-55319999D03*
X149619999Y-55319999D03*
%TD*%
D19*
%TO.C,SW3*%
X137711999Y-35474999D03*
X135586999Y-35474999D03*
X137736999Y-42224999D03*
X135586999Y-42224999D03*
D20*
X134619999Y-36599999D03*
X134619999Y-38099999D03*
X134619999Y-41099999D03*
%TD*%
D19*
%TO.C,SW1*%
X134644999Y-52469999D03*
X136769999Y-52469999D03*
X134619999Y-45719999D03*
X136769999Y-45719999D03*
D20*
X137736999Y-51344999D03*
X137736999Y-49844999D03*
X137736999Y-46844999D03*
%TD*%
M02*
