%TF.GenerationSoftware,KiCad,Pcbnew,(7.0.0)*%
%TF.CreationDate,2024-04-03T23:31:09+02:00*%
%TF.ProjectId,p0wer EE3088,70307765-7220-4454-9533-3038382e6b69,rev?*%
%TF.SameCoordinates,Original*%
%TF.FileFunction,Copper,L2,Bot*%
%TF.FilePolarity,Positive*%
%FSLAX46Y46*%
G04 Gerber Fmt 4.6, Leading zero omitted, Abs format (unit mm)*
G04 Created by KiCad (PCBNEW (7.0.0)) date 2024-04-03 23:31:09*
%MOMM*%
%LPD*%
G01*
G04 APERTURE LIST*
G04 Aperture macros list*
%AMRoundRect*
0 Rectangle with rounded corners*
0 $1 Rounding radius*
0 $2 $3 $4 $5 $6 $7 $8 $9 X,Y pos of 4 corners*
0 Add a 4 corners polygon primitive as box body*
4,1,4,$2,$3,$4,$5,$6,$7,$8,$9,$2,$3,0*
0 Add four circle primitives for the rounded corners*
1,1,$1+$1,$2,$3*
1,1,$1+$1,$4,$5*
1,1,$1+$1,$6,$7*
1,1,$1+$1,$8,$9*
0 Add four rect primitives between the rounded corners*
20,1,$1+$1,$2,$3,$4,$5,0*
20,1,$1+$1,$4,$5,$6,$7,0*
20,1,$1+$1,$6,$7,$8,$9,0*
20,1,$1+$1,$8,$9,$2,$3,0*%
G04 Aperture macros list end*
%TA.AperFunction,ComponentPad*%
%ADD10O,1.600000X1.600000*%
%TD*%
%TA.AperFunction,ComponentPad*%
%ADD11R,1.600000X1.600000*%
%TD*%
%TA.AperFunction,ComponentPad*%
%ADD12R,1.700000X1.700000*%
%TD*%
%TA.AperFunction,ComponentPad*%
%ADD13O,1.700000X1.700000*%
%TD*%
%TA.AperFunction,ComponentPad*%
%ADD14RoundRect,0.250000X-0.350000X-0.625000X0.350000X-0.625000X0.350000X0.625000X-0.350000X0.625000X0*%
%TD*%
%TA.AperFunction,ComponentPad*%
%ADD15O,1.200000X1.750000*%
%TD*%
%TA.AperFunction,ViaPad*%
%ADD16C,0.800000*%
%TD*%
%TA.AperFunction,ViaPad*%
%ADD17C,0.300000*%
%TD*%
%TA.AperFunction,Conductor*%
%ADD18C,0.250000*%
%TD*%
G04 APERTURE END LIST*
D10*
%TO.P,U2,16,VCC1*%
%TO.N,BATT Vin*%
X129539999Y-35559999D03*
%TO.P,U2,15,4A*%
%TO.N,PC6-9_PWM4*%
X129539999Y-38099999D03*
%TO.P,U2,14,4Y*%
%TO.N,Motor2_B*%
X129539999Y-40639999D03*
%TO.P,U2,13,GND*%
%TO.N,GND*%
X129539999Y-43179999D03*
%TO.P,U2,12,GND*%
X129539999Y-45719999D03*
%TO.P,U2,11,3Y*%
%TO.N,Motor2_A*%
X129539999Y-48259999D03*
%TO.P,U2,10,3A*%
%TO.N,PC6-9_PWM3*%
X129539999Y-50799999D03*
%TO.P,U2,9,EN3\u002C4*%
%TO.N,3V3*%
X129539999Y-53339999D03*
%TO.P,U2,8,VCC2*%
%TO.N,BATT Vin*%
X121919999Y-53339999D03*
%TO.P,U2,7,2A*%
%TO.N,PC6-9_PWM2*%
X121919999Y-50799999D03*
%TO.P,U2,6,2Y*%
%TO.N,Motor1_B*%
X121919999Y-48259999D03*
%TO.P,U2,5,GND*%
%TO.N,GND*%
X121919999Y-45719999D03*
%TO.P,U2,4,GND*%
X121919999Y-43179999D03*
%TO.P,U2,3,1Y*%
%TO.N,Motor1_A*%
X121919999Y-40639999D03*
%TO.P,U2,2,1A*%
%TO.N,PC6-9_PWM1*%
X121919999Y-38099999D03*
D11*
%TO.P,U2,1,EN1\u002C2*%
%TO.N,3V3*%
X121919999Y-35559999D03*
%TD*%
D12*
%TO.P,J2,1,Pin_1*%
%TO.N,Motor2_A*%
X112879999Y-37609999D03*
D13*
%TO.P,J2,2,Pin_2*%
%TO.N,PC6-9_PWM1*%
X115419999Y-37609999D03*
%TO.P,J2,3,Pin_3*%
%TO.N,Motor2_B*%
X112879999Y-40149999D03*
%TO.P,J2,4,Pin_4*%
%TO.N,PC6-9_PWM2*%
X115419999Y-40149999D03*
%TO.P,J2,5,Pin_5*%
%TO.N,GND*%
X112879999Y-42689999D03*
%TO.P,J2,6,Pin_6*%
X115419999Y-42689999D03*
%TO.P,J2,7,Pin_7*%
%TO.N,BATT Vin*%
X112879999Y-45229999D03*
%TO.P,J2,8,Pin_8*%
X115419999Y-45229999D03*
%TO.P,J2,9,Pin_9*%
%TO.N,PD7*%
X112879999Y-47769999D03*
%TO.P,J2,10,Pin_10*%
%TO.N,BATT Level*%
X115419999Y-47769999D03*
%TO.P,J2,11,Pin_11*%
%TO.N,Vin*%
X112879999Y-50309999D03*
%TO.P,J2,12,Pin_12*%
X115419999Y-50309999D03*
%TO.P,J2,13,Pin_13*%
%TO.N,Motor1_A*%
X112879999Y-52849999D03*
%TO.P,J2,14,Pin_14*%
%TO.N,PC6-9_PWM3*%
X115419999Y-52849999D03*
%TO.P,J2,15,Pin_15*%
%TO.N,Motor1_B*%
X112879999Y-55389999D03*
%TO.P,J2,16,Pin_16*%
%TO.N,PC6-9_PWM4*%
X115419999Y-55389999D03*
%TD*%
D14*
%TO.P,J1,1,Pin_1*%
%TO.N,BATT Vin*%
X112300000Y-60960000D03*
D15*
%TO.P,J1,2,Pin_2*%
%TO.N,GND*%
X114299999Y-60959999D03*
%TD*%
D16*
%TO.N,Net-(U3-PROG)*%
X147320000Y-45720000D03*
X147974679Y-39220750D03*
D17*
%TO.N,BATT Level*%
X116840000Y-61434500D03*
D16*
X117672300Y-56712300D03*
D17*
%TO.N,Net-(D1-A)*%
X143001437Y-41401436D03*
%TO.N,GND*%
X117376157Y-41914499D03*
%TO.N,Net-(D1-A)*%
X141207752Y-40828430D03*
D16*
%TO.N,GND*%
X139613614Y-43093614D03*
X124460000Y-53340000D03*
%TO.N,BATT Vin*%
X132592300Y-41152300D03*
%TD*%
D18*
%TO.N,Net-(U3-PROG)*%
X149860000Y-45720000D02*
X147320000Y-45720000D01*
X149860000Y-41106071D02*
X149860000Y-45720000D01*
X147974679Y-39220750D02*
X149860000Y-41106071D01*
%TO.N,BATT Level*%
X116840000Y-57544600D02*
X117672300Y-56712300D01*
X116840000Y-61434500D02*
X116840000Y-57544600D01*
%TO.N,Net-(D1-A)*%
X141780758Y-41401436D02*
X141207752Y-40828430D01*
X143001437Y-41401436D02*
X141780758Y-41401436D01*
%TO.N,GND*%
X118114499Y-41914499D02*
X121920000Y-45720000D01*
X117376157Y-41914499D02*
X118114499Y-41914499D01*
%TO.N,BATT Vin*%
X120020000Y-53340000D02*
X121920000Y-53340000D01*
X112400000Y-60960000D02*
X120020000Y-53340000D01*
X112300000Y-60960000D02*
X112400000Y-60960000D01*
%TO.N,Motor1_B*%
X111375000Y-56895000D02*
X112880000Y-55390000D01*
X111375000Y-61823173D02*
X111375000Y-56895000D01*
X111711827Y-62160000D02*
X111375000Y-61823173D01*
X119629569Y-62160000D02*
X111711827Y-62160000D01*
X120405000Y-61384569D02*
X119629569Y-62160000D01*
X120405000Y-60594009D02*
X120405000Y-61384569D01*
X129074009Y-51925000D02*
X120405000Y-60594009D01*
X130005991Y-51925000D02*
X129074009Y-51925000D01*
X130665000Y-51265991D02*
X130005991Y-51925000D01*
X130665000Y-50334009D02*
X130665000Y-51265991D01*
X130005991Y-49675000D02*
X130665000Y-50334009D01*
X123335000Y-49675000D02*
X130005991Y-49675000D01*
X121920000Y-48260000D02*
X123335000Y-49675000D01*
%TO.N,3V3*%
X130955000Y-34435000D02*
X123045000Y-34435000D01*
X133317300Y-36797300D02*
X130955000Y-34435000D01*
X123045000Y-34435000D02*
X121920000Y-35560000D01*
X133317300Y-49562700D02*
X133317300Y-36797300D01*
X129540000Y-53340000D02*
X133317300Y-49562700D01*
%TO.N,BATT Vin*%
X111943604Y-35560000D02*
X111255000Y-36248604D01*
X119670000Y-35560000D02*
X111943604Y-35560000D01*
X128415000Y-36685000D02*
X120795000Y-36685000D01*
X129540000Y-35560000D02*
X128415000Y-36685000D01*
X120795000Y-36685000D02*
X119670000Y-35560000D01*
X111255000Y-36248604D02*
X111255000Y-43605000D01*
X111255000Y-43605000D02*
X112880000Y-45230000D01*
%TO.N,PC6-9_PWM2*%
X116595000Y-45475000D02*
X121920000Y-50800000D01*
X116595000Y-41325000D02*
X116595000Y-45475000D01*
X115420000Y-40150000D02*
X116595000Y-41325000D01*
%TO.N,GND*%
X139613614Y-43093614D02*
X142240000Y-45720000D01*
X120795000Y-57005000D02*
X124460000Y-53340000D01*
X120795000Y-57645000D02*
X120795000Y-57005000D01*
X119380000Y-59060000D02*
X120795000Y-57645000D01*
%TO.N,BATT Vin*%
X132592300Y-38612300D02*
X129540000Y-35560000D01*
X132592300Y-41152300D02*
X132592300Y-38612300D01*
%TO.N,Motor2_B*%
X128415000Y-39515000D02*
X129540000Y-40640000D01*
X119670000Y-39515000D02*
X128415000Y-39515000D01*
X111705000Y-36435000D02*
X116590000Y-36435000D01*
X111705000Y-38975000D02*
X111705000Y-36435000D01*
X116590000Y-36435000D02*
X119670000Y-39515000D01*
X112880000Y-40150000D02*
X111705000Y-38975000D01*
%TO.N,Motor2_A*%
X125584999Y-44304999D02*
X129540000Y-48260000D01*
X121454009Y-44304999D02*
X125584999Y-44304999D01*
X114245000Y-38975000D02*
X116124010Y-38975000D01*
X116124010Y-38975000D02*
X121454009Y-44304999D01*
X112880000Y-37610000D02*
X114245000Y-38975000D01*
%TO.N,PC6-9_PWM3*%
X116055000Y-52215000D02*
X115420000Y-52850000D01*
X128125000Y-52215000D02*
X116055000Y-52215000D01*
X129540000Y-50800000D02*
X128125000Y-52215000D01*
%TD*%
%TA.AperFunction,Conductor*%
%TO.N,GND*%
G36*
X127030852Y-52854015D02*
G01*
X127074875Y-52891615D01*
X127097030Y-52945102D01*
X127092488Y-53002818D01*
X127062238Y-53052181D01*
X120017696Y-60096720D01*
X120009511Y-60104168D01*
X120003123Y-60108223D01*
X119997788Y-60113903D01*
X119997783Y-60113908D01*
X119957096Y-60157234D01*
X119954392Y-60160025D01*
X119937628Y-60176789D01*
X119937621Y-60176796D01*
X119934880Y-60179538D01*
X119932500Y-60182605D01*
X119932489Y-60182618D01*
X119932400Y-60182734D01*
X119924842Y-60191579D01*
X119900280Y-60217736D01*
X119900273Y-60217745D01*
X119894938Y-60223427D01*
X119891182Y-60230258D01*
X119891179Y-60230263D01*
X119885285Y-60240984D01*
X119874609Y-60257236D01*
X119867109Y-60266905D01*
X119867101Y-60266916D01*
X119862327Y-60273073D01*
X119859234Y-60280217D01*
X119859229Y-60280228D01*
X119844974Y-60313169D01*
X119839838Y-60323652D01*
X119818803Y-60361917D01*
X119816864Y-60369465D01*
X119816863Y-60369470D01*
X119813822Y-60381316D01*
X119807521Y-60399720D01*
X119802658Y-60410957D01*
X119802656Y-60410961D01*
X119799562Y-60418113D01*
X119798342Y-60425812D01*
X119798342Y-60425814D01*
X119792729Y-60461250D01*
X119790361Y-60472685D01*
X119781438Y-60507437D01*
X119781436Y-60507445D01*
X119779500Y-60514990D01*
X119779500Y-60522786D01*
X119779500Y-60535026D01*
X119777974Y-60554411D01*
X119774840Y-60574205D01*
X119775574Y-60581970D01*
X119775574Y-60581973D01*
X119778950Y-60617685D01*
X119779500Y-60629354D01*
X119779500Y-61074117D01*
X119770061Y-61121570D01*
X119743181Y-61161798D01*
X119406797Y-61498181D01*
X119366569Y-61525061D01*
X119319116Y-61534500D01*
X117617275Y-61534500D01*
X117559649Y-61520297D01*
X117515225Y-61480940D01*
X117494179Y-61425447D01*
X117477141Y-61285128D01*
X117476237Y-61277682D01*
X117473558Y-61270618D01*
X117473539Y-61270514D01*
X117471782Y-61263386D01*
X117472213Y-61263279D01*
X117465500Y-61226647D01*
X117465500Y-57855052D01*
X117474939Y-57807599D01*
X117501819Y-57767371D01*
X117620071Y-57649119D01*
X117660299Y-57622239D01*
X117707752Y-57612800D01*
X117760443Y-57612800D01*
X117766946Y-57612800D01*
X117952103Y-57573444D01*
X118125030Y-57496451D01*
X118278171Y-57385188D01*
X118404833Y-57244516D01*
X118499479Y-57080584D01*
X118557974Y-56900556D01*
X118577760Y-56712300D01*
X118557974Y-56524044D01*
X118499479Y-56344016D01*
X118404833Y-56180084D01*
X118322323Y-56088448D01*
X118293652Y-56033371D01*
X118295278Y-55971298D01*
X118326791Y-55917798D01*
X120242771Y-54001819D01*
X120283000Y-53974939D01*
X120330453Y-53965500D01*
X120705812Y-53965500D01*
X120763069Y-53979511D01*
X120807387Y-54018377D01*
X120919953Y-54179139D01*
X121080861Y-54340047D01*
X121267266Y-54470568D01*
X121473504Y-54566739D01*
X121693308Y-54625635D01*
X121920000Y-54645468D01*
X122146692Y-54625635D01*
X122366496Y-54566739D01*
X122572734Y-54470568D01*
X122759139Y-54340047D01*
X122920047Y-54179139D01*
X123050568Y-53992734D01*
X123146739Y-53786496D01*
X123205635Y-53566692D01*
X123225468Y-53340000D01*
X123205635Y-53113308D01*
X123174360Y-52996590D01*
X123172519Y-52940309D01*
X123195760Y-52889014D01*
X123239292Y-52853288D01*
X123294136Y-52840500D01*
X126974557Y-52840500D01*
X127030852Y-52854015D01*
G37*
%TD.AperFunction*%
%TA.AperFunction,Conductor*%
G36*
X116163385Y-58229134D02*
G01*
X116200985Y-58273157D01*
X116214500Y-58329452D01*
X116214500Y-61226647D01*
X116207786Y-61263279D01*
X116208218Y-61263386D01*
X116206460Y-61270514D01*
X116206441Y-61270618D01*
X116203763Y-61277682D01*
X116202859Y-61285120D01*
X116202858Y-61285128D01*
X116185821Y-61425447D01*
X116164775Y-61480940D01*
X116120351Y-61520297D01*
X116062725Y-61534500D01*
X115512701Y-61534500D01*
X115459851Y-61522673D01*
X115417082Y-61489449D01*
X115392553Y-61441166D01*
X115390942Y-61387032D01*
X115398882Y-61345831D01*
X115400000Y-61334134D01*
X115400000Y-61226326D01*
X115396549Y-61213450D01*
X115383674Y-61210000D01*
X114174000Y-61210000D01*
X114112000Y-61193387D01*
X114066613Y-61148000D01*
X114050000Y-61086000D01*
X114050000Y-60834000D01*
X114066613Y-60772000D01*
X114112000Y-60726613D01*
X114174000Y-60710000D01*
X115383674Y-60710000D01*
X115396549Y-60706549D01*
X115400000Y-60693674D01*
X115400000Y-60635550D01*
X115399719Y-60629660D01*
X115385596Y-60481757D01*
X115383369Y-60470206D01*
X115327512Y-60279973D01*
X115323146Y-60269067D01*
X115232295Y-60092840D01*
X115225935Y-60082944D01*
X115103382Y-59927105D01*
X115095264Y-59918591D01*
X114945427Y-59788756D01*
X114935850Y-59781937D01*
X114775803Y-59689534D01*
X114734701Y-59651038D01*
X114714864Y-59598332D01*
X114720384Y-59542288D01*
X114750119Y-59494469D01*
X116002818Y-58241771D01*
X116052182Y-58211521D01*
X116109898Y-58206979D01*
X116163385Y-58229134D01*
G37*
%TD.AperFunction*%
%TA.AperFunction,Conductor*%
G36*
X131001391Y-37926508D02*
G01*
X131052818Y-37957409D01*
X131930481Y-38835072D01*
X131957361Y-38875300D01*
X131966800Y-38922753D01*
X131966800Y-40453613D01*
X131958564Y-40498051D01*
X131934950Y-40536585D01*
X131864113Y-40615256D01*
X131864108Y-40615262D01*
X131859767Y-40620084D01*
X131856522Y-40625704D01*
X131856518Y-40625710D01*
X131768369Y-40778389D01*
X131768366Y-40778394D01*
X131765121Y-40784016D01*
X131763115Y-40790188D01*
X131763113Y-40790194D01*
X131708633Y-40957864D01*
X131708631Y-40957873D01*
X131706626Y-40964044D01*
X131705948Y-40970494D01*
X131705946Y-40970504D01*
X131689611Y-41125935D01*
X131686840Y-41152300D01*
X131687519Y-41158760D01*
X131705946Y-41334095D01*
X131705947Y-41334103D01*
X131706626Y-41340556D01*
X131708631Y-41346728D01*
X131708633Y-41346735D01*
X131763113Y-41514405D01*
X131765121Y-41520584D01*
X131768368Y-41526208D01*
X131768369Y-41526210D01*
X131835885Y-41643152D01*
X131859767Y-41684516D01*
X131864111Y-41689341D01*
X131864113Y-41689343D01*
X131971538Y-41808650D01*
X131986429Y-41825188D01*
X132139570Y-41936451D01*
X132312497Y-42013444D01*
X132497654Y-42052800D01*
X132504157Y-42052800D01*
X132567800Y-42052800D01*
X132629800Y-42069413D01*
X132675187Y-42114800D01*
X132691800Y-42176800D01*
X132691800Y-49252248D01*
X132682361Y-49299701D01*
X132655481Y-49339929D01*
X131502831Y-50492578D01*
X131451238Y-50523530D01*
X131391148Y-50526552D01*
X131336709Y-50500934D01*
X131300737Y-50452706D01*
X131292104Y-50395879D01*
X131292672Y-50393341D01*
X131290561Y-50326153D01*
X131290500Y-50322259D01*
X131290500Y-50298554D01*
X131290500Y-50294659D01*
X131289998Y-50290690D01*
X131289080Y-50279033D01*
X131288334Y-50255291D01*
X131287709Y-50235381D01*
X131282120Y-50216148D01*
X131278174Y-50197091D01*
X131276641Y-50184955D01*
X131275664Y-50177217D01*
X131259581Y-50136596D01*
X131255799Y-50125549D01*
X131245793Y-50091110D01*
X131243617Y-50083619D01*
X131239644Y-50076901D01*
X131233422Y-50066379D01*
X131224860Y-50048901D01*
X131220360Y-50037536D01*
X131220359Y-50037535D01*
X131217486Y-50030277D01*
X131191812Y-49994940D01*
X131185409Y-49985193D01*
X131163170Y-49947588D01*
X131149006Y-49933424D01*
X131136368Y-49918627D01*
X131129184Y-49908738D01*
X131129178Y-49908732D01*
X131124594Y-49902422D01*
X131090946Y-49874586D01*
X131082305Y-49866723D01*
X130515065Y-49299483D01*
X130482971Y-49243896D01*
X130482971Y-49179708D01*
X130515065Y-49124121D01*
X130515065Y-49124120D01*
X130540047Y-49099139D01*
X130670568Y-48912734D01*
X130766739Y-48706496D01*
X130825635Y-48486692D01*
X130845468Y-48260000D01*
X130825635Y-48033308D01*
X130799216Y-47934709D01*
X130768141Y-47818736D01*
X130768140Y-47818734D01*
X130766739Y-47813504D01*
X130670568Y-47607266D01*
X130540047Y-47420861D01*
X130379139Y-47259953D01*
X130192734Y-47129432D01*
X130187831Y-47127145D01*
X130187823Y-47127141D01*
X130134134Y-47102106D01*
X130081958Y-47056349D01*
X130062539Y-46989723D01*
X130081959Y-46923098D01*
X130134135Y-46877341D01*
X130187585Y-46852417D01*
X130196912Y-46847032D01*
X130374381Y-46722767D01*
X130382647Y-46715830D01*
X130535830Y-46562647D01*
X130542767Y-46554381D01*
X130667032Y-46376912D01*
X130672420Y-46367580D01*
X130763977Y-46171234D01*
X130767669Y-46161092D01*
X130815179Y-45983780D01*
X130815547Y-45972551D01*
X130804605Y-45970000D01*
X128275395Y-45970000D01*
X128236177Y-45979144D01*
X128226309Y-45983809D01*
X128166134Y-45980844D01*
X128114459Y-45949868D01*
X127632039Y-45467448D01*
X128264452Y-45467448D01*
X128275395Y-45470000D01*
X129273674Y-45470000D01*
X129286549Y-45466549D01*
X129290000Y-45453674D01*
X129790000Y-45453674D01*
X129793450Y-45466549D01*
X129806326Y-45470000D01*
X130804605Y-45470000D01*
X130815547Y-45467448D01*
X130815179Y-45456219D01*
X130767669Y-45278907D01*
X130763977Y-45268765D01*
X130672420Y-45072419D01*
X130667032Y-45063087D01*
X130542767Y-44885618D01*
X130535830Y-44877352D01*
X130382647Y-44724169D01*
X130374381Y-44717232D01*
X130196912Y-44592967D01*
X130187576Y-44587577D01*
X130133544Y-44562382D01*
X130081368Y-44516625D01*
X130061948Y-44450000D01*
X130081368Y-44383375D01*
X130133544Y-44337618D01*
X130187576Y-44312422D01*
X130196912Y-44307032D01*
X130374381Y-44182767D01*
X130382647Y-44175830D01*
X130535830Y-44022647D01*
X130542767Y-44014381D01*
X130667032Y-43836912D01*
X130672420Y-43827580D01*
X130763977Y-43631234D01*
X130767669Y-43621092D01*
X130815179Y-43443780D01*
X130815547Y-43432551D01*
X130804605Y-43430000D01*
X129806326Y-43430000D01*
X129793450Y-43433450D01*
X129790000Y-43446326D01*
X129790000Y-45453674D01*
X129290000Y-45453674D01*
X129290000Y-43446326D01*
X129286549Y-43433450D01*
X129273674Y-43430000D01*
X128275395Y-43430000D01*
X128264452Y-43432551D01*
X128264820Y-43443780D01*
X128312330Y-43621092D01*
X128316022Y-43631234D01*
X128407579Y-43827580D01*
X128412967Y-43836912D01*
X128537232Y-44014381D01*
X128544169Y-44022647D01*
X128697352Y-44175830D01*
X128705618Y-44182767D01*
X128883087Y-44307032D01*
X128892414Y-44312417D01*
X128946455Y-44337616D01*
X128998631Y-44383373D01*
X129018051Y-44449997D01*
X128998633Y-44516622D01*
X128946458Y-44562380D01*
X128892421Y-44587578D01*
X128883087Y-44592967D01*
X128705618Y-44717232D01*
X128697352Y-44724169D01*
X128544169Y-44877352D01*
X128537232Y-44885618D01*
X128412967Y-45063087D01*
X128407579Y-45072419D01*
X128316022Y-45268765D01*
X128312330Y-45278907D01*
X128264820Y-45456219D01*
X128264452Y-45467448D01*
X127632039Y-45467448D01*
X126082285Y-43917694D01*
X126074841Y-43909513D01*
X126070785Y-43903122D01*
X126021774Y-43857097D01*
X126018977Y-43854386D01*
X126002226Y-43837635D01*
X126002225Y-43837634D01*
X125999470Y-43834879D01*
X125996289Y-43832411D01*
X125987413Y-43824829D01*
X125961268Y-43800277D01*
X125961266Y-43800275D01*
X125955581Y-43794937D01*
X125948748Y-43791181D01*
X125948742Y-43791176D01*
X125938024Y-43785284D01*
X125921765Y-43774605D01*
X125912094Y-43767103D01*
X125912091Y-43767101D01*
X125905935Y-43762326D01*
X125898778Y-43759228D01*
X125898775Y-43759227D01*
X125865848Y-43744977D01*
X125855362Y-43739840D01*
X125823931Y-43722561D01*
X125823922Y-43722557D01*
X125817091Y-43718802D01*
X125809534Y-43716861D01*
X125809530Y-43716860D01*
X125797687Y-43713819D01*
X125779283Y-43707518D01*
X125768056Y-43702659D01*
X125768049Y-43702657D01*
X125760895Y-43699561D01*
X125753191Y-43698340D01*
X125753189Y-43698340D01*
X125717758Y-43692728D01*
X125706323Y-43690360D01*
X125671570Y-43681437D01*
X125671562Y-43681436D01*
X125664018Y-43679499D01*
X125656222Y-43679499D01*
X125643982Y-43679499D01*
X125624596Y-43677973D01*
X125604803Y-43674839D01*
X125597037Y-43675573D01*
X125597034Y-43675573D01*
X125561323Y-43678949D01*
X125549654Y-43679499D01*
X123293619Y-43679499D01*
X123238775Y-43666711D01*
X123195243Y-43630985D01*
X123172002Y-43579690D01*
X123173844Y-43523406D01*
X123195179Y-43443780D01*
X123195547Y-43432551D01*
X123184605Y-43430000D01*
X122186326Y-43430000D01*
X122173450Y-43433450D01*
X122170000Y-43446326D01*
X122170000Y-43555499D01*
X122153387Y-43617499D01*
X122108000Y-43662886D01*
X122046000Y-43679499D01*
X121794000Y-43679499D01*
X121732000Y-43662886D01*
X121686613Y-43617499D01*
X121670000Y-43555499D01*
X121670000Y-43054000D01*
X121686613Y-42992000D01*
X121732000Y-42946613D01*
X121794000Y-42930000D01*
X123184605Y-42930000D01*
X123195547Y-42927448D01*
X123195179Y-42916219D01*
X123147669Y-42738907D01*
X123143977Y-42728765D01*
X123052420Y-42532419D01*
X123047032Y-42523087D01*
X122922767Y-42345618D01*
X122915830Y-42337352D01*
X122762647Y-42184169D01*
X122754381Y-42177232D01*
X122576912Y-42052967D01*
X122567579Y-42047579D01*
X122514134Y-42022657D01*
X122461958Y-41976899D01*
X122442539Y-41910274D01*
X122461959Y-41843649D01*
X122514131Y-41797894D01*
X122572734Y-41770568D01*
X122759139Y-41640047D01*
X122920047Y-41479139D01*
X123050568Y-41292734D01*
X123146739Y-41086496D01*
X123205635Y-40866692D01*
X123225468Y-40640000D01*
X123205635Y-40413308D01*
X123174360Y-40296590D01*
X123172519Y-40240309D01*
X123195760Y-40189014D01*
X123239292Y-40153288D01*
X123294136Y-40140500D01*
X128104547Y-40140500D01*
X128152000Y-40149939D01*
X128192228Y-40176819D01*
X128240586Y-40225177D01*
X128272680Y-40280763D01*
X128272680Y-40344950D01*
X128255765Y-40408079D01*
X128255764Y-40408086D01*
X128254365Y-40413308D01*
X128253893Y-40418693D01*
X128253893Y-40418698D01*
X128238642Y-40593018D01*
X128234532Y-40640000D01*
X128235004Y-40645395D01*
X128253662Y-40858664D01*
X128254365Y-40866692D01*
X128255762Y-40871907D01*
X128255764Y-40871916D01*
X128311858Y-41081263D01*
X128311861Y-41081271D01*
X128313261Y-41086496D01*
X128315549Y-41091403D01*
X128315550Y-41091405D01*
X128318711Y-41098184D01*
X128409432Y-41292734D01*
X128412539Y-41297171D01*
X128412540Y-41297173D01*
X128464373Y-41371198D01*
X128539953Y-41479139D01*
X128700861Y-41640047D01*
X128887266Y-41770568D01*
X128892175Y-41772857D01*
X128892180Y-41772860D01*
X128945864Y-41797893D01*
X128998040Y-41843649D01*
X129017460Y-41910274D01*
X128998041Y-41976899D01*
X128945866Y-42022657D01*
X128892416Y-42047581D01*
X128883087Y-42052967D01*
X128705618Y-42177232D01*
X128697352Y-42184169D01*
X128544169Y-42337352D01*
X128537232Y-42345618D01*
X128412967Y-42523087D01*
X128407579Y-42532419D01*
X128316022Y-42728765D01*
X128312330Y-42738907D01*
X128264820Y-42916219D01*
X128264452Y-42927448D01*
X128275395Y-42930000D01*
X130804605Y-42930000D01*
X130815547Y-42927448D01*
X130815179Y-42916219D01*
X130767669Y-42738907D01*
X130763977Y-42728765D01*
X130672420Y-42532419D01*
X130667032Y-42523087D01*
X130542767Y-42345618D01*
X130535830Y-42337352D01*
X130382647Y-42184169D01*
X130374381Y-42177232D01*
X130196912Y-42052967D01*
X130187579Y-42047579D01*
X130134134Y-42022657D01*
X130081958Y-41976899D01*
X130062539Y-41910274D01*
X130081959Y-41843649D01*
X130134131Y-41797894D01*
X130192734Y-41770568D01*
X130379139Y-41640047D01*
X130540047Y-41479139D01*
X130670568Y-41292734D01*
X130766739Y-41086496D01*
X130825635Y-40866692D01*
X130845468Y-40640000D01*
X130825635Y-40413308D01*
X130792366Y-40289147D01*
X130768141Y-40198736D01*
X130768140Y-40198734D01*
X130766739Y-40193504D01*
X130670568Y-39987266D01*
X130540047Y-39800861D01*
X130379139Y-39639953D01*
X130192734Y-39509432D01*
X130187827Y-39507143D01*
X130187817Y-39507138D01*
X130134724Y-39482380D01*
X130082549Y-39436623D01*
X130063130Y-39369997D01*
X130082550Y-39303372D01*
X130134723Y-39257618D01*
X130192734Y-39230568D01*
X130379139Y-39100047D01*
X130540047Y-38939139D01*
X130670568Y-38752734D01*
X130766739Y-38546496D01*
X130825635Y-38326692D01*
X130845468Y-38100000D01*
X130841609Y-38055896D01*
X130850994Y-37996640D01*
X130887101Y-37948724D01*
X130941476Y-37923368D01*
X131001391Y-37926508D01*
G37*
%TD.AperFunction*%
%TA.AperFunction,Conductor*%
G36*
X117380200Y-41135396D02*
G01*
X117430304Y-41165884D01*
X119187806Y-42923387D01*
X120945288Y-44680869D01*
X120977381Y-44736455D01*
X120977383Y-44800640D01*
X120945292Y-44856228D01*
X120924162Y-44877358D01*
X120917236Y-44885613D01*
X120792967Y-45063087D01*
X120787579Y-45072419D01*
X120696022Y-45268765D01*
X120692330Y-45278907D01*
X120644820Y-45456219D01*
X120644452Y-45467448D01*
X120655395Y-45470000D01*
X121653674Y-45470000D01*
X121666549Y-45466549D01*
X121670000Y-45453674D01*
X121670000Y-45054499D01*
X121686613Y-44992499D01*
X121732000Y-44947112D01*
X121794000Y-44930499D01*
X122046000Y-44930499D01*
X122108000Y-44947112D01*
X122153387Y-44992499D01*
X122170000Y-45054499D01*
X122170000Y-45453674D01*
X122173450Y-45466549D01*
X122186326Y-45470000D01*
X123184605Y-45470000D01*
X123195547Y-45467448D01*
X123195179Y-45456219D01*
X123147669Y-45278907D01*
X123143977Y-45268765D01*
X123068500Y-45106904D01*
X123057147Y-45046389D01*
X123076301Y-44987874D01*
X123121239Y-44945785D01*
X123180882Y-44930499D01*
X125274547Y-44930499D01*
X125322000Y-44939938D01*
X125362228Y-44966818D01*
X128240586Y-47845177D01*
X128272680Y-47900763D01*
X128272680Y-47964950D01*
X128255765Y-48028079D01*
X128255762Y-48028090D01*
X128254365Y-48033308D01*
X128234532Y-48260000D01*
X128235004Y-48265395D01*
X128253892Y-48481293D01*
X128254365Y-48486692D01*
X128255762Y-48491907D01*
X128255764Y-48491916D01*
X128311858Y-48701263D01*
X128311861Y-48701271D01*
X128313261Y-48706496D01*
X128315549Y-48711403D01*
X128315550Y-48711405D01*
X128390948Y-48873095D01*
X128402301Y-48933610D01*
X128383147Y-48992125D01*
X128338209Y-49034214D01*
X128278566Y-49049500D01*
X123645453Y-49049500D01*
X123598000Y-49040061D01*
X123557772Y-49013181D01*
X123219413Y-48674822D01*
X123187319Y-48619234D01*
X123187319Y-48555047D01*
X123204233Y-48491924D01*
X123204232Y-48491924D01*
X123205635Y-48486692D01*
X123225468Y-48260000D01*
X123205635Y-48033308D01*
X123179216Y-47934709D01*
X123148141Y-47818736D01*
X123148140Y-47818734D01*
X123146739Y-47813504D01*
X123050568Y-47607266D01*
X122920047Y-47420861D01*
X122759139Y-47259953D01*
X122572734Y-47129432D01*
X122567831Y-47127145D01*
X122567823Y-47127141D01*
X122514134Y-47102106D01*
X122461958Y-47056349D01*
X122442539Y-46989723D01*
X122461959Y-46923098D01*
X122514135Y-46877341D01*
X122567585Y-46852417D01*
X122576912Y-46847032D01*
X122754381Y-46722767D01*
X122762647Y-46715830D01*
X122915830Y-46562647D01*
X122922767Y-46554381D01*
X123047032Y-46376912D01*
X123052420Y-46367580D01*
X123143977Y-46171234D01*
X123147669Y-46161092D01*
X123195179Y-45983780D01*
X123195547Y-45972551D01*
X123184605Y-45970000D01*
X120655395Y-45970000D01*
X120644452Y-45972551D01*
X120644820Y-45983780D01*
X120692330Y-46161092D01*
X120696022Y-46171234D01*
X120787579Y-46367580D01*
X120792967Y-46376912D01*
X120917232Y-46554381D01*
X120924169Y-46562647D01*
X121077352Y-46715830D01*
X121085618Y-46722767D01*
X121263087Y-46847032D01*
X121272423Y-46852422D01*
X121325864Y-46877342D01*
X121378040Y-46923098D01*
X121397460Y-46989723D01*
X121378041Y-47056348D01*
X121325865Y-47102106D01*
X121267266Y-47129432D01*
X121262833Y-47132535D01*
X121262826Y-47132540D01*
X121085296Y-47256847D01*
X121085291Y-47256850D01*
X121080861Y-47259953D01*
X121077037Y-47263776D01*
X121077031Y-47263782D01*
X120923782Y-47417031D01*
X120923776Y-47417037D01*
X120919953Y-47420861D01*
X120916850Y-47425291D01*
X120916847Y-47425296D01*
X120792540Y-47602826D01*
X120792535Y-47602833D01*
X120789432Y-47607266D01*
X120787144Y-47612172D01*
X120787142Y-47612176D01*
X120695550Y-47808594D01*
X120695547Y-47808599D01*
X120693261Y-47813504D01*
X120691862Y-47818724D01*
X120691858Y-47818736D01*
X120635764Y-48028083D01*
X120635762Y-48028094D01*
X120634365Y-48033308D01*
X120614532Y-48260000D01*
X120615004Y-48265395D01*
X120615004Y-48265397D01*
X120618390Y-48304103D01*
X120609004Y-48363361D01*
X120572897Y-48411276D01*
X120518522Y-48436631D01*
X120458608Y-48433491D01*
X120407181Y-48402590D01*
X117256819Y-45252228D01*
X117229939Y-45212000D01*
X117220500Y-45164547D01*
X117220500Y-41402775D01*
X117221021Y-41391719D01*
X117222673Y-41384333D01*
X117220561Y-41317127D01*
X117220500Y-41313232D01*
X117220500Y-41289541D01*
X117220500Y-41285650D01*
X117219998Y-41281677D01*
X117219080Y-41270023D01*
X117218685Y-41257460D01*
X117230758Y-41200068D01*
X117267859Y-41154641D01*
X117321687Y-41131346D01*
X117380200Y-41135396D01*
G37*
%TD.AperFunction*%
%TA.AperFunction,Conductor*%
G36*
X115608000Y-42456613D02*
G01*
X115653387Y-42502000D01*
X115670000Y-42564000D01*
X115670000Y-42816000D01*
X115653387Y-42878000D01*
X115608000Y-42923387D01*
X115546000Y-42940000D01*
X112754000Y-42940000D01*
X112692000Y-42923387D01*
X112646613Y-42878000D01*
X112630000Y-42816000D01*
X112630000Y-42564000D01*
X112646613Y-42502000D01*
X112692000Y-42456613D01*
X112754000Y-42440000D01*
X115546000Y-42440000D01*
X115608000Y-42456613D01*
G37*
%TD.AperFunction*%
%TA.AperFunction,Conductor*%
G36*
X154877500Y-33037113D02*
G01*
X154922887Y-33082500D01*
X154939500Y-33144500D01*
X154939500Y-65915500D01*
X154922887Y-65977500D01*
X154877500Y-66022887D01*
X154815500Y-66039500D01*
X109344500Y-66039500D01*
X109282500Y-66022887D01*
X109237113Y-65977500D01*
X109220500Y-65915500D01*
X109220500Y-36228800D01*
X110624840Y-36228800D01*
X110625574Y-36236565D01*
X110625574Y-36236568D01*
X110628950Y-36272280D01*
X110629500Y-36283949D01*
X110629500Y-43527225D01*
X110628978Y-43538280D01*
X110627327Y-43545667D01*
X110627571Y-43553453D01*
X110627571Y-43553461D01*
X110629439Y-43612873D01*
X110629500Y-43616768D01*
X110629500Y-43644350D01*
X110629988Y-43648219D01*
X110629989Y-43648225D01*
X110630004Y-43648343D01*
X110630918Y-43659966D01*
X110632045Y-43695830D01*
X110632046Y-43695837D01*
X110632291Y-43703627D01*
X110634467Y-43711119D01*
X110634468Y-43711121D01*
X110637879Y-43722862D01*
X110641825Y-43741915D01*
X110644336Y-43761792D01*
X110647206Y-43769042D01*
X110647208Y-43769048D01*
X110660414Y-43802404D01*
X110664197Y-43813451D01*
X110676382Y-43855390D01*
X110680353Y-43862105D01*
X110680354Y-43862107D01*
X110686581Y-43872637D01*
X110695136Y-43890099D01*
X110699642Y-43901480D01*
X110699643Y-43901483D01*
X110702514Y-43908732D01*
X110724440Y-43938912D01*
X110728181Y-43944060D01*
X110734593Y-43953822D01*
X110752856Y-43984702D01*
X110752859Y-43984707D01*
X110756830Y-43991420D01*
X110762344Y-43996934D01*
X110762345Y-43996935D01*
X110770990Y-44005580D01*
X110783626Y-44020374D01*
X110790819Y-44030275D01*
X110790823Y-44030279D01*
X110795406Y-44036587D01*
X110801415Y-44041558D01*
X110801416Y-44041559D01*
X110829058Y-44064426D01*
X110837699Y-44072289D01*
X111539762Y-44774352D01*
X111571856Y-44829939D01*
X111571856Y-44894126D01*
X111546337Y-44989365D01*
X111546335Y-44989370D01*
X111544937Y-44994592D01*
X111544465Y-44999977D01*
X111544465Y-44999982D01*
X111527542Y-45193410D01*
X111524341Y-45230000D01*
X111524813Y-45235395D01*
X111535530Y-45357894D01*
X111544937Y-45465408D01*
X111546336Y-45470630D01*
X111546337Y-45470634D01*
X111604694Y-45688430D01*
X111604697Y-45688438D01*
X111606097Y-45693663D01*
X111608385Y-45698570D01*
X111608386Y-45698572D01*
X111703678Y-45902927D01*
X111703681Y-45902933D01*
X111705965Y-45907830D01*
X111709064Y-45912257D01*
X111709066Y-45912259D01*
X111838399Y-46096966D01*
X111838402Y-46096970D01*
X111841505Y-46101401D01*
X112008599Y-46268495D01*
X112013032Y-46271599D01*
X112013038Y-46271604D01*
X112194158Y-46398425D01*
X112233024Y-46442743D01*
X112247035Y-46500000D01*
X112233024Y-46557257D01*
X112194159Y-46601575D01*
X112013041Y-46728395D01*
X112008599Y-46731505D01*
X112004775Y-46735328D01*
X112004769Y-46735334D01*
X111845334Y-46894769D01*
X111845328Y-46894775D01*
X111841505Y-46898599D01*
X111838402Y-46903029D01*
X111838399Y-46903034D01*
X111709073Y-47087731D01*
X111709068Y-47087738D01*
X111705965Y-47092171D01*
X111703677Y-47097077D01*
X111703675Y-47097081D01*
X111608386Y-47301427D01*
X111608383Y-47301432D01*
X111606097Y-47306337D01*
X111604698Y-47311557D01*
X111604694Y-47311569D01*
X111546337Y-47529365D01*
X111546335Y-47529371D01*
X111544937Y-47534592D01*
X111544465Y-47539977D01*
X111544465Y-47539982D01*
X111538149Y-47612176D01*
X111524341Y-47770000D01*
X111524813Y-47775395D01*
X111539543Y-47943762D01*
X111544937Y-48005408D01*
X111546336Y-48010630D01*
X111546337Y-48010634D01*
X111604694Y-48228430D01*
X111604697Y-48228438D01*
X111606097Y-48233663D01*
X111608385Y-48238570D01*
X111608386Y-48238572D01*
X111703678Y-48442927D01*
X111703681Y-48442933D01*
X111705965Y-48447830D01*
X111709064Y-48452257D01*
X111709066Y-48452259D01*
X111838399Y-48636966D01*
X111838402Y-48636970D01*
X111841505Y-48641401D01*
X112008599Y-48808495D01*
X112013032Y-48811599D01*
X112013038Y-48811604D01*
X112194158Y-48938425D01*
X112233024Y-48982743D01*
X112247035Y-49040000D01*
X112233024Y-49097257D01*
X112194160Y-49141574D01*
X112008599Y-49271505D01*
X112004775Y-49275328D01*
X112004769Y-49275334D01*
X111845334Y-49434769D01*
X111845328Y-49434775D01*
X111841505Y-49438599D01*
X111838402Y-49443029D01*
X111838399Y-49443034D01*
X111709073Y-49627731D01*
X111709068Y-49627738D01*
X111705965Y-49632171D01*
X111703677Y-49637077D01*
X111703675Y-49637081D01*
X111608386Y-49841427D01*
X111608383Y-49841432D01*
X111606097Y-49846337D01*
X111604698Y-49851557D01*
X111604694Y-49851569D01*
X111546337Y-50069365D01*
X111546335Y-50069371D01*
X111544937Y-50074592D01*
X111544465Y-50079977D01*
X111544465Y-50079982D01*
X111528914Y-50257735D01*
X111524341Y-50310000D01*
X111524813Y-50315395D01*
X111537166Y-50456594D01*
X111544937Y-50545408D01*
X111546336Y-50550630D01*
X111546337Y-50550634D01*
X111604694Y-50768430D01*
X111604697Y-50768438D01*
X111606097Y-50773663D01*
X111608385Y-50778570D01*
X111608386Y-50778572D01*
X111703678Y-50982927D01*
X111703681Y-50982933D01*
X111705965Y-50987830D01*
X111709064Y-50992257D01*
X111709066Y-50992259D01*
X111838399Y-51176966D01*
X111838402Y-51176970D01*
X111841505Y-51181401D01*
X112008599Y-51348495D01*
X112013032Y-51351599D01*
X112013038Y-51351604D01*
X112194158Y-51478425D01*
X112233024Y-51522743D01*
X112247035Y-51580000D01*
X112233024Y-51637257D01*
X112194159Y-51681575D01*
X112013041Y-51808395D01*
X112008599Y-51811505D01*
X112004775Y-51815328D01*
X112004769Y-51815334D01*
X111845334Y-51974769D01*
X111845328Y-51974775D01*
X111841505Y-51978599D01*
X111838402Y-51983029D01*
X111838399Y-51983034D01*
X111709073Y-52167731D01*
X111709068Y-52167738D01*
X111705965Y-52172171D01*
X111703677Y-52177077D01*
X111703675Y-52177081D01*
X111608386Y-52381427D01*
X111608383Y-52381432D01*
X111606097Y-52386337D01*
X111604698Y-52391557D01*
X111604694Y-52391569D01*
X111546337Y-52609365D01*
X111546335Y-52609371D01*
X111544937Y-52614592D01*
X111524341Y-52850000D01*
X111524813Y-52855395D01*
X111541397Y-53044953D01*
X111544937Y-53085408D01*
X111546336Y-53090630D01*
X111546337Y-53090634D01*
X111604694Y-53308430D01*
X111604697Y-53308438D01*
X111606097Y-53313663D01*
X111608385Y-53318570D01*
X111608386Y-53318572D01*
X111703678Y-53522927D01*
X111703681Y-53522933D01*
X111705965Y-53527830D01*
X111709064Y-53532257D01*
X111709066Y-53532259D01*
X111838399Y-53716966D01*
X111838402Y-53716970D01*
X111841505Y-53721401D01*
X112008599Y-53888495D01*
X112013032Y-53891599D01*
X112013038Y-53891604D01*
X112194158Y-54018425D01*
X112233024Y-54062743D01*
X112247035Y-54120000D01*
X112233024Y-54177257D01*
X112194159Y-54221575D01*
X112013041Y-54348395D01*
X112008599Y-54351505D01*
X112004775Y-54355328D01*
X112004769Y-54355334D01*
X111845334Y-54514769D01*
X111845328Y-54514775D01*
X111841505Y-54518599D01*
X111838402Y-54523029D01*
X111838399Y-54523034D01*
X111709073Y-54707731D01*
X111709068Y-54707738D01*
X111705965Y-54712171D01*
X111703677Y-54717077D01*
X111703675Y-54717081D01*
X111608386Y-54921427D01*
X111608383Y-54921432D01*
X111606097Y-54926337D01*
X111604698Y-54931557D01*
X111604694Y-54931569D01*
X111546337Y-55149365D01*
X111546335Y-55149371D01*
X111544937Y-55154592D01*
X111524341Y-55390000D01*
X111524813Y-55395395D01*
X111533708Y-55497070D01*
X111544937Y-55625408D01*
X111546337Y-55630636D01*
X111546338Y-55630637D01*
X111571855Y-55725873D01*
X111571855Y-55790059D01*
X111539761Y-55845646D01*
X110987696Y-56397711D01*
X110979511Y-56405159D01*
X110973123Y-56409214D01*
X110967788Y-56414894D01*
X110967783Y-56414899D01*
X110927096Y-56458225D01*
X110924392Y-56461016D01*
X110907628Y-56477780D01*
X110907621Y-56477787D01*
X110904880Y-56480529D01*
X110902500Y-56483596D01*
X110902489Y-56483609D01*
X110902400Y-56483725D01*
X110894842Y-56492570D01*
X110870280Y-56518727D01*
X110870273Y-56518736D01*
X110864938Y-56524418D01*
X110861182Y-56531249D01*
X110861179Y-56531254D01*
X110855285Y-56541975D01*
X110844609Y-56558227D01*
X110837109Y-56567896D01*
X110837101Y-56567907D01*
X110832327Y-56574064D01*
X110829234Y-56581208D01*
X110829229Y-56581219D01*
X110814974Y-56614160D01*
X110809838Y-56624643D01*
X110788803Y-56662908D01*
X110786864Y-56670456D01*
X110786863Y-56670461D01*
X110783822Y-56682307D01*
X110777521Y-56700711D01*
X110772658Y-56711948D01*
X110772656Y-56711952D01*
X110769562Y-56719104D01*
X110768342Y-56726803D01*
X110768342Y-56726805D01*
X110762729Y-56762241D01*
X110760361Y-56773676D01*
X110751438Y-56808428D01*
X110751436Y-56808436D01*
X110749500Y-56815981D01*
X110749500Y-56823777D01*
X110749500Y-56836017D01*
X110747974Y-56855402D01*
X110744840Y-56875196D01*
X110745574Y-56882961D01*
X110745574Y-56882964D01*
X110748950Y-56918676D01*
X110749500Y-56930345D01*
X110749500Y-61745398D01*
X110748978Y-61756453D01*
X110747327Y-61763840D01*
X110747571Y-61771626D01*
X110747571Y-61771634D01*
X110749439Y-61831046D01*
X110749500Y-61834941D01*
X110749500Y-61862523D01*
X110749988Y-61866392D01*
X110749989Y-61866398D01*
X110750004Y-61866516D01*
X110750918Y-61878139D01*
X110752045Y-61914003D01*
X110752046Y-61914010D01*
X110752291Y-61921800D01*
X110754467Y-61929292D01*
X110754468Y-61929294D01*
X110757879Y-61941035D01*
X110761825Y-61960088D01*
X110764336Y-61979965D01*
X110767206Y-61987215D01*
X110767208Y-61987221D01*
X110780414Y-62020577D01*
X110784197Y-62031624D01*
X110796382Y-62073563D01*
X110800353Y-62080278D01*
X110800354Y-62080280D01*
X110806581Y-62090810D01*
X110815136Y-62108272D01*
X110819642Y-62119653D01*
X110819643Y-62119656D01*
X110822514Y-62126905D01*
X110844440Y-62157085D01*
X110848181Y-62162233D01*
X110854593Y-62171995D01*
X110872856Y-62202875D01*
X110872859Y-62202880D01*
X110876830Y-62209593D01*
X110882345Y-62215108D01*
X110890990Y-62223753D01*
X110903626Y-62238547D01*
X110910819Y-62248448D01*
X110910823Y-62248452D01*
X110915406Y-62254760D01*
X110921416Y-62259732D01*
X110921417Y-62259733D01*
X110949056Y-62282598D01*
X110957696Y-62290460D01*
X111214534Y-62547297D01*
X111221984Y-62555485D01*
X111226041Y-62561877D01*
X111231726Y-62567215D01*
X111231728Y-62567218D01*
X111275051Y-62607901D01*
X111277848Y-62610612D01*
X111297356Y-62630120D01*
X111300536Y-62632587D01*
X111309398Y-62640155D01*
X111322707Y-62652654D01*
X111335559Y-62664723D01*
X111335561Y-62664724D01*
X111341245Y-62670062D01*
X111348078Y-62673818D01*
X111348079Y-62673819D01*
X111358800Y-62679713D01*
X111375061Y-62690394D01*
X111390891Y-62702673D01*
X111430982Y-62720021D01*
X111441462Y-62725155D01*
X111479735Y-62746197D01*
X111499143Y-62751180D01*
X111517546Y-62757481D01*
X111528771Y-62762339D01*
X111528773Y-62762339D01*
X111535931Y-62765437D01*
X111579085Y-62772271D01*
X111590471Y-62774629D01*
X111632808Y-62785500D01*
X111652844Y-62785500D01*
X111672242Y-62787027D01*
X111684313Y-62788939D01*
X111684314Y-62788939D01*
X111692023Y-62790160D01*
X111730103Y-62786560D01*
X111735503Y-62786050D01*
X111747172Y-62785500D01*
X119551794Y-62785500D01*
X119562849Y-62786021D01*
X119570236Y-62787673D01*
X119637441Y-62785561D01*
X119641337Y-62785500D01*
X119665017Y-62785500D01*
X119668919Y-62785500D01*
X119672882Y-62784999D01*
X119684532Y-62784080D01*
X119728196Y-62782709D01*
X119747430Y-62777119D01*
X119766486Y-62773174D01*
X119786361Y-62770664D01*
X119826964Y-62754587D01*
X119838019Y-62750802D01*
X119879959Y-62738618D01*
X119897198Y-62728422D01*
X119914672Y-62719862D01*
X119926043Y-62715360D01*
X119926045Y-62715358D01*
X119933301Y-62712486D01*
X119968638Y-62686811D01*
X119978393Y-62680403D01*
X120015989Y-62658170D01*
X120030153Y-62644005D01*
X120044948Y-62631368D01*
X120061156Y-62619594D01*
X120088997Y-62585938D01*
X120096848Y-62577309D01*
X120792311Y-61881847D01*
X120800481Y-61874413D01*
X120806877Y-61870355D01*
X120852918Y-61821325D01*
X120855535Y-61818623D01*
X120875120Y-61799040D01*
X120877585Y-61795861D01*
X120885167Y-61786985D01*
X120915062Y-61755151D01*
X120924713Y-61737592D01*
X120935390Y-61721339D01*
X120947673Y-61705505D01*
X120965026Y-61665401D01*
X120970158Y-61654930D01*
X120987435Y-61623504D01*
X120987435Y-61623503D01*
X120991197Y-61616661D01*
X120996177Y-61597260D01*
X121002481Y-61578850D01*
X121010438Y-61560465D01*
X121017272Y-61517310D01*
X121019638Y-61505890D01*
X121021618Y-61498181D01*
X121030500Y-61463588D01*
X121030500Y-61443552D01*
X121032025Y-61424166D01*
X121035160Y-61404373D01*
X121031050Y-61360893D01*
X121030500Y-61349224D01*
X121030500Y-60904461D01*
X121039939Y-60857008D01*
X121066819Y-60816780D01*
X124503242Y-57380357D01*
X128119299Y-53764299D01*
X128169690Y-53733721D01*
X128228510Y-53729866D01*
X128282464Y-53753606D01*
X128319360Y-53799577D01*
X128407141Y-53987823D01*
X128407145Y-53987831D01*
X128409432Y-53992734D01*
X128539953Y-54179139D01*
X128700861Y-54340047D01*
X128887266Y-54470568D01*
X129093504Y-54566739D01*
X129313308Y-54625635D01*
X129540000Y-54645468D01*
X129766692Y-54625635D01*
X129986496Y-54566739D01*
X130192734Y-54470568D01*
X130379139Y-54340047D01*
X130540047Y-54179139D01*
X130670568Y-53992734D01*
X130766739Y-53786496D01*
X130825635Y-53566692D01*
X130845468Y-53340000D01*
X130825635Y-53113308D01*
X130807318Y-53044951D01*
X130807318Y-52980765D01*
X130839410Y-52925179D01*
X133169589Y-50595000D01*
X135239867Y-50595000D01*
X135241129Y-50603777D01*
X135257040Y-50714446D01*
X135257041Y-50714450D01*
X135258303Y-50723226D01*
X135261987Y-50731294D01*
X135261988Y-50731295D01*
X135308434Y-50832998D01*
X135308436Y-50833002D01*
X135312118Y-50841063D01*
X135317920Y-50847759D01*
X135317922Y-50847762D01*
X135381638Y-50921294D01*
X135396951Y-50938967D01*
X135505931Y-51009004D01*
X135630228Y-51045500D01*
X135750901Y-51045500D01*
X135759772Y-51045500D01*
X135884069Y-51009004D01*
X135993049Y-50938967D01*
X136077882Y-50841063D01*
X136131697Y-50723226D01*
X136150133Y-50595000D01*
X136131697Y-50466774D01*
X136077882Y-50348937D01*
X136046992Y-50313288D01*
X135998856Y-50257735D01*
X135993049Y-50251033D01*
X135985589Y-50246238D01*
X135985587Y-50246237D01*
X135909113Y-50197091D01*
X135884069Y-50180996D01*
X135846497Y-50169964D01*
X135768284Y-50146999D01*
X135768282Y-50146998D01*
X135759772Y-50144500D01*
X135630228Y-50144500D01*
X135621718Y-50146998D01*
X135621715Y-50146999D01*
X135514444Y-50178496D01*
X135514441Y-50178497D01*
X135505931Y-50180996D01*
X135498468Y-50185791D01*
X135498468Y-50185792D01*
X135404412Y-50246237D01*
X135404406Y-50246241D01*
X135396951Y-50251033D01*
X135391146Y-50257732D01*
X135391143Y-50257735D01*
X135317922Y-50342237D01*
X135317917Y-50342243D01*
X135312118Y-50348937D01*
X135308438Y-50356994D01*
X135308434Y-50357001D01*
X135262952Y-50456594D01*
X135258303Y-50466774D01*
X135257041Y-50475547D01*
X135257040Y-50475553D01*
X135249708Y-50526552D01*
X135239867Y-50595000D01*
X133169589Y-50595000D01*
X133704611Y-50059978D01*
X133712781Y-50052544D01*
X133719177Y-50048486D01*
X133765218Y-49999456D01*
X133767835Y-49996754D01*
X133787420Y-49977171D01*
X133789885Y-49973992D01*
X133797467Y-49965116D01*
X133827362Y-49933282D01*
X133837013Y-49915723D01*
X133847690Y-49899470D01*
X133859973Y-49883636D01*
X133877326Y-49843532D01*
X133882458Y-49833061D01*
X133899735Y-49801635D01*
X133899735Y-49801634D01*
X133903497Y-49794792D01*
X133908477Y-49775391D01*
X133914781Y-49756981D01*
X133922738Y-49738596D01*
X133929572Y-49695441D01*
X133931938Y-49684021D01*
X133940860Y-49649274D01*
X133942800Y-49641719D01*
X133942800Y-49621683D01*
X133944325Y-49602297D01*
X133947460Y-49582504D01*
X133943350Y-49539024D01*
X133942800Y-49527355D01*
X133942800Y-47595000D01*
X135239867Y-47595000D01*
X135241129Y-47603777D01*
X135257040Y-47714446D01*
X135257041Y-47714450D01*
X135258303Y-47723226D01*
X135261987Y-47731294D01*
X135261988Y-47731295D01*
X135308434Y-47832998D01*
X135308436Y-47833002D01*
X135312118Y-47841063D01*
X135317920Y-47847759D01*
X135317922Y-47847762D01*
X135381638Y-47921294D01*
X135396951Y-47938967D01*
X135505931Y-48009004D01*
X135630228Y-48045500D01*
X135750901Y-48045500D01*
X135759772Y-48045500D01*
X135884069Y-48009004D01*
X135993049Y-47938967D01*
X136077882Y-47841063D01*
X136131697Y-47723226D01*
X136150133Y-47595000D01*
X136131697Y-47466774D01*
X136077882Y-47348937D01*
X136040969Y-47306337D01*
X135998856Y-47257735D01*
X135993049Y-47251033D01*
X135985589Y-47246238D01*
X135985587Y-47246237D01*
X135938558Y-47216014D01*
X135884069Y-47180996D01*
X135875555Y-47178496D01*
X135768284Y-47146999D01*
X135768282Y-47146998D01*
X135759772Y-47144500D01*
X135630228Y-47144500D01*
X135621718Y-47146998D01*
X135621715Y-47146999D01*
X135514444Y-47178496D01*
X135514441Y-47178497D01*
X135505931Y-47180996D01*
X135498468Y-47185791D01*
X135498468Y-47185792D01*
X135404412Y-47246237D01*
X135404406Y-47246241D01*
X135396951Y-47251033D01*
X135391146Y-47257732D01*
X135391143Y-47257735D01*
X135317922Y-47342237D01*
X135317917Y-47342243D01*
X135312118Y-47348937D01*
X135308438Y-47356994D01*
X135308434Y-47357001D01*
X135261988Y-47458704D01*
X135258303Y-47466774D01*
X135257041Y-47475547D01*
X135257040Y-47475553D01*
X135248552Y-47534592D01*
X135239867Y-47595000D01*
X133942800Y-47595000D01*
X133942800Y-45720000D01*
X146414540Y-45720000D01*
X146415219Y-45726460D01*
X146433646Y-45901795D01*
X146433647Y-45901803D01*
X146434326Y-45908256D01*
X146436331Y-45914428D01*
X146436333Y-45914435D01*
X146490813Y-46082105D01*
X146492821Y-46088284D01*
X146496068Y-46093908D01*
X146496069Y-46093910D01*
X146579021Y-46237588D01*
X146587467Y-46252216D01*
X146591811Y-46257041D01*
X146591813Y-46257043D01*
X146699744Y-46376912D01*
X146714129Y-46392888D01*
X146719387Y-46396708D01*
X146719388Y-46396709D01*
X146782749Y-46442743D01*
X146867270Y-46504151D01*
X147040197Y-46581144D01*
X147225354Y-46620500D01*
X147408143Y-46620500D01*
X147414646Y-46620500D01*
X147599803Y-46581144D01*
X147772730Y-46504151D01*
X147925871Y-46392888D01*
X147931601Y-46386523D01*
X147933271Y-46385310D01*
X147935050Y-46383709D01*
X147935218Y-46383895D01*
X147973315Y-46356219D01*
X148023748Y-46345500D01*
X149789151Y-46345500D01*
X149812386Y-46347696D01*
X149820412Y-46349227D01*
X149875758Y-46345745D01*
X149883545Y-46345500D01*
X149895458Y-46345500D01*
X149899350Y-46345500D01*
X149915042Y-46343517D01*
X149922769Y-46342786D01*
X149978138Y-46339304D01*
X149985898Y-46336782D01*
X150008687Y-46331688D01*
X150008805Y-46331672D01*
X150016792Y-46330664D01*
X150024046Y-46327791D01*
X150024049Y-46327791D01*
X150068377Y-46310240D01*
X150075700Y-46307603D01*
X150128441Y-46290467D01*
X150135329Y-46286094D01*
X150156133Y-46275494D01*
X150163732Y-46272486D01*
X150208631Y-46239864D01*
X150215026Y-46235517D01*
X150261877Y-46205786D01*
X150267458Y-46199841D01*
X150284983Y-46184391D01*
X150291587Y-46179594D01*
X150326941Y-46136857D01*
X150332078Y-46131029D01*
X150370062Y-46090582D01*
X150373996Y-46083426D01*
X150387122Y-46064109D01*
X150392324Y-46057823D01*
X150415948Y-46007618D01*
X150419460Y-46000724D01*
X150446197Y-45952092D01*
X150448226Y-45944185D01*
X150456139Y-45922209D01*
X150459614Y-45914826D01*
X150470010Y-45860325D01*
X150471698Y-45852768D01*
X150485500Y-45799019D01*
X150485500Y-45790849D01*
X150487696Y-45767614D01*
X150487766Y-45767246D01*
X150489227Y-45759588D01*
X150485745Y-45704241D01*
X150485500Y-45696455D01*
X150485500Y-41183846D01*
X150486021Y-41172790D01*
X150487673Y-41165404D01*
X150485561Y-41098184D01*
X150485500Y-41094290D01*
X150485500Y-41070613D01*
X150485500Y-41066721D01*
X150484998Y-41062754D01*
X150484081Y-41051097D01*
X150484014Y-41048967D01*
X150482710Y-41007444D01*
X150477118Y-40988199D01*
X150473174Y-40969154D01*
X150470664Y-40949279D01*
X150454579Y-40908654D01*
X150450806Y-40897633D01*
X150438618Y-40855681D01*
X150428417Y-40838431D01*
X150419863Y-40820972D01*
X150412486Y-40802339D01*
X150386808Y-40766996D01*
X150380401Y-40757242D01*
X150362142Y-40726367D01*
X150362141Y-40726365D01*
X150358170Y-40719651D01*
X150344004Y-40705485D01*
X150331370Y-40690693D01*
X150319594Y-40674484D01*
X150313583Y-40669511D01*
X150313581Y-40669509D01*
X150285941Y-40646644D01*
X150277300Y-40638781D01*
X148913640Y-39275120D01*
X148889400Y-39240822D01*
X148878000Y-39200400D01*
X148861032Y-39038954D01*
X148861031Y-39038953D01*
X148860353Y-39032494D01*
X148801858Y-38852466D01*
X148707212Y-38688534D01*
X148580550Y-38547862D01*
X148575292Y-38544042D01*
X148575290Y-38544040D01*
X148432667Y-38440419D01*
X148432666Y-38440418D01*
X148427409Y-38436599D01*
X148381337Y-38416086D01*
X148260424Y-38362251D01*
X148260419Y-38362249D01*
X148254482Y-38359606D01*
X148248123Y-38358254D01*
X148248119Y-38358253D01*
X148075687Y-38321602D01*
X148075684Y-38321601D01*
X148069325Y-38320250D01*
X147880033Y-38320250D01*
X147873674Y-38321601D01*
X147873670Y-38321602D01*
X147701238Y-38358253D01*
X147701231Y-38358255D01*
X147694876Y-38359606D01*
X147688941Y-38362248D01*
X147688933Y-38362251D01*
X147527886Y-38433955D01*
X147527881Y-38433957D01*
X147521949Y-38436599D01*
X147516695Y-38440415D01*
X147516690Y-38440419D01*
X147374067Y-38544040D01*
X147374060Y-38544045D01*
X147368808Y-38547862D01*
X147364463Y-38552687D01*
X147364458Y-38552692D01*
X147246492Y-38683706D01*
X147246487Y-38683712D01*
X147242146Y-38688534D01*
X147238901Y-38694154D01*
X147238897Y-38694160D01*
X147150748Y-38846839D01*
X147150745Y-38846844D01*
X147147500Y-38852466D01*
X147145494Y-38858638D01*
X147145492Y-38858644D01*
X147091012Y-39026314D01*
X147091010Y-39026323D01*
X147089005Y-39032494D01*
X147088327Y-39038944D01*
X147088325Y-39038954D01*
X147071358Y-39200400D01*
X147069219Y-39220750D01*
X147069898Y-39227210D01*
X147088325Y-39402545D01*
X147088326Y-39402553D01*
X147089005Y-39409006D01*
X147091010Y-39415178D01*
X147091012Y-39415185D01*
X147122645Y-39512540D01*
X147147500Y-39589034D01*
X147242146Y-39752966D01*
X147368808Y-39893638D01*
X147521949Y-40004901D01*
X147694876Y-40081894D01*
X147880033Y-40121250D01*
X147939227Y-40121250D01*
X147986680Y-40130689D01*
X148026908Y-40157569D01*
X149198181Y-41328842D01*
X149225061Y-41369070D01*
X149234500Y-41416523D01*
X149234500Y-44970500D01*
X149217887Y-45032500D01*
X149172500Y-45077887D01*
X149110500Y-45094500D01*
X148023748Y-45094500D01*
X147973315Y-45083781D01*
X147935218Y-45056104D01*
X147935050Y-45056291D01*
X147933271Y-45054689D01*
X147931601Y-45053476D01*
X147925871Y-45047112D01*
X147920613Y-45043292D01*
X147920611Y-45043290D01*
X147777988Y-44939669D01*
X147777987Y-44939668D01*
X147772730Y-44935849D01*
X147760714Y-44930499D01*
X147605745Y-44861501D01*
X147605740Y-44861499D01*
X147599803Y-44858856D01*
X147593444Y-44857504D01*
X147593440Y-44857503D01*
X147421008Y-44820852D01*
X147421005Y-44820851D01*
X147414646Y-44819500D01*
X147225354Y-44819500D01*
X147218995Y-44820851D01*
X147218991Y-44820852D01*
X147046559Y-44857503D01*
X147046552Y-44857505D01*
X147040197Y-44858856D01*
X147034262Y-44861498D01*
X147034254Y-44861501D01*
X146873207Y-44933205D01*
X146873202Y-44933207D01*
X146867270Y-44935849D01*
X146862016Y-44939665D01*
X146862011Y-44939669D01*
X146719388Y-45043290D01*
X146719381Y-45043295D01*
X146714129Y-45047112D01*
X146709784Y-45051937D01*
X146709779Y-45051942D01*
X146591813Y-45182956D01*
X146591808Y-45182962D01*
X146587467Y-45187784D01*
X146584222Y-45193404D01*
X146584218Y-45193410D01*
X146496069Y-45346089D01*
X146496066Y-45346094D01*
X146492821Y-45351716D01*
X146490815Y-45357888D01*
X146490813Y-45357894D01*
X146436333Y-45525564D01*
X146436331Y-45525573D01*
X146434326Y-45531744D01*
X146433648Y-45538194D01*
X146433646Y-45538204D01*
X146417858Y-45688430D01*
X146414540Y-45720000D01*
X133942800Y-45720000D01*
X133942800Y-40828430D01*
X140552474Y-40828430D01*
X140553378Y-40835875D01*
X140570610Y-40977800D01*
X140570611Y-40977805D01*
X140571515Y-40985248D01*
X140574174Y-40992261D01*
X140574175Y-40992262D01*
X140623439Y-41122162D01*
X140627532Y-41132953D01*
X140631795Y-41139129D01*
X140709748Y-41252065D01*
X140717269Y-41262960D01*
X140835512Y-41367713D01*
X140842151Y-41371197D01*
X140842152Y-41371198D01*
X140875484Y-41388692D01*
X140905540Y-41410808D01*
X141283465Y-41788734D01*
X141290917Y-41796923D01*
X141294972Y-41803313D01*
X141329744Y-41835966D01*
X141343981Y-41849336D01*
X141346778Y-41852047D01*
X141366287Y-41871556D01*
X141369467Y-41874023D01*
X141378329Y-41881591D01*
X141391778Y-41894221D01*
X141404490Y-41906159D01*
X141404492Y-41906160D01*
X141410176Y-41911498D01*
X141417009Y-41915254D01*
X141417010Y-41915255D01*
X141427731Y-41921149D01*
X141443992Y-41931830D01*
X141445773Y-41933211D01*
X141459822Y-41944109D01*
X141499912Y-41961457D01*
X141510389Y-41966590D01*
X141548666Y-41987633D01*
X141565715Y-41992010D01*
X141568063Y-41992613D01*
X141586477Y-41998917D01*
X141604862Y-42006874D01*
X141648023Y-42013709D01*
X141659422Y-42016070D01*
X141701739Y-42026936D01*
X141721775Y-42026936D01*
X141741160Y-42028461D01*
X141760954Y-42031596D01*
X141799034Y-42027996D01*
X141804434Y-42027486D01*
X141816103Y-42026936D01*
X142805964Y-42026936D01*
X142835639Y-42030539D01*
X142904782Y-42047581D01*
X142922452Y-42051936D01*
X143072922Y-42051936D01*
X143080422Y-42051936D01*
X143233802Y-42014132D01*
X143373677Y-41940719D01*
X143491920Y-41835966D01*
X143581657Y-41705959D01*
X143637674Y-41558254D01*
X143656715Y-41401436D01*
X143637674Y-41244618D01*
X143581657Y-41096913D01*
X143504581Y-40985248D01*
X143496179Y-40973076D01*
X143496178Y-40973075D01*
X143491920Y-40966906D01*
X143459946Y-40938580D01*
X143379293Y-40867128D01*
X143379291Y-40867126D01*
X143373677Y-40862153D01*
X143367032Y-40858665D01*
X143367030Y-40858664D01*
X143240443Y-40792225D01*
X143240439Y-40792223D01*
X143233802Y-40788740D01*
X143226524Y-40786946D01*
X143226521Y-40786945D01*
X143087704Y-40752730D01*
X143087697Y-40752729D01*
X143080422Y-40750936D01*
X142922452Y-40750936D01*
X142915177Y-40752728D01*
X142915169Y-40752730D01*
X142835639Y-40772333D01*
X142805964Y-40775936D01*
X142091210Y-40775936D01*
X142043757Y-40766497D01*
X142003529Y-40739617D01*
X141910556Y-40646644D01*
X141796279Y-40532366D01*
X141781910Y-40515125D01*
X141702494Y-40400070D01*
X141702493Y-40400069D01*
X141698235Y-40393900D01*
X141642981Y-40344950D01*
X141585608Y-40294122D01*
X141585606Y-40294120D01*
X141579992Y-40289147D01*
X141573347Y-40285659D01*
X141573345Y-40285658D01*
X141446758Y-40219219D01*
X141446754Y-40219217D01*
X141440117Y-40215734D01*
X141432839Y-40213940D01*
X141432836Y-40213939D01*
X141294019Y-40179724D01*
X141294012Y-40179723D01*
X141286737Y-40177930D01*
X141128767Y-40177930D01*
X141121492Y-40179722D01*
X141121484Y-40179724D01*
X140982667Y-40213939D01*
X140982661Y-40213940D01*
X140975387Y-40215734D01*
X140968752Y-40219216D01*
X140968745Y-40219219D01*
X140842158Y-40285658D01*
X140842152Y-40285661D01*
X140835512Y-40289147D01*
X140829900Y-40294117D01*
X140829895Y-40294122D01*
X140722879Y-40388929D01*
X140722874Y-40388933D01*
X140717269Y-40393900D01*
X140713014Y-40400064D01*
X140713009Y-40400070D01*
X140631795Y-40517730D01*
X140631792Y-40517733D01*
X140627532Y-40523907D01*
X140624872Y-40530918D01*
X140624870Y-40530924D01*
X140580984Y-40646644D01*
X140571515Y-40671612D01*
X140570611Y-40679052D01*
X140570610Y-40679059D01*
X140556293Y-40796976D01*
X140552474Y-40828430D01*
X133942800Y-40828430D01*
X133942800Y-40350000D01*
X136206867Y-40350000D01*
X136208129Y-40358777D01*
X136224040Y-40469446D01*
X136224041Y-40469450D01*
X136225303Y-40478226D01*
X136228987Y-40486294D01*
X136228988Y-40486295D01*
X136275434Y-40587998D01*
X136275436Y-40588002D01*
X136279118Y-40596063D01*
X136284920Y-40602759D01*
X136284922Y-40602762D01*
X136317189Y-40640000D01*
X136363951Y-40693967D01*
X136472931Y-40764004D01*
X136597228Y-40800500D01*
X136717901Y-40800500D01*
X136726772Y-40800500D01*
X136851069Y-40764004D01*
X136960049Y-40693967D01*
X137044882Y-40596063D01*
X137098697Y-40478226D01*
X137117133Y-40350000D01*
X137098697Y-40221774D01*
X137055955Y-40128184D01*
X137048565Y-40112001D01*
X137048564Y-40111999D01*
X137044882Y-40103937D01*
X137026953Y-40083246D01*
X136965856Y-40012735D01*
X136960049Y-40006033D01*
X136952589Y-40001238D01*
X136952587Y-40001237D01*
X136892956Y-39962915D01*
X136851069Y-39935996D01*
X136842555Y-39933496D01*
X136735284Y-39901999D01*
X136735282Y-39901998D01*
X136726772Y-39899500D01*
X136597228Y-39899500D01*
X136588718Y-39901998D01*
X136588715Y-39901999D01*
X136481444Y-39933496D01*
X136481441Y-39933497D01*
X136472931Y-39935996D01*
X136465468Y-39940791D01*
X136465468Y-39940792D01*
X136371412Y-40001237D01*
X136371406Y-40001241D01*
X136363951Y-40006033D01*
X136358146Y-40012732D01*
X136358143Y-40012735D01*
X136284922Y-40097237D01*
X136284917Y-40097243D01*
X136279118Y-40103937D01*
X136275438Y-40111994D01*
X136275434Y-40112001D01*
X136235824Y-40198736D01*
X136225303Y-40221774D01*
X136224041Y-40230547D01*
X136224040Y-40230553D01*
X136209369Y-40332593D01*
X136206867Y-40350000D01*
X133942800Y-40350000D01*
X133942800Y-37350000D01*
X136206867Y-37350000D01*
X136208129Y-37358777D01*
X136224040Y-37469446D01*
X136224041Y-37469450D01*
X136225303Y-37478226D01*
X136228987Y-37486294D01*
X136228988Y-37486295D01*
X136275434Y-37587998D01*
X136275436Y-37588002D01*
X136279118Y-37596063D01*
X136284920Y-37602759D01*
X136284922Y-37602762D01*
X136341735Y-37668328D01*
X136363951Y-37693967D01*
X136472931Y-37764004D01*
X136597228Y-37800500D01*
X136717901Y-37800500D01*
X136726772Y-37800500D01*
X136851069Y-37764004D01*
X136960049Y-37693967D01*
X137044882Y-37596063D01*
X137098697Y-37478226D01*
X137117133Y-37350000D01*
X137098697Y-37221774D01*
X137044882Y-37103937D01*
X137034724Y-37092214D01*
X136965856Y-37012735D01*
X136960049Y-37006033D01*
X136952589Y-37001238D01*
X136952587Y-37001237D01*
X136905559Y-36971014D01*
X136851069Y-36935996D01*
X136842555Y-36933496D01*
X136735284Y-36901999D01*
X136735282Y-36901998D01*
X136726772Y-36899500D01*
X136597228Y-36899500D01*
X136588718Y-36901998D01*
X136588715Y-36901999D01*
X136481444Y-36933496D01*
X136481441Y-36933497D01*
X136472931Y-36935996D01*
X136465468Y-36940791D01*
X136465468Y-36940792D01*
X136371412Y-37001237D01*
X136371406Y-37001241D01*
X136363951Y-37006033D01*
X136358146Y-37012732D01*
X136358143Y-37012735D01*
X136284922Y-37097237D01*
X136284917Y-37097243D01*
X136279118Y-37103937D01*
X136275438Y-37111994D01*
X136275434Y-37112001D01*
X136228988Y-37213704D01*
X136225303Y-37221774D01*
X136224041Y-37230547D01*
X136224040Y-37230553D01*
X136212724Y-37309264D01*
X136206867Y-37350000D01*
X133942800Y-37350000D01*
X133942800Y-36875075D01*
X133943321Y-36864019D01*
X133944973Y-36856633D01*
X133942861Y-36789413D01*
X133942800Y-36785519D01*
X133942800Y-36761842D01*
X133942800Y-36757950D01*
X133942298Y-36753983D01*
X133941381Y-36742326D01*
X133940010Y-36698673D01*
X133934418Y-36679428D01*
X133930474Y-36660383D01*
X133927964Y-36640508D01*
X133911879Y-36599883D01*
X133908106Y-36588862D01*
X133895918Y-36546910D01*
X133885717Y-36529660D01*
X133877163Y-36512201D01*
X133869786Y-36493568D01*
X133844108Y-36458225D01*
X133837701Y-36448471D01*
X133819442Y-36417596D01*
X133819441Y-36417594D01*
X133815470Y-36410880D01*
X133801304Y-36396714D01*
X133788670Y-36381922D01*
X133776894Y-36365713D01*
X133770883Y-36360740D01*
X133770881Y-36360738D01*
X133743241Y-36337873D01*
X133734600Y-36330010D01*
X131452286Y-34047695D01*
X131444842Y-34039514D01*
X131440786Y-34033123D01*
X131391775Y-33987098D01*
X131388978Y-33984387D01*
X131372227Y-33967636D01*
X131372226Y-33967635D01*
X131369471Y-33964880D01*
X131366290Y-33962412D01*
X131357414Y-33954830D01*
X131331269Y-33930278D01*
X131331267Y-33930276D01*
X131325582Y-33924938D01*
X131318749Y-33921182D01*
X131318743Y-33921177D01*
X131308025Y-33915285D01*
X131291766Y-33904606D01*
X131282095Y-33897104D01*
X131282092Y-33897102D01*
X131275936Y-33892327D01*
X131268779Y-33889229D01*
X131268776Y-33889228D01*
X131235849Y-33874978D01*
X131225363Y-33869841D01*
X131193932Y-33852562D01*
X131193923Y-33852558D01*
X131187092Y-33848803D01*
X131179535Y-33846862D01*
X131179531Y-33846861D01*
X131167688Y-33843820D01*
X131149284Y-33837519D01*
X131138057Y-33832660D01*
X131138050Y-33832658D01*
X131130896Y-33829562D01*
X131123192Y-33828341D01*
X131123190Y-33828341D01*
X131087759Y-33822729D01*
X131076324Y-33820361D01*
X131041571Y-33811438D01*
X131041563Y-33811437D01*
X131034019Y-33809500D01*
X131026223Y-33809500D01*
X131013983Y-33809500D01*
X130994597Y-33807974D01*
X130974804Y-33804840D01*
X130967038Y-33805574D01*
X130967035Y-33805574D01*
X130931324Y-33808950D01*
X130919655Y-33809500D01*
X123122771Y-33809500D01*
X123111718Y-33808979D01*
X123104332Y-33807328D01*
X123096534Y-33807573D01*
X123037144Y-33809439D01*
X123033250Y-33809500D01*
X123005650Y-33809500D01*
X123001799Y-33809986D01*
X123001768Y-33809988D01*
X123001640Y-33810005D01*
X122990029Y-33810918D01*
X122954172Y-33812045D01*
X122954165Y-33812046D01*
X122946373Y-33812291D01*
X122938888Y-33814465D01*
X122938872Y-33814468D01*
X122927126Y-33817881D01*
X122908083Y-33821825D01*
X122895949Y-33823358D01*
X122895948Y-33823358D01*
X122888208Y-33824336D01*
X122880958Y-33827205D01*
X122880951Y-33827208D01*
X122847598Y-33840413D01*
X122836554Y-33844194D01*
X122802105Y-33854203D01*
X122802095Y-33854207D01*
X122794610Y-33856382D01*
X122787900Y-33860349D01*
X122787898Y-33860351D01*
X122784505Y-33862357D01*
X122777360Y-33866583D01*
X122759900Y-33875136D01*
X122741268Y-33882514D01*
X122734965Y-33887092D01*
X122734958Y-33887097D01*
X122705939Y-33908181D01*
X122696179Y-33914592D01*
X122665294Y-33932857D01*
X122665284Y-33932864D01*
X122658579Y-33936830D01*
X122653063Y-33942345D01*
X122653060Y-33942348D01*
X122644407Y-33951000D01*
X122629624Y-33963626D01*
X122619727Y-33970817D01*
X122619720Y-33970823D01*
X122613413Y-33975406D01*
X122608446Y-33981408D01*
X122608435Y-33981420D01*
X122585570Y-34009059D01*
X122577710Y-34017697D01*
X122372226Y-34223181D01*
X122331998Y-34250061D01*
X122284545Y-34259500D01*
X121075439Y-34259500D01*
X121075420Y-34259500D01*
X121072128Y-34259501D01*
X121068850Y-34259853D01*
X121068838Y-34259854D01*
X121020231Y-34265079D01*
X121020225Y-34265080D01*
X121012517Y-34265909D01*
X121005252Y-34268618D01*
X121005246Y-34268620D01*
X120885980Y-34313104D01*
X120885978Y-34313104D01*
X120877669Y-34316204D01*
X120870572Y-34321516D01*
X120870568Y-34321519D01*
X120769550Y-34397141D01*
X120769546Y-34397144D01*
X120762454Y-34402454D01*
X120757144Y-34409546D01*
X120757141Y-34409550D01*
X120681519Y-34510568D01*
X120681516Y-34510572D01*
X120676204Y-34517669D01*
X120673104Y-34525978D01*
X120673104Y-34525980D01*
X120628620Y-34645247D01*
X120628619Y-34645250D01*
X120625909Y-34652517D01*
X120625079Y-34660227D01*
X120625079Y-34660232D01*
X120619855Y-34708819D01*
X120619854Y-34708831D01*
X120619500Y-34712127D01*
X120619500Y-34715449D01*
X120619500Y-35325547D01*
X120605985Y-35381842D01*
X120568385Y-35425865D01*
X120514898Y-35448020D01*
X120457182Y-35443478D01*
X120407819Y-35413228D01*
X120167286Y-35172695D01*
X120159842Y-35164514D01*
X120155786Y-35158123D01*
X120106775Y-35112098D01*
X120103978Y-35109387D01*
X120087227Y-35092636D01*
X120087226Y-35092635D01*
X120084471Y-35089880D01*
X120081290Y-35087412D01*
X120072414Y-35079830D01*
X120046269Y-35055278D01*
X120046267Y-35055276D01*
X120040582Y-35049938D01*
X120033749Y-35046182D01*
X120033743Y-35046177D01*
X120023025Y-35040285D01*
X120006766Y-35029606D01*
X119997095Y-35022104D01*
X119997092Y-35022102D01*
X119990936Y-35017327D01*
X119983779Y-35014229D01*
X119983776Y-35014228D01*
X119950849Y-34999978D01*
X119940363Y-34994841D01*
X119908932Y-34977562D01*
X119908923Y-34977558D01*
X119902092Y-34973803D01*
X119894535Y-34971862D01*
X119894531Y-34971861D01*
X119882688Y-34968820D01*
X119864284Y-34962519D01*
X119853057Y-34957660D01*
X119853050Y-34957658D01*
X119845896Y-34954562D01*
X119838192Y-34953341D01*
X119838190Y-34953341D01*
X119802759Y-34947729D01*
X119791324Y-34945361D01*
X119756571Y-34936438D01*
X119756563Y-34936437D01*
X119749019Y-34934500D01*
X119741223Y-34934500D01*
X119728983Y-34934500D01*
X119709597Y-34932974D01*
X119689804Y-34929840D01*
X119682038Y-34930574D01*
X119682035Y-34930574D01*
X119646324Y-34933950D01*
X119634655Y-34934500D01*
X112021376Y-34934500D01*
X112010323Y-34933979D01*
X112002937Y-34932328D01*
X111995139Y-34932573D01*
X111935749Y-34934439D01*
X111931855Y-34934500D01*
X111904254Y-34934500D01*
X111900403Y-34934986D01*
X111900372Y-34934988D01*
X111900244Y-34935005D01*
X111888633Y-34935918D01*
X111852776Y-34937045D01*
X111852769Y-34937046D01*
X111844977Y-34937291D01*
X111837492Y-34939465D01*
X111837476Y-34939468D01*
X111825730Y-34942881D01*
X111806687Y-34946825D01*
X111794553Y-34948358D01*
X111794552Y-34948358D01*
X111786812Y-34949336D01*
X111779562Y-34952205D01*
X111779555Y-34952208D01*
X111746202Y-34965413D01*
X111735158Y-34969194D01*
X111700709Y-34979203D01*
X111700699Y-34979207D01*
X111693214Y-34981382D01*
X111686504Y-34985349D01*
X111686502Y-34985351D01*
X111683109Y-34987357D01*
X111675964Y-34991583D01*
X111658504Y-35000136D01*
X111639872Y-35007514D01*
X111633569Y-35012092D01*
X111633562Y-35012097D01*
X111604543Y-35033181D01*
X111594783Y-35039592D01*
X111563898Y-35057857D01*
X111563888Y-35057864D01*
X111557183Y-35061830D01*
X111551667Y-35067345D01*
X111551664Y-35067348D01*
X111543011Y-35076000D01*
X111528228Y-35088626D01*
X111518331Y-35095817D01*
X111518324Y-35095823D01*
X111512017Y-35100406D01*
X111507050Y-35106408D01*
X111507039Y-35106420D01*
X111484174Y-35134059D01*
X111476314Y-35142697D01*
X110867696Y-35751315D01*
X110859511Y-35758763D01*
X110853123Y-35762818D01*
X110847788Y-35768498D01*
X110847783Y-35768503D01*
X110807096Y-35811829D01*
X110804392Y-35814620D01*
X110787628Y-35831384D01*
X110787621Y-35831391D01*
X110784880Y-35834133D01*
X110782500Y-35837200D01*
X110782489Y-35837213D01*
X110782400Y-35837329D01*
X110774842Y-35846174D01*
X110750280Y-35872331D01*
X110750273Y-35872340D01*
X110744938Y-35878022D01*
X110741182Y-35884853D01*
X110741179Y-35884858D01*
X110735285Y-35895579D01*
X110724609Y-35911831D01*
X110717109Y-35921500D01*
X110717101Y-35921511D01*
X110712327Y-35927668D01*
X110709234Y-35934812D01*
X110709229Y-35934823D01*
X110694974Y-35967764D01*
X110689838Y-35978247D01*
X110668803Y-36016512D01*
X110666864Y-36024060D01*
X110666863Y-36024065D01*
X110663822Y-36035911D01*
X110657521Y-36054315D01*
X110652658Y-36065552D01*
X110652656Y-36065556D01*
X110649562Y-36072708D01*
X110648342Y-36080407D01*
X110648342Y-36080409D01*
X110642729Y-36115845D01*
X110640361Y-36127280D01*
X110631438Y-36162032D01*
X110631436Y-36162040D01*
X110629500Y-36169585D01*
X110629500Y-36177381D01*
X110629500Y-36189621D01*
X110627974Y-36209006D01*
X110624840Y-36228800D01*
X109220500Y-36228800D01*
X109220500Y-33144500D01*
X109237113Y-33082500D01*
X109282500Y-33037113D01*
X109344500Y-33020500D01*
X154815500Y-33020500D01*
X154877500Y-33037113D01*
G37*
%TD.AperFunction*%
%TD*%
M02*
